<svg width="25" height="25" viewBox="0 0 25 25" fill="none" xmlns="http://www.w3.org/2000/svg">
<path d="M12.8228 21.7095C11.698 19.8363 12.3052 17.4059 14.1782 16.2809C16.0514 15.1561 18.4822 15.7624 19.6071 17.6355C20.732 19.5088 20.125 21.9392 18.2517 23.064C16.3785 24.1889 13.9476 23.5828 12.8228 21.7095ZM16.1389 11.6655C15.648 9.53639 16.9761 7.41225 19.105 6.92117C21.2342 6.43023 23.3584 7.75822 23.8493 9.8873C24.3403 12.0165 23.0124 14.1407 20.8832 14.6316C18.7541 15.1224 16.6298 13.7945 16.1389 11.6655ZM4.01145 21.8232C2.36284 20.3891 2.18886 17.8902 3.62286 16.2415C5.05693 14.5932 7.55594 14.419 9.20449 15.8529C10.853 17.2869 11.0268 19.7859 9.59307 21.4346C8.15906 23.0833 5.6602 23.2572 4.01145 21.8232ZM8.77605 4.11104C8.96714 1.93428 10.8865 0.324667 13.0631 0.515696C15.2399 0.706784 16.8495 2.62609 16.6585 4.80278C16.4673 6.97938 14.5479 8.58912 12.3714 8.39812C10.1948 8.20707 8.58523 6.28756 8.77605 4.11104ZM0.816282 7.88732C1.67075 5.87659 3.9933 4.93896 6.0042 5.79299C8.01519 6.64728 8.95347 8.97024 8.09943 10.9813C7.24506 12.9924 4.92136 13.9305 2.91023 13.0761C0.899339 12.2217 -0.0380323 9.89835 0.816282 7.88732Z" fill="black" stroke="black"/>
</svg>
