<svg width="39" height="38" viewBox="0 0 39 38" fill="none" xmlns="http://www.w3.org/2000/svg">
<path d="M6.4248 26.4072C8.52989 23.5101 12.5852 22.8677 15.4824 24.9727C18.3797 27.0775 19.0217 31.1329 16.917 34.0303C14.8119 36.9276 10.7567 37.5699 7.85938 35.4648C4.96206 33.3599 4.31975 29.3046 6.4248 26.4072ZM23.0078 24.9727C25.9051 22.8677 29.9604 23.5101 32.0654 26.4072C34.1705 29.3046 33.5282 33.3599 30.6309 35.4648C27.7335 37.5699 23.6782 36.9276 21.5732 34.0303C19.4684 31.1329 20.1106 27.0775 23.0078 24.9727ZM0.819336 13.8447C1.9261 10.4389 5.58426 8.57499 8.99023 9.68164C12.3963 10.7883 14.26 14.4466 13.1533 17.8525C12.0466 21.2585 8.38845 23.1223 4.98242 22.0156C1.57654 20.9088 -0.287328 17.2508 0.819336 13.8447ZM29.4727 9.68164C32.8787 8.57499 36.5368 10.4389 37.6436 13.8447C38.7502 17.2508 36.8863 20.9089 33.4805 22.0156C30.0743 23.1223 26.4163 21.2585 25.3096 17.8525C24.2029 14.4466 26.0667 10.7883 29.4727 9.68164ZM19.2334 0.5C22.8147 0.5 25.7187 3.40314 25.7188 6.98438C25.7188 10.5657 22.8148 13.4688 19.2334 13.4688C15.6522 13.4685 12.749 10.5656 12.749 6.98438C12.7491 3.40328 15.6523 0.500224 19.2334 0.5Z" fill="#FFC4D1" stroke="black"/>
</svg>
