<svg width="39" height="39" viewBox="0 0 39 39" fill="none" xmlns="http://www.w3.org/2000/svg">
<path d="M11.6124 30.148C12.1827 26.8925 15.2846 24.716 18.5402 25.2863C21.7954 25.8565 23.9722 28.9574 23.4024 32.2127C22.8321 35.4683 19.7306 37.6455 16.475 37.0753C13.2195 36.5051 11.0422 33.4036 11.6124 30.148ZM25.8283 21.7214C27.3767 18.8013 30.999 17.6887 33.9189 19.237C36.8391 20.7853 37.9508 24.4081 36.4024 27.328C34.854 30.248 31.2313 31.3599 28.3114 29.8115C25.3918 28.263 24.2803 24.6411 25.8283 21.7214ZM1.05989 21.1694C0.596454 17.8971 2.87354 14.8685 6.14589 14.4048C9.41831 13.9412 12.4467 16.2185 12.9104 19.4908C13.374 22.7632 11.0968 25.7917 7.82442 26.2554C4.55211 26.7188 1.52361 24.4418 1.05989 21.1694ZM24.8224 5.26942C27.1973 2.9708 30.9858 3.03244 33.2845 5.40703C35.5831 7.78194 35.5215 11.5705 33.1469 13.8691C30.7719 16.1678 26.9834 16.1063 24.6848 13.7315C22.3862 11.3567 22.4476 7.56808 24.8224 5.26942ZM11.4623 1.61038C14.4313 0.158118 18.0161 1.38728 19.4684 4.3562C20.9206 7.32522 19.6903 10.9096 16.7212 12.3618C13.7523 13.8139 10.1682 12.5845 8.71602 9.6156C7.26393 6.64673 8.49353 3.06275 11.4623 1.61038Z" fill="black" stroke="#FFE2E9" stroke-width="2"/>
</svg>
