<svg width="87" height="122" viewBox="0 0 87 122" fill="none" xmlns="http://www.w3.org/2000/svg">
<path d="M40.9709 1.34334C50.4754 4.2926 55.6697 14.0724 52.6039 23.1152L45.8632 42.9614L45.6443 43.6049L46.3287 43.6057L68.1504 43.6187C78.1512 43.6244 86.2625 51.3956 86.2654 60.9094C86.2686 70.4143 78.1659 78.1803 68.1789 78.1856L46.3478 78.1973L45.6341 78.1976L45.8593 78.8603L52.5853 98.6884L52.5983 98.7262L52.6007 98.731L52.6041 98.7453L52.6093 98.7603C55.635 107.796 50.4409 117.524 40.976 120.458L40.9748 120.459C31.6526 123.354 21.6084 118.603 18.3223 109.856L18.171 109.437L18.1565 109.395C18.1537 109.388 18.1512 109.381 18.1494 109.377C18.1489 109.375 18.148 109.374 18.1476 109.373L18.1457 109.366L18.142 109.356L11.3852 89.5274L11.1751 88.9082L10.6232 89.2909L-7.04436 101.54L-7.0481 101.542C-7.07592 101.562 -7.06526 101.555 -7.0793 101.564L-7.08773 101.571L-7.10021 101.58C-7.10173 101.581 -7.10403 101.582 -7.10645 101.584L-7.13545 101.599L-7.16727 101.62C-11.9973 104.918 -18.0028 105.615 -23.2992 103.971C-26.8163 102.88 -30.0089 100.76 -32.3381 97.6995C-38.1904 90.0117 -36.4122 79.2147 -28.3958 73.6058L-28.3617 73.5816L-28.3449 73.5654L-28.3443 73.5666L-10.6997 61.2997L-10.1109 60.8906L-10.6881 60.4897L-28.3297 48.2306L-28.3561 48.2112C-28.3661 48.2032 -28.3795 48.1926 -28.3955 48.1816L-28.3946 48.1819C-36.4194 42.5602 -38.1732 31.7722 -32.3356 24.0981C-26.4921 16.4161 -15.1826 14.6717 -7.09435 20.2425L-7.09341 20.2398C-7.0788 20.2508 -7.06532 20.2637 -7.04933 20.2739L-7.04965 20.2748L-7.04685 20.2757C-7.04568 20.2764 -7.04492 20.2779 -7.04375 20.2787L-7.04343 20.2778C-7.03604 20.2824 -7.02741 20.2874 -7.01765 20.2929L10.6234 32.5171L11.1777 32.9006L11.3975 32.2574L18.1595 12.4363C21.2463 3.39061 31.4667 -1.60568 40.9709 1.34334Z" fill="#FFC4D1" stroke="black"/>
</svg>
