<svg width="40" height="40" viewBox="0 0 40 40" fill="none" xmlns="http://www.w3.org/2000/svg">
<mask id="mask0_641_915" style="mask-type:alpha" maskUnits="userSpaceOnUse" x="0" y="0" width="40" height="40">
<rect width="39.8716" height="39.8716" fill="#D9D9D9"/>
</mask>
<g mask="url(#mask0_641_915)">
<path d="M5.64803 27.2456L1.82701 23.5076C1.49474 23.1754 1.32861 22.7877 1.32861 22.3447C1.32861 21.9017 1.49474 21.514 1.82701 21.1818C4.2636 18.5514 7.074 16.5785 10.2582 15.2633C13.4424 13.9481 16.6681 13.2905 19.9354 13.2905C23.2026 13.2905 26.4214 13.9481 29.5917 15.2633C32.7621 16.5785 35.5794 18.5514 38.0437 21.1818C38.376 21.514 38.5421 21.9017 38.5421 22.3447C38.5421 22.7877 38.376 23.1754 38.0437 23.5076L34.2227 27.2456C33.9181 27.5502 33.5651 27.7163 33.1636 27.744C32.7621 27.7717 32.3952 27.6609 32.063 27.4117L27.2451 23.7568C27.0236 23.5907 26.8575 23.3969 26.7467 23.1754C26.636 22.9538 26.5806 22.7047 26.5806 22.4278V17.693C25.5284 17.3608 24.4486 17.0977 23.341 16.9039C22.2335 16.7101 21.0983 16.6132 19.9354 16.6132C18.7724 16.6132 17.6372 16.7101 16.5297 16.9039C15.4221 17.0977 14.3423 17.3608 13.2901 17.693V22.4278C13.2901 22.7047 13.2347 22.9538 13.124 23.1754C13.0132 23.3969 12.8471 23.5907 12.6256 23.7568L7.80774 27.4117C7.47548 27.6609 7.10861 27.7717 6.70712 27.744C6.30564 27.7163 5.95261 27.5502 5.64803 27.2456ZM9.96746 19.0221C9.16449 19.4374 8.38921 19.915 7.64161 20.455C6.89402 20.9949 6.11874 21.5971 5.31577 22.2616L6.97709 23.9229L9.96746 21.5971V19.0221ZM29.9032 19.1051V21.5971L32.8936 23.9229L34.5549 22.3447C33.752 21.6248 32.9767 21.0018 32.2291 20.4757C31.4815 19.9496 30.7062 19.4928 29.9032 19.1051Z" fill="white"/>
</g>
</svg>
