<svg width="30" height="30" viewBox="0 0 30 30" fill="none" xmlns="http://www.w3.org/2000/svg">
<mask id="mask0_641_783" style="mask-type:alpha" maskUnits="userSpaceOnUse" x="0" y="0" width="30" height="30">
<rect width="29.8286" height="29.8286" fill="#D9D9D9"/>
</mask>
<g mask="url(#mask0_641_783)">
<path d="M24.795 26.1C22.2057 26.1 19.6475 25.5356 17.1203 24.4066C14.5932 23.2777 12.2939 21.6775 10.2225 19.6061C8.15102 17.5347 6.55084 15.2354 5.42191 12.7082C4.29298 10.1811 3.72852 7.62287 3.72852 5.03358C3.72852 4.66072 3.8528 4.35001 4.10137 4.10143C4.34995 3.85286 4.66066 3.72858 5.03352 3.72858H10.0671C10.3571 3.72858 10.616 3.82697 10.8439 4.02376C11.0717 4.22054 11.2064 4.45358 11.2478 4.72286L12.0557 9.07287C12.0971 9.4043 12.0867 9.68394 12.0246 9.9118C11.9625 10.1397 11.8485 10.3364 11.6828 10.5022L8.66888 13.5472C9.08317 14.3136 9.57513 15.0541 10.1448 15.7688C10.7144 16.4834 11.341 17.1722 12.0246 17.835C12.6667 18.4772 13.34 19.0727 14.0442 19.6216C14.7485 20.1706 15.4942 20.6729 16.2814 21.1286L19.2021 18.2079C19.3885 18.0215 19.6319 17.8816 19.9323 17.7884C20.2326 17.6952 20.5278 17.6693 20.8178 17.7107L25.1057 18.5807C25.3957 18.6636 25.6339 18.8138 25.8203 19.0313C26.0068 19.2488 26.1 19.4922 26.1 19.7615V24.795C26.1 25.1679 25.9757 25.4786 25.7271 25.7272C25.4785 25.9758 25.1678 26.1 24.795 26.1ZM7.48816 11.1857L9.53888 9.13501L9.01067 6.21429H6.24531C6.34888 7.06358 6.49388 7.90251 6.68031 8.73108C6.86673 9.55966 7.13602 10.3779 7.48816 11.1857ZM18.6118 22.3093C19.4196 22.6615 20.243 22.9411 21.0819 23.1482C21.9209 23.3554 22.765 23.49 23.6143 23.5522V20.8179L20.6935 20.2275L18.6118 22.3093Z" fill="white"/>
</g>
</svg>
