<svg width="15" height="15" viewBox="0 0 15 15" fill="none" xmlns="http://www.w3.org/2000/svg">
<path d="M7.23633 0L13.7852 3.90762C14.0023 4.04028 14.1711 4.22119 14.2917 4.45034C14.4124 4.67949 14.4727 4.9207 14.4727 5.17397V13.0254C14.4727 13.4234 14.3309 13.7641 14.0475 14.0475C13.7641 14.3309 13.4234 14.4727 13.0254 14.4727H1.44727C1.04927 14.4727 0.708557 14.3309 0.425134 14.0475C0.141711 13.7641 0 13.4234 0 13.0254V5.17397C0 4.9207 0.0603027 4.67949 0.180908 4.45034C0.301514 4.22119 0.470361 4.04028 0.687451 3.90762L7.23633 0ZM7.23633 8.43032L12.8807 5.06543L7.23633 1.70054L1.59199 5.06543L7.23633 8.43032ZM7.23633 10.1309L1.44727 6.65742V13.0254H13.0254V6.65742L7.23633 10.1309Z" fill="black"/>
</svg>
