<svg width="50" height="50" viewBox="0 0 50 50" fill="none" xmlns="http://www.w3.org/2000/svg">
<mask id="mask0_641_1080" style="mask-type:alpha" maskUnits="userSpaceOnUse" x="0" y="0" width="50" height="50">
<rect width="49.3608" height="49.3608" fill="#D9D9D9"/>
</mask>
<g mask="url(#mask0_641_1080)">
<path d="M4.11328 45.2476V8.22693C4.11328 7.09574 4.51605 6.12738 5.32159 5.32184C6.12714 4.5163 7.0955 4.11353 8.22668 4.11353H41.1339C42.2651 4.11353 43.2335 4.5163 44.039 5.32184C44.8445 6.12738 45.2473 7.09574 45.2473 8.22693V32.9073C45.2473 34.0385 44.8445 35.0069 44.039 35.8124C43.2335 36.618 42.2651 37.0208 41.1339 37.0208H12.3401L4.11328 45.2476ZM10.5919 32.9073H41.1339V8.22693H8.22668V35.2211L10.5919 32.9073Z" fill="white"/>
</g>
</svg>
