<svg width="40" height="40" viewBox="0 0 40 40" fill="none" xmlns="http://www.w3.org/2000/svg">
<mask id="mask0_641_903" style="mask-type:alpha" maskUnits="userSpaceOnUse" x="0" y="0" width="40" height="40">
<rect width="39.262" height="39.262" fill="#D9D9D9"/>
</mask>
<g mask="url(#mask0_641_903)">
<path d="M19.6308 37.6261C18.731 37.6261 17.9608 37.3057 17.32 36.665C16.6793 36.0242 16.3589 35.254 16.3589 34.3542C16.3589 33.4545 16.6793 32.6842 17.32 32.0435C17.9608 31.4028 18.731 31.0824 19.6308 31.0824C20.5305 31.0824 21.3008 31.4028 21.9415 32.0435C22.5822 32.6842 22.9026 33.4545 22.9026 34.3542C22.9026 35.254 22.5822 36.0242 21.9415 36.665C21.3008 37.3057 20.5305 37.6261 19.6308 37.6261ZM9.81529 8.17959C8.91553 8.17959 8.14529 7.85922 7.50456 7.21849C6.86382 6.57775 6.54346 5.80751 6.54346 4.90776C6.54346 4.008 6.86382 3.23776 7.50456 2.59703C8.14529 1.95629 8.91553 1.63593 9.81529 1.63593C10.715 1.63593 11.4853 1.95629 12.126 2.59703C12.7668 3.23776 13.0871 4.008 13.0871 4.90776C13.0871 5.80751 12.7668 6.57775 12.126 7.21849C11.4853 7.85922 10.715 8.17959 9.81529 8.17959ZM9.81529 17.9951C8.91553 17.9951 8.14529 17.6747 7.50456 17.034C6.86382 16.3932 6.54346 15.623 6.54346 14.7232C6.54346 13.8235 6.86382 13.0532 7.50456 12.4125C8.14529 11.7718 8.91553 11.4514 9.81529 11.4514C10.715 11.4514 11.4853 11.7718 12.126 12.4125C12.7668 13.0532 13.0871 13.8235 13.0871 14.7232C13.0871 15.623 12.7668 16.3932 12.126 17.034C11.4853 17.6747 10.715 17.9951 9.81529 17.9951ZM9.81529 27.8106C8.91553 27.8106 8.14529 27.4902 7.50456 26.8495C6.86382 26.2087 6.54346 25.4385 6.54346 24.5387C6.54346 23.639 6.86382 22.8687 7.50456 22.228C8.14529 21.5873 8.91553 21.2669 9.81529 21.2669C10.715 21.2669 11.4853 21.5873 12.126 22.228C12.7668 22.8687 13.0871 23.639 13.0871 24.5387C13.0871 25.4385 12.7668 26.2087 12.126 26.8495C11.4853 27.4902 10.715 27.8106 9.81529 27.8106ZM29.4463 8.17959C28.5465 8.17959 27.7763 7.85922 27.1355 7.21849C26.4948 6.57775 26.1744 5.80751 26.1744 4.90776C26.1744 4.008 26.4948 3.23776 27.1355 2.59703C27.7763 1.95629 28.5465 1.63593 29.4463 1.63593C30.346 1.63593 31.1163 1.95629 31.757 2.59703C32.3977 3.23776 32.7181 4.008 32.7181 4.90776C32.7181 5.80751 32.3977 6.57775 31.757 7.21849C31.1163 7.85922 30.346 8.17959 29.4463 8.17959ZM19.6308 27.8106C18.731 27.8106 17.9608 27.4902 17.32 26.8495C16.6793 26.2087 16.3589 25.4385 16.3589 24.5387C16.3589 23.639 16.6793 22.8687 17.32 22.228C17.9608 21.5873 18.731 21.2669 19.6308 21.2669C20.5305 21.2669 21.3008 21.5873 21.9415 22.228C22.5822 22.8687 22.9026 23.639 22.9026 24.5387C22.9026 25.4385 22.5822 26.2087 21.9415 26.8495C21.3008 27.4902 20.5305 27.8106 19.6308 27.8106ZM29.4463 27.8106C28.5465 27.8106 27.7763 27.4902 27.1355 26.8495C26.4948 26.2087 26.1744 25.4385 26.1744 24.5387C26.1744 23.639 26.4948 22.8687 27.1355 22.228C27.7763 21.5873 28.5465 21.2669 29.4463 21.2669C30.346 21.2669 31.1163 21.5873 31.757 22.228C32.3977 22.8687 32.7181 23.639 32.7181 24.5387C32.7181 25.4385 32.3977 26.2087 31.757 26.8495C31.1163 27.4902 30.346 27.8106 29.4463 27.8106ZM29.4463 17.9951C28.5465 17.9951 27.7763 17.6747 27.1355 17.034C26.4948 16.3932 26.1744 15.623 26.1744 14.7232C26.1744 13.8235 26.4948 13.0532 27.1355 12.4125C27.7763 11.7718 28.5465 11.4514 29.4463 11.4514C30.346 11.4514 31.1163 11.7718 31.757 12.4125C32.3977 13.0532 32.7181 13.8235 32.7181 14.7232C32.7181 15.623 32.3977 16.3932 31.757 17.034C31.1163 17.6747 30.346 17.9951 29.4463 17.9951ZM19.6308 17.9951C18.731 17.9951 17.9608 17.6747 17.32 17.034C16.6793 16.3932 16.3589 15.623 16.3589 14.7232C16.3589 13.8235 16.6793 13.0532 17.32 12.4125C17.9608 11.7718 18.731 11.4514 19.6308 11.4514C20.5305 11.4514 21.3008 11.7718 21.9415 12.4125C22.5822 13.0532 22.9026 13.8235 22.9026 14.7232C22.9026 15.623 22.5822 16.3932 21.9415 17.034C21.3008 17.6747 20.5305 17.9951 19.6308 17.9951ZM19.6308 8.17959C18.731 8.17959 17.9608 7.85922 17.32 7.21849C16.6793 6.57775 16.3589 5.80751 16.3589 4.90776C16.3589 4.008 16.6793 3.23776 17.32 2.59703C17.9608 1.95629 18.731 1.63593 19.6308 1.63593C20.5305 1.63593 21.3008 1.95629 21.9415 2.59703C22.5822 3.23776 22.9026 4.008 22.9026 4.90776C22.9026 5.80751 22.5822 6.57775 21.9415 7.21849C21.3008 7.85922 20.5305 8.17959 19.6308 8.17959Z" fill="white"/>
</g>
</svg>
