<svg width="33" height="33" viewBox="0 0 33 33" fill="none" xmlns="http://www.w3.org/2000/svg">
<mask id="mask0_641_777" style="mask-type:alpha" maskUnits="userSpaceOnUse" x="0" y="0" width="33" height="33">
<rect width="32.8301" height="32.8301" fill="#D9D9D9"/>
</mask>
<g mask="url(#mask0_641_777)">
<path d="M16.415 30.0942C14.5227 30.0942 12.7445 29.7352 11.0802 29.017C9.41585 28.2988 7.96813 27.3242 6.73701 26.0931C5.50588 24.8619 4.53123 23.4142 3.81308 21.7499C3.09492 20.0856 2.73584 18.3073 2.73584 16.415C2.73584 14.5227 3.09492 12.7445 3.81308 11.0802C4.53123 9.41585 5.50588 7.96813 6.73701 6.73701C7.96813 5.50588 9.41585 4.53123 11.0802 3.81308C12.7445 3.09492 14.5227 2.73584 16.415 2.73584H27.3584C28.1108 2.73584 28.7548 3.00372 29.2906 3.53949C29.8264 4.07526 30.0942 4.71932 30.0942 5.47168V16.415C30.0942 18.3073 29.7352 20.0856 29.017 21.7499C28.2988 23.4142 27.3242 24.8619 26.0931 26.0931C24.8619 27.3242 23.4142 28.2988 21.7499 29.017C20.0856 29.7352 18.3073 30.0942 16.415 30.0942ZM16.415 27.3584C19.4701 27.3584 22.0577 26.2983 24.178 24.178C26.2983 22.0577 27.3584 19.4701 27.3584 16.415V5.47168H16.415C13.36 5.47168 10.7724 6.53182 8.65209 8.65209C6.53182 10.7724 5.47168 13.36 5.47168 16.415C5.47168 19.4701 6.53182 22.0577 8.65209 24.178C10.7724 26.2983 13.36 27.3584 16.415 27.3584ZM9.57544 20.5188H19.1509V17.783L23.2546 20.5188V12.3113L19.1509 15.0471V12.3113H9.57544V20.5188Z" fill="white"/>
</g>
</svg>
