<svg width="13" height="13" viewBox="0 0 13 13" fill="none" xmlns="http://www.w3.org/2000/svg">
<mask id="mask0_641_1608" style="mask-type:alpha" maskUnits="userSpaceOnUse" x="0" y="0" width="13" height="13">
<rect width="12.601" height="12.601" fill="#FEFEFC" fill-opacity="0.9"/>
</mask>
<g mask="url(#mask0_641_1608)">
<path d="M2.1001 12.601V10.5008H12.6009V12.601H2.1001ZM4.20026 8.40067H4.93532L9.03064 4.31847L8.28246 3.57029L4.20026 7.66561V8.40067ZM3.15018 9.45075V7.21933L9.03064 1.35199C9.1269 1.25574 9.23847 1.18135 9.36535 1.12885C9.49224 1.07635 9.62569 1.05009 9.7657 1.05009C9.90571 1.05009 10.0413 1.07635 10.1726 1.12885C10.3039 1.18135 10.422 1.26011 10.527 1.36512L11.2489 2.10018C11.3539 2.19643 11.4305 2.31019 11.4786 2.44145C11.5268 2.57271 11.5508 2.70835 11.5508 2.84836C11.5508 2.97962 11.5268 3.10869 11.4786 3.23558C11.4305 3.36246 11.3539 3.47841 11.2489 3.58342L5.3816 9.45075H3.15018Z" fill="#FEFEFC" fill-opacity="0.9"/>
</g>
</svg>
