<svg width="21" height="21" viewBox="0 0 21 21" fill="none" xmlns="http://www.w3.org/2000/svg">
<path d="M7.62002 20.3452C6.28113 19.904 5.54874 18.4531 5.98891 17.1122L7.11181 13.6994L7.32686 13.0464L6.63911 13.043L3.04996 13.0269C1.63856 13.0204 0.49456 11.8665 0.499727 10.4556C0.504915 9.04474 1.65914 7.89909 3.06946 7.90387L6.65982 7.91624L7.34695 7.91839L7.13799 7.26352L6.04915 3.85748L6.04696 3.84853L6.04228 3.83465C5.64529 2.57614 6.27339 1.23117 7.45745 0.714495L7.7017 0.622204C8.95717 0.219429 10.3032 0.842635 10.8255 2.02315L10.9181 2.26648L10.9247 2.28714L12.02 5.69841L12.2302 6.35266L12.788 5.95134L15.6889 3.86438L15.6892 3.86345L15.72 3.84172C16.4041 3.35674 17.2533 3.25577 18.0022 3.50243C18.4985 3.66588 18.9476 3.98126 19.2751 4.43572C20.0975 5.5764 19.8413 7.17665 18.7044 8.00463C18.7041 8.00479 18.7031 8.00573 18.7016 8.0068L18.6692 8.03008L18.6659 8.0341L15.7841 10.113L15.2272 10.5146L15.7811 10.9212L18.666 13.0382L18.6651 13.0379L18.6676 13.0397L18.6685 13.04L18.6744 13.044C18.6772 13.0462 18.6801 13.0487 18.6834 13.0511C19.8132 13.8868 20.0571 15.4874 19.2249 16.6234C18.3926 17.7594 16.7923 18.0096 15.6542 17.182L15.6533 17.1848C15.6505 17.1827 15.6482 17.18 15.6453 17.178L15.6459 17.1761L15.6341 17.1682L15.6344 17.1672C15.6334 17.1666 15.6318 17.1667 15.6307 17.166L12.7492 15.0573L12.195 14.6517L11.9799 15.3047L10.8536 18.7122C10.4104 20.054 8.95903 20.7861 7.62002 20.3452Z" fill="black" stroke="black"/>
</svg>
