<svg width="25" height="26" viewBox="0 0 25 26" fill="none" xmlns="http://www.w3.org/2000/svg">
<path d="M9.25315 24.8994C7.56383 24.343 6.64089 22.5133 7.19591 20.8218L8.56378 16.662L8.77791 16.0087L8.09108 16.0056L3.7166 15.9859C1.9361 15.9776 0.493064 14.5215 0.49967 12.7416C0.506415 10.9619 1.96232 9.51679 3.74145 9.52287L8.11746 9.53795L8.80459 9.54011L8.59532 8.88617L7.26504 4.72408L7.2641 4.72069L7.25972 4.70588C6.72555 3.0125 7.66319 1.19593 9.35371 0.65466C11.0433 0.112673 12.8617 1.0432 13.4113 2.72917C13.4131 2.73459 13.4151 2.74085 13.4176 2.74768C13.4185 2.75028 13.4188 2.75274 13.4195 2.75446L14.7537 6.91066L14.9636 7.56584L15.5218 7.16359L19.0627 4.61603L19.0655 4.61386L19.0954 4.59183C19.9587 3.97979 21.0297 3.85429 21.9739 4.16515C22.5999 4.37131 23.1677 4.76881 23.5809 5.34212C24.5864 6.73719 24.3126 8.67615 22.9884 9.74492L22.8575 9.84576L22.8249 9.86996L22.8221 9.87214L19.3006 12.4138L18.7437 12.8154L19.2976 13.2219L22.8176 15.8052L22.8185 15.8055L22.8244 15.8095L22.8439 15.8251C24.2617 16.8813 24.5668 18.8946 23.5192 20.3247C22.4692 21.7578 20.4499 22.073 19.0142 21.029L19.0136 21.0308C19.0103 21.0284 19.0071 21.0259 19.0037 21.0234L19.0043 21.0216L15.4738 18.439L14.9196 18.0334L14.7036 18.6861L13.3323 22.8406C12.7731 24.5329 10.9424 25.4557 9.25315 24.8994Z" fill="#FFC4D1" stroke="black"/>
</svg>
