<svg width="50" height="52" viewBox="0 0 50 52" fill="none" xmlns="http://www.w3.org/2000/svg">
<path d="M30.7525 1.31642C34.0333 2.38232 35.8842 5.84695 34.9983 9.14522L34.904 9.46372L32.1999 17.7997L31.7759 19.1078L33.1508 19.1078L41.9054 19.114C45.4699 19.1161 48.3701 22.0175 48.3712 25.5806C48.3723 29.1439 45.4692 32.0484 41.9073 32.0503L33.1491 32.0553L31.7748 32.0565L32.1983 33.3636L34.8973 41.6931L34.9061 41.7196C35.989 45.105 34.1268 48.7487 30.7473 49.8459L30.7461 49.8465C27.474 50.9104 23.9492 49.2098 22.7194 46.0384L22.608 45.727L22.5941 45.6845L19.8872 37.3668L19.4609 36.0588L18.3482 36.8668L11.2828 41.9962L11.2766 41.9993L11.2155 42.0421C9.49207 43.2743 7.34961 43.5359 5.45704 42.921C4.28067 42.5388 3.20679 41.8198 2.39177 40.7885L2.23205 40.5785C0.142075 37.7039 0.775732 33.6566 3.64382 31.5556L3.70955 31.5081L3.71291 31.5041L10.7411 26.3883L11.8529 25.58L10.7417 24.7713L3.679 19.6334L3.67993 19.6337L3.67403 19.6297L3.66161 19.6206L3.66068 19.6203C3.65399 19.6151 3.64687 19.6096 3.63925 19.6041L3.64048 19.6034C0.867968 17.5699 0.186652 13.7157 2.04705 10.861L2.23551 10.5875C4.32588 7.71041 8.36482 7.06361 11.2471 9.1421L11.2474 9.14117C11.261 9.15122 11.2746 9.1615 11.289 9.17112L11.2887 9.17205L11.2906 9.17265C11.2938 9.17475 11.2964 9.17761 11.2996 9.17968L11.2999 9.17875L18.3536 14.2972L19.4662 15.1044L19.892 13.7969L22.604 5.47167C23.7096 2.07923 27.3664 0.216435 30.7525 1.31642Z" fill="black" stroke="#FFE2E9" stroke-width="2"/>
</svg>
