<svg width="124" height="128" viewBox="0 0 124 128" fill="none" xmlns="http://www.w3.org/2000/svg">
<path d="M77.2688 1.38642C86.7575 4.4692 91.9722 14.7063 88.8972 24.2025L82.1564 44.9822L81.944 45.636L82.6317 45.6366L104.453 45.6505C114.438 45.6563 122.557 53.7802 122.56 63.7616C122.564 73.7435 114.438 81.8759 104.459 81.8815L82.6287 81.8934L81.9416 81.894L82.1535 82.5471L88.8801 103.308L88.8924 103.346L88.8936 103.349L88.8949 103.354L88.8984 103.369L88.9032 103.383C91.9356 112.863 86.7251 123.067 77.2541 126.141C67.939 129.171 57.8997 124.204 54.6117 115.042L54.4598 114.603L54.4453 114.559C54.4425 114.551 54.4398 114.545 54.438 114.54C54.4375 114.539 54.4378 114.537 54.4374 114.536C54.437 114.535 54.4364 114.534 54.4361 114.533L54.4358 114.531L54.4349 114.528L54.4311 114.517L47.6746 93.7563L47.4617 93.1029L46.9055 93.5065L29.2371 106.332L29.2344 106.334C29.2064 106.355 29.2176 106.347 29.2031 106.358L29.2021 106.358L29.1951 106.363L29.1816 106.373C29.1794 106.375 29.1764 106.376 29.1726 106.379L29.145 106.394L29.1146 106.415C24.28 109.872 18.2754 110.599 12.9855 108.88C9.47207 107.739 6.28065 105.521 3.95145 102.317C-1.90432 94.2625 -0.127682 82.9328 7.90586 77.048L7.93811 77.0246L7.95497 77.0074L7.95527 77.0065L7.95682 77.008L25.6013 64.1645L26.1569 63.7598L25.6013 63.3554L7.96135 50.5219L7.93432 50.5008L7.93339 50.5005C7.9232 50.492 7.90961 50.4808 7.89331 50.469L7.89424 50.4693C-0.123767 44.5883 -1.89546 33.2792 3.95955 25.2201C9.81487 17.1605 21.1243 15.3483 29.1996 21.1715L29.2002 21.1697C29.215 21.1814 29.2287 21.195 29.2449 21.2058L29.2446 21.2067C29.2457 21.2074 29.2469 21.2081 29.248 21.2088L29.2505 21.2107L29.2508 21.2097C29.2599 21.2157 29.2708 21.2224 29.2834 21.2296L46.9178 34.0233L47.4737 34.4267L47.6867 33.7741L54.4488 13.0208C57.5445 3.52139 67.7802 -1.69609 77.2688 1.38642Z" fill="#FFC4D1" stroke="black"/>
</svg>
