<svg width="93" height="96" viewBox="0 0 93 96" fill="none" xmlns="http://www.w3.org/2000/svg">
<path d="M40.975 85.9218L40.9731 85.915L35.9021 70.3326L35.6893 69.6792L35.1331 70.0828L21.872 79.7092L21.8689 79.7123C21.8623 79.7172 21.8547 79.7219 21.8517 79.7242L21.8379 79.7351L21.8317 79.7382L21.8105 79.7498L21.7807 79.772C18.1857 82.3423 13.7204 82.8828 9.78569 81.6045C7.17257 80.7555 4.79908 79.1063 3.06677 76.7231C-1.28791 70.7337 0.0330009 62.3084 6.00723 57.9319L6.03978 57.9076L6.04192 57.9041C6.04368 57.9028 6.04624 57.9024 6.04807 57.901C6.0503 57.8993 6.05181 57.896 6.0545 57.8939L19.289 48.2608L19.8443 47.857L19.2887 47.4526L6.04392 37.8163L6.03336 37.8077L6.03243 37.8074C6.02182 37.7986 6.00736 37.7863 5.98986 37.7741L5.98894 37.7738C0.0344868 33.3981 -1.27895 24.9932 3.073 19.0031C7.42754 13.0092 15.8382 11.6619 21.8436 15.9926L21.8442 15.9908C21.8564 16.0002 21.8676 16.0113 21.8809 16.0201L21.8806 16.0211C21.8824 16.0223 21.8845 16.0237 21.8865 16.025L21.8868 16.0241C21.8934 16.0284 21.9013 16.0327 21.9101 16.0378L35.1419 25.6381L35.6987 26.0419L35.9111 25.388L40.9872 9.81141C43.2897 2.74686 50.9017 -1.13319 57.958 1.15918C65.0145 3.45176 68.8927 11.0652 66.6059 18.1275L61.5469 33.724L61.3345 34.3779L62.0213 34.3782L78.4006 34.389C85.8261 34.3934 91.8651 40.4356 91.8673 47.8586C91.8695 55.2818 85.8258 61.3299 78.4051 61.3339L62.0195 61.3427L61.3324 61.3433L61.544 61.9973L66.5934 77.5798L66.6048 77.6174L66.6057 77.6208L66.6102 77.6356C68.8652 84.6862 64.99 92.2741 57.9468 94.5603C50.9095 96.8492 43.316 93.0015 40.9952 85.9797L40.9943 85.9794L40.9826 85.9427C40.9803 85.9365 40.9785 85.9311 40.9772 85.9276C40.9768 85.9265 40.9766 85.9251 40.9763 85.9242C40.9759 85.9233 40.9753 85.9224 40.975 85.9218ZM6.02657 57.9166C6.02273 57.9196 6.01905 57.9216 6.01736 57.9229L6.02841 57.9141C6.02755 57.9148 6.02728 57.9161 6.02657 57.9166Z" fill="black" stroke="black"/>
</svg>
