<svg width="132" height="170" viewBox="0 0 132 170" fill="none" xmlns="http://www.w3.org/2000/svg">
<path d="M127.035 86.6969C136 104.613 129.487 125.98 112.565 134.448C95.9062 142.783 75.2919 135.551 66.1006 118.234L65.6715 117.403L64.7772 117.85C73.7419 135.766 67.2305 157.132 50.308 165.6C33.3851 174.068 12.3797 166.471 3.41463 148.555C-5.41031 130.919 0.76167 109.94 17.0988 101.211L17.8847 100.805L17.4373 99.9105C0.514362 108.379 -20.4911 100.781 -29.4561 82.8656C-38.4209 64.9499 -31.9089 43.5829 -14.986 35.1149C1.93688 26.6471 22.9417 34.2447 31.9065 52.1602L32.8008 51.7127L32.3922 50.87C24.0424 33.1321 30.6126 12.2978 47.2709 3.96201C64.1936 -4.50594 85.1994 3.09126 94.1642 21.0069C103.129 38.9229 96.6167 60.2897 79.6941 68.7576L80.1416 69.6519L80.9381 69.2665C97.718 61.4238 118.21 69.0609 127.035 86.6969Z" fill="#FFC4D1" stroke="black"/>
</svg>
