<svg width="54" height="54" viewBox="0 0 54 54" fill="none" xmlns="http://www.w3.org/2000/svg">
<path d="M52.1376 27.1166C54.8525 32.5427 52.6545 39.1419 47.2285 41.857C41.9718 44.4873 35.6141 42.5073 32.7534 37.4475L32.4877 36.9493L31.5935 37.3968C34.3083 42.8228 32.1104 49.422 26.6844 52.1371C21.2584 54.852 14.6597 52.6547 11.9445 47.2289C9.31404 41.9722 11.2937 35.6136 16.3535 32.753L16.8522 32.4881L16.4047 31.5939C10.9787 34.3087 4.37952 32.1107 1.66434 26.6848C-1.05076 21.2589 1.14621 14.6593 6.57208 11.944C11.9982 9.22878 18.5982 11.4265 21.3133 16.8526L22.2076 16.4051L21.9677 15.8929C19.6332 10.5701 21.8597 4.29428 27.1162 1.66387C32.5423 -1.0513 39.1423 1.1464 41.8575 6.57248C44.5726 11.9986 42.3749 18.5986 36.9489 21.3137L37.3964 22.208L37.9081 21.9672C43.2309 19.6327 49.5072 21.86 52.1376 27.1166Z" fill="#FFC4D1" stroke="black"/>
</svg>
