<svg width="110" height="121" viewBox="0 0 110 121" fill="none" xmlns="http://www.w3.org/2000/svg">
<path d="M117.089 60.3339C123.31 72.7673 118.275 87.8902 105.841 94.1117C93.6022 100.236 78.7575 95.4517 72.3621 83.441L72.0636 82.8642L71.1693 83.3117C77.3907 95.7451 72.3552 110.868 59.9218 117.089C47.4885 123.311 32.3657 118.275 26.1441 105.842C20.0196 93.6027 24.8036 78.7572 36.8143 72.3618L37.3915 72.0642L36.9441 71.1699C24.5106 77.3912 9.3879 72.3557 3.16629 59.9224C-3.05519 47.4892 1.9805 32.3664 14.4138 26.1446C26.8473 19.923 41.97 24.9588 48.1915 37.3921L49.0858 36.9446L48.8031 36.3599C43.0238 24.0409 48.094 9.29138 60.3333 3.16686C72.7666 -3.05467 87.8895 1.98104 94.1111 14.4144C100.333 26.8478 95.2969 41.9706 82.8636 48.1921L83.3111 49.0864L83.8953 48.8028C96.2144 43.0235 110.964 48.0945 117.089 60.3339Z" fill="#FFC4D1" stroke="black"/>
</svg>
