<svg width="33" height="33" viewBox="0 0 33 33" fill="none" xmlns="http://www.w3.org/2000/svg">
<path d="M22.2051 1.02589C26.1094 2.5561 28.0337 6.96135 26.5038 10.8657C26.2708 11.46 26.564 12.131 27.1584 12.3641C31.0629 13.8944 32.9879 18.3007 31.4576 22.2052C29.9274 26.1096 25.5214 28.0337 21.6169 26.5035C21.0226 26.2708 20.3515 26.5639 20.1185 27.1581C18.5883 31.0626 14.1828 32.9879 10.2783 31.4577C6.37383 29.9275 4.44884 25.5212 5.97908 21.6167C6.21191 21.0222 5.91882 20.3512 5.32446 20.1182C1.42031 18.5879 -0.504355 14.1828 1.02577 10.2785C2.55595 6.37409 6.96155 4.44893 10.8659 5.97885C11.4604 6.21185 12.1314 5.91875 12.3644 5.32423C13.8947 1.42004 18.3007 -0.504291 22.2051 1.02589Z" fill="#FFC4D1" stroke="black"/>
</svg>
