<svg width="99" height="111" viewBox="0 0 99 111" fill="none" xmlns="http://www.w3.org/2000/svg">
<path d="M96.0124 55.5112C101.725 66.9272 97.1005 80.8122 85.6847 86.5246C74.4469 92.1476 60.8172 87.7551 54.9453 76.727L54.6718 76.1978L53.7775 76.6453C59.4897 88.0613 54.8657 101.946 43.4497 107.659C32.0338 113.371 18.1494 108.748 12.4368 97.3318C6.81345 86.0939 11.2057 72.4635 22.234 66.5915L22.7632 66.318L22.3157 65.4237C10.8998 71.1358 -2.98466 66.5125 -8.69726 55.0968C-14.4096 43.681 -9.78667 29.7956 1.62915 24.083C13.0453 18.3705 26.931 22.9944 32.6434 34.4103L33.5377 33.9628L33.2777 33.4257C27.9714 22.1148 32.6266 8.5724 43.8641 2.94895C55.28 -2.76348 69.166 1.86032 74.8784 13.2762C80.5906 24.6923 75.9665 38.5773 64.5507 44.2896L64.9982 45.1839L65.5353 44.9239C76.8463 39.6176 90.3891 44.2734 96.0124 55.5112Z" fill="black" stroke="black"/>
</svg>
