<svg width="63" height="121" viewBox="0 0 63 121" fill="none" xmlns="http://www.w3.org/2000/svg">
<path d="M117.089 60.334C123.31 72.7675 118.275 87.8903 105.841 94.1118C93.6022 100.236 78.7575 95.4518 72.3621 83.4411L72.0636 82.8643L71.1693 83.3118C77.3907 95.7452 72.3552 110.868 59.9218 117.09C47.4885 123.311 32.3657 118.275 26.1441 105.842C20.0196 93.6028 24.8036 78.7573 36.8143 72.3619L37.3915 72.0643L36.9441 71.17C24.5106 77.3914 9.3879 72.3558 3.16629 59.9225C-3.05519 47.4893 1.9805 32.3665 14.4138 26.1448C26.8473 19.9231 41.97 24.9589 48.1915 37.3922L49.0858 36.9448L48.8031 36.3601C43.0238 24.041 48.094 9.2915 60.3333 3.16699C72.7666 -3.05455 87.8895 1.98116 94.1111 14.4145C100.333 26.848 95.2969 41.9707 82.8636 48.1922L83.3111 49.0865L83.8953 48.8029C96.2144 43.0236 110.964 48.0946 117.089 60.334Z" fill="#FFC4D1" stroke="black"/>
</svg>
