<svg width="24" height="28" viewBox="0 0 24 28" fill="none" xmlns="http://www.w3.org/2000/svg">
<path d="M2.9169 16.0429C2.9169 17.3069 3.17213 18.5041 3.68258 19.6344C4.19304 20.7647 4.92227 21.7552 5.87026 22.606C5.84595 22.4844 5.8338 22.375 5.8338 22.2778V21.9497C5.8338 21.1718 5.97964 20.4426 6.27133 19.762C6.56302 19.0814 6.9884 18.4615 7.54747 17.9025L11.6676 13.8553L15.7877 17.9025C16.3468 18.4615 16.7722 19.0814 17.0639 19.762C17.3555 20.4426 17.5014 21.1718 17.5014 21.9497V22.2778C17.5014 22.375 17.4892 22.4844 17.4649 22.606C18.4129 21.7552 19.1421 20.7647 19.6526 19.6344C20.1631 18.5041 20.4183 17.3069 20.4183 16.0429C20.4183 14.8276 20.1934 13.679 19.7438 12.5974C19.2941 11.5157 18.6438 10.5494 17.7931 9.69868C17.3069 10.0147 16.7965 10.2517 16.2617 10.4097C15.7269 10.5677 15.18 10.6467 14.6209 10.6467C13.1139 10.6467 11.8074 10.1484 10.7014 9.15177C9.59538 8.15516 8.95731 6.92763 8.78715 5.46918C7.83916 6.27133 7.00055 7.10386 6.27133 7.96678C5.54211 8.82969 4.92834 9.70476 4.43004 10.592C3.93173 11.4792 3.55497 12.3847 3.29974 13.3083C3.04451 14.232 2.9169 15.1436 2.9169 16.0429ZM11.6676 17.9389L9.5893 19.9807C9.32192 20.2481 9.1153 20.552 8.96946 20.8923C8.82362 21.2326 8.75069 21.585 8.75069 21.9497C8.75069 22.7275 9.03631 23.3959 9.60753 23.955C10.1788 24.5141 10.8654 24.7936 11.6676 24.7936C12.4697 24.7936 13.1564 24.5141 13.7276 23.955C14.2989 23.3959 14.5845 22.7275 14.5845 21.9497C14.5845 21.5607 14.5116 21.2022 14.3657 20.874C14.2199 20.5459 14.0133 20.2481 13.7459 19.9807L11.6676 17.9389ZM11.6676 0V4.81288C11.6676 5.63933 11.9532 6.3321 12.5244 6.89117C13.0957 7.45024 13.7945 7.72978 14.6209 7.72978C15.0585 7.72978 15.4656 7.63863 15.8424 7.45632C16.2192 7.27401 16.5534 7.00055 16.8451 6.63594L17.5014 5.8338C19.3001 6.85471 20.7221 8.2767 21.7673 10.0998C22.8126 11.9228 23.3352 13.9039 23.3352 16.0429C23.3352 19.3001 22.2049 22.059 19.9443 24.3196C17.6837 26.5802 14.9248 27.7105 11.6676 27.7105C8.41039 27.7105 5.65149 26.5802 3.39089 24.3196C1.1303 22.059 0 19.3001 0 16.0429C0 12.9073 1.0513 9.92961 3.1539 7.10994C5.25649 4.29027 8.09439 1.92029 11.6676 0Z" fill="#FF5FA2"/>
</svg>
