<svg width="48" height="48" viewBox="0 0 48 48" fill="none" xmlns="http://www.w3.org/2000/svg">
<mask id="mask0_641_1089" style="mask-type:alpha" maskUnits="userSpaceOnUse" x="0" y="0" width="48" height="48">
<rect width="47.2549" height="47.2549" fill="#D9D9D9"/>
</mask>
<g mask="url(#mask0_641_1089)">
<path d="M23.628 1.96924L41.447 12.6016C42.0377 12.9626 42.4972 13.4548 42.8253 14.0783C43.1535 14.7018 43.3175 15.3581 43.3175 16.0473V37.4104C43.3175 38.4933 42.932 39.4204 42.1608 40.1915C41.3896 40.9627 40.4626 41.3483 39.3796 41.3483H7.87638C6.79346 41.3483 5.86641 40.9627 5.09524 40.1915C4.32406 39.4204 3.93848 38.4933 3.93848 37.4104V16.0473C3.93848 15.3581 4.10256 14.7018 4.43071 14.0783C4.75887 13.4548 5.2183 12.9626 5.80898 12.6016L23.628 1.96924ZM23.628 24.9075L38.9859 15.7519L23.628 6.59628L8.27017 15.7519L23.628 24.9075ZM23.628 29.5346L7.87638 20.0836V37.4104H39.3796V20.0836L23.628 29.5346Z" fill="white"/>
</g>
</svg>
