<svg width="20" height="20" viewBox="0 0 20 20" fill="none" xmlns="http://www.w3.org/2000/svg">
<mask id="mask0_976_493" style="mask-type:alpha" maskUnits="userSpaceOnUse" x="0" y="0" width="20" height="20">
<rect width="19.0381" height="19.0381" fill="#D9D9D9"/>
</mask>
<g mask="url(#mask0_976_493)">
<path d="M1.58643 17.4516V3.17306C1.58643 2.73677 1.74177 2.36328 2.05246 2.05258C2.36315 1.74189 2.73664 1.58655 3.17293 1.58655H15.865C16.3013 1.58655 16.6748 1.74189 16.9855 2.05258C17.2962 2.36328 17.4515 2.73677 17.4515 3.17306V12.6921C17.4515 13.1284 17.2962 13.5019 16.9855 13.8126C16.6748 14.1233 16.3013 14.2786 15.865 14.2786H4.75944L1.58643 17.4516ZM4.08517 12.6921H15.865V3.17306H3.17293V13.5845L4.08517 12.6921Z" fill="black"/>
</g>
</svg>
