<svg width="24" height="22" viewBox="0 0 24 22" fill="none" xmlns="http://www.w3.org/2000/svg">
<path d="M19.8599 11.6162L21.6099 12.6162L22.0503 12.8672L21.7925 13.3037L21.0864 14.5H22.9868V17.5H21.0864L21.7925 18.6963L22.0503 19.1328L21.6099 19.3838L19.8599 20.3838L19.4272 20.6309L19.1792 20.2002L18.4868 18.999L17.7944 20.2002L17.5464 20.6309L17.1138 20.3838L15.3638 19.3838L14.9233 19.1328L15.1812 18.6963L15.8872 17.5H13.9868V14.5H15.8872L15.1812 13.3037L14.9233 12.8672L15.3638 12.6162L17.1138 11.6162L17.5464 11.3691L17.7944 11.7998L18.4868 13L19.1792 11.7998L19.4272 11.3691L19.8599 11.6162ZM19.4868 0.5C20.1705 0.5 20.7678 0.749688 21.2524 1.23438C21.7371 1.71906 21.9868 2.31634 21.9868 3V10.5H18.9868V5.90137L11.7515 10.4238L11.4868 10.5898L11.2222 10.4238L3.98682 5.90137V14.5H12.9868V17.5H3.48682C2.80315 17.5 2.20588 17.2503 1.72119 16.7656C1.2365 16.2809 0.986816 15.6837 0.986816 15V3C0.986816 2.31634 1.2365 1.71906 1.72119 1.23438C2.20588 0.749688 2.80315 0.5 3.48682 0.5H19.4868ZM11.4868 7.41016L17.7437 3.5H5.22998L11.4868 7.41016Z" fill="black" stroke="white"/>
</svg>
