<svg width="45" height="45" viewBox="0 0 45 45" fill="none" xmlns="http://www.w3.org/2000/svg">
<mask id="mask0_641_897" style="mask-type:alpha" maskUnits="userSpaceOnUse" x="0" y="0" width="45" height="45">
<rect width="44.4487" height="44.4487" fill="#D9D9D9"/>
</mask>
<g mask="url(#mask0_641_897)">
<path d="M32.8735 27.6878L30.188 25.0024C30.6202 24.2924 30.9443 23.5516 31.1603 22.78C31.3764 22.0083 31.4844 21.2057 31.4844 20.3723H35.1885C35.1885 21.7305 34.9879 23.0192 34.5866 24.2384C34.1853 25.4577 33.6143 26.6075 32.8735 27.6878ZM27.41 22.1317L24.0763 18.7981V9.26013C24.0763 8.73539 23.8988 8.29553 23.5439 7.94056C23.1889 7.58559 22.749 7.4081 22.2243 7.4081C21.6996 7.4081 21.2597 7.58559 20.9047 7.94056C20.5498 8.29553 20.3723 8.73539 20.3723 9.26013V15.094L16.6682 11.39V9.26013C16.6682 7.71677 17.2084 6.40492 18.2887 5.32457C19.3691 4.24422 20.6809 3.70404 22.2243 3.70404C23.7677 3.70404 25.0795 4.24422 26.1599 5.32457C27.2402 6.40492 27.7804 7.71677 27.7804 9.26013V20.3723C27.7804 20.7119 27.7418 21.0205 27.6646 21.2983C27.5875 21.5761 27.5026 21.8539 27.41 22.1317ZM20.3723 38.8926V33.1976C17.1621 32.7655 14.5075 31.3302 12.4085 28.8917C10.3096 26.4531 9.26008 23.6134 9.26008 20.3723H12.9641C12.9641 22.9343 13.8516 25.1181 15.6264 26.9239C17.4013 28.7296 19.6006 29.6325 22.2243 29.6325C23.2738 29.6325 24.2692 29.4704 25.2107 29.1463C26.1521 28.8222 27.0087 28.3669 27.7804 27.7804L30.4195 30.4196C29.5244 31.1295 28.5444 31.7314 27.4794 32.2253C26.4145 32.7192 25.2801 33.0433 24.0763 33.1976V38.8926H20.3723ZM36.6701 41.8559L2.59277 7.77851L5.18562 5.18567L39.263 39.263L36.6701 41.8559Z" fill="white"/>
</g>
</svg>
