<svg width="40" height="40" viewBox="0 0 40 40" fill="none" xmlns="http://www.w3.org/2000/svg">
<mask id="mask0_641_909" style="mask-type:alpha" maskUnits="userSpaceOnUse" x="0" y="0" width="40" height="40">
<rect width="39.262" height="39.262" fill="#D9D9D9"/>
</mask>
<g mask="url(#mask0_641_909)">
<path d="M9.81529 22.9028C8.91553 22.9028 8.14529 22.5825 7.50456 21.9417C6.86382 21.301 6.54346 20.5307 6.54346 19.631C6.54346 18.7312 6.86382 17.961 7.50456 17.3203C8.14529 16.6795 8.91553 16.3592 9.81529 16.3592C10.715 16.3592 11.4853 16.6795 12.126 17.3203C12.7668 17.961 13.0871 18.7312 13.0871 19.631C13.0871 20.5307 12.7668 21.301 12.126 21.9417C11.4853 22.5825 10.715 22.9028 9.81529 22.9028ZM19.6308 22.9028C18.731 22.9028 17.9608 22.5825 17.32 21.9417C16.6793 21.301 16.3589 20.5307 16.3589 19.631C16.3589 18.7312 16.6793 17.961 17.32 17.3203C17.9608 16.6795 18.731 16.3592 19.6308 16.3592C20.5305 16.3592 21.3008 16.6795 21.9415 17.3203C22.5822 17.961 22.9026 18.7312 22.9026 19.631C22.9026 20.5307 22.5822 21.301 21.9415 21.9417C21.3008 22.5825 20.5305 22.9028 19.6308 22.9028ZM29.4463 22.9028C28.5465 22.9028 27.7763 22.5825 27.1355 21.9417C26.4948 21.301 26.1744 20.5307 26.1744 19.631C26.1744 18.7312 26.4948 17.961 27.1355 17.3203C27.7763 16.6795 28.5465 16.3592 29.4463 16.3592C30.346 16.3592 31.1163 16.6795 31.757 17.3203C32.3977 17.961 32.7181 18.7312 32.7181 19.631C32.7181 20.5307 32.3977 21.301 31.757 21.9417C31.1163 22.5825 30.346 22.9028 29.4463 22.9028Z" fill="white"/>
</g>
</svg>
