<svg width="98" height="21" viewBox="0 0 98 21" fill="none" xmlns="http://www.w3.org/2000/svg">
<mask id="path-1-outside-1_686_1900" maskUnits="userSpaceOnUse" x="-0.380371" y="-0.219971" width="98" height="21" fill="black">
<rect fill="white" x="-0.380371" y="-0.219971" width="98" height="21"/>
<path d="M5.80854 11.1H8.46854V14.92H5.80854V11.1ZM5.78854 4.50003H7.90854V4.90003C7.90854 5.94003 7.7152 6.91336 7.32854 7.82003C6.9552 8.7267 6.38854 9.51336 5.62854 10.18C4.86854 10.8467 3.8952 11.34 2.70854 11.66L1.52854 9.60003C2.5152 9.3467 3.32187 8.98003 3.94854 8.50003C4.5752 8.0067 5.0352 7.45336 5.32854 6.84003C5.6352 6.21336 5.78854 5.5667 5.78854 4.90003V4.50003ZM6.34854 4.50003H8.48854V4.90003C8.48854 5.54003 8.6352 6.16003 8.92854 6.76003C9.2352 7.36003 9.70187 7.89336 10.3285 8.36003C10.9685 8.8267 11.7819 9.1867 12.7685 9.44003L11.5885 11.48C10.4152 11.1734 9.4352 10.7 8.64854 10.06C7.8752 9.4067 7.2952 8.64003 6.90854 7.76003C6.5352 6.8667 6.34854 5.91336 6.34854 4.90003V4.50003ZM2.06854 3.20003H12.2285V5.30003H2.06854V3.20003ZM5.80854 1.18003H8.46854V4.14003H5.80854V1.18003ZM13.8485 1.00003H16.5085V19.58H13.8485V1.00003ZM1.44854 16.14L1.14854 13.98C2.22854 13.98 3.42187 13.9734 4.72854 13.96C6.04854 13.9334 7.40187 13.88 8.78854 13.8C10.1885 13.7067 11.5419 13.5667 12.8485 13.38L13.0285 15.32C11.6952 15.5734 10.3419 15.76 8.96854 15.88C7.5952 16 6.26854 16.0734 4.98854 16.1C3.70854 16.1134 2.52854 16.1267 1.44854 16.14ZM32.187 1.04003H34.847V14.54H32.187V1.04003ZM22.507 17.1H35.327V19.24H22.507V17.1ZM22.507 13.24H25.167V18.2H22.507V13.24ZM23.807 2.06003H26.007V3.86003C26.007 5.06003 25.8136 6.2067 25.427 7.30003C25.0536 8.39336 24.4803 9.35336 23.707 10.18C22.9336 11.0067 21.947 11.6334 20.747 12.06L19.387 9.94003C20.427 9.58003 21.267 9.08003 21.907 8.44003C22.5603 7.80003 23.0403 7.08003 23.347 6.28003C23.6536 5.48003 23.807 4.67336 23.807 3.86003V2.06003ZM24.347 2.06003H26.507V3.86003C26.507 4.46003 26.587 5.05336 26.747 5.64003C26.9203 6.21336 27.1803 6.76003 27.527 7.28003C27.8736 7.7867 28.3203 8.2467 28.867 8.66003C29.4136 9.07336 30.0603 9.40003 30.807 9.64003L29.467 11.74C28.2936 11.3534 27.327 10.7667 26.567 9.98003C25.807 9.19336 25.247 8.27336 24.887 7.22003C24.527 6.1667 24.347 5.04669 24.347 3.86003V2.06003ZM39.9254 1.76003H51.6454V3.86003H39.9254V1.76003ZM37.8654 7.54003H54.6454V9.66003H37.8654V7.54003ZM50.0454 1.76003H52.6654V3.02003C52.6654 3.6867 52.6454 4.4467 52.6054 5.30003C52.5654 6.14003 52.4254 7.10003 52.1854 8.18003L49.5654 7.94003C49.8054 6.8867 49.9454 5.9667 49.9854 5.18003C50.0254 4.39336 50.0454 3.67336 50.0454 3.02003V1.76003ZM39.7254 10.92H52.6254V16.12H42.4054V18H39.7454V14.16H49.9654V12.96H39.7254V10.92ZM39.7454 17.36H53.1054V19.42H39.7454V17.36ZM60.8928 15.24H77.6728V17.4H60.8928V15.24ZM67.9328 11.16H70.5728V15.76H67.9328V11.16ZM62.6528 2.40003H75.8328V11.5H62.6528V2.40003ZM73.2128 4.50003H65.2728V9.38003H73.2128V4.50003ZM87.6512 1.38003C89.0245 1.38003 90.2112 1.5267 91.2112 1.82003C92.2112 2.10003 92.9845 2.51336 93.5312 3.06003C94.0912 3.59336 94.3712 4.23336 94.3712 4.98003C94.3712 5.72669 94.0912 6.37336 93.5312 6.92003C92.9845 7.45336 92.2112 7.8667 91.2112 8.16003C90.2112 8.45336 89.0245 8.60003 87.6512 8.60003C86.3045 8.60003 85.1245 8.45336 84.1112 8.16003C83.0979 7.8667 82.3179 7.45336 81.7712 6.92003C81.2245 6.37336 80.9512 5.72669 80.9512 4.98003C80.9512 4.23336 81.2245 3.59336 81.7712 3.06003C82.3179 2.51336 83.0979 2.10003 84.1112 1.82003C85.1245 1.5267 86.3045 1.38003 87.6512 1.38003ZM87.6512 3.42003C86.8245 3.42003 86.1112 3.48003 85.5112 3.60003C84.9112 3.7067 84.4579 3.87336 84.1512 4.10003C83.8579 4.3267 83.7112 4.62003 83.7112 4.98003C83.7112 5.3267 83.8579 5.62003 84.1512 5.86003C84.4579 6.0867 84.9112 6.26003 85.5112 6.38003C86.1112 6.4867 86.8245 6.54003 87.6512 6.54003C88.5045 6.54003 89.2245 6.4867 89.8112 6.38003C90.3979 6.26003 90.8445 6.0867 91.1512 5.86003C91.4579 5.62003 91.6112 5.3267 91.6112 4.98003C91.6112 4.62003 91.4579 4.3267 91.1512 4.10003C90.8445 3.87336 90.3979 3.7067 89.8112 3.60003C89.2245 3.48003 88.5045 3.42003 87.6512 3.42003ZM81.2312 13.04H94.0312V19.36H81.2312V13.04ZM91.4312 15.14H83.8312V17.26H91.4312V15.14ZM79.2712 9.66003H96.0312V11.74H79.2712V9.66003Z"/>
</mask>
<path d="M5.80854 11.1H8.46854V14.92H5.80854V11.1ZM5.78854 4.50003H7.90854V4.90003C7.90854 5.94003 7.7152 6.91336 7.32854 7.82003C6.9552 8.7267 6.38854 9.51336 5.62854 10.18C4.86854 10.8467 3.8952 11.34 2.70854 11.66L1.52854 9.60003C2.5152 9.3467 3.32187 8.98003 3.94854 8.50003C4.5752 8.0067 5.0352 7.45336 5.32854 6.84003C5.6352 6.21336 5.78854 5.5667 5.78854 4.90003V4.50003ZM6.34854 4.50003H8.48854V4.90003C8.48854 5.54003 8.6352 6.16003 8.92854 6.76003C9.2352 7.36003 9.70187 7.89336 10.3285 8.36003C10.9685 8.8267 11.7819 9.1867 12.7685 9.44003L11.5885 11.48C10.4152 11.1734 9.4352 10.7 8.64854 10.06C7.8752 9.4067 7.2952 8.64003 6.90854 7.76003C6.5352 6.8667 6.34854 5.91336 6.34854 4.90003V4.50003ZM2.06854 3.20003H12.2285V5.30003H2.06854V3.20003ZM5.80854 1.18003H8.46854V4.14003H5.80854V1.18003ZM13.8485 1.00003H16.5085V19.58H13.8485V1.00003ZM1.44854 16.14L1.14854 13.98C2.22854 13.98 3.42187 13.9734 4.72854 13.96C6.04854 13.9334 7.40187 13.88 8.78854 13.8C10.1885 13.7067 11.5419 13.5667 12.8485 13.38L13.0285 15.32C11.6952 15.5734 10.3419 15.76 8.96854 15.88C7.5952 16 6.26854 16.0734 4.98854 16.1C3.70854 16.1134 2.52854 16.1267 1.44854 16.14ZM32.187 1.04003H34.847V14.54H32.187V1.04003ZM22.507 17.1H35.327V19.24H22.507V17.1ZM22.507 13.24H25.167V18.2H22.507V13.24ZM23.807 2.06003H26.007V3.86003C26.007 5.06003 25.8136 6.2067 25.427 7.30003C25.0536 8.39336 24.4803 9.35336 23.707 10.18C22.9336 11.0067 21.947 11.6334 20.747 12.06L19.387 9.94003C20.427 9.58003 21.267 9.08003 21.907 8.44003C22.5603 7.80003 23.0403 7.08003 23.347 6.28003C23.6536 5.48003 23.807 4.67336 23.807 3.86003V2.06003ZM24.347 2.06003H26.507V3.86003C26.507 4.46003 26.587 5.05336 26.747 5.64003C26.9203 6.21336 27.1803 6.76003 27.527 7.28003C27.8736 7.7867 28.3203 8.2467 28.867 8.66003C29.4136 9.07336 30.0603 9.40003 30.807 9.64003L29.467 11.74C28.2936 11.3534 27.327 10.7667 26.567 9.98003C25.807 9.19336 25.247 8.27336 24.887 7.22003C24.527 6.1667 24.347 5.04669 24.347 3.86003V2.06003ZM39.9254 1.76003H51.6454V3.86003H39.9254V1.76003ZM37.8654 7.54003H54.6454V9.66003H37.8654V7.54003ZM50.0454 1.76003H52.6654V3.02003C52.6654 3.6867 52.6454 4.4467 52.6054 5.30003C52.5654 6.14003 52.4254 7.10003 52.1854 8.18003L49.5654 7.94003C49.8054 6.8867 49.9454 5.9667 49.9854 5.18003C50.0254 4.39336 50.0454 3.67336 50.0454 3.02003V1.76003ZM39.7254 10.92H52.6254V16.12H42.4054V18H39.7454V14.16H49.9654V12.96H39.7254V10.92ZM39.7454 17.36H53.1054V19.42H39.7454V17.36ZM60.8928 15.24H77.6728V17.4H60.8928V15.24ZM67.9328 11.16H70.5728V15.76H67.9328V11.16ZM62.6528 2.40003H75.8328V11.5H62.6528V2.40003ZM73.2128 4.50003H65.2728V9.38003H73.2128V4.50003ZM87.6512 1.38003C89.0245 1.38003 90.2112 1.5267 91.2112 1.82003C92.2112 2.10003 92.9845 2.51336 93.5312 3.06003C94.0912 3.59336 94.3712 4.23336 94.3712 4.98003C94.3712 5.72669 94.0912 6.37336 93.5312 6.92003C92.9845 7.45336 92.2112 7.8667 91.2112 8.16003C90.2112 8.45336 89.0245 8.60003 87.6512 8.60003C86.3045 8.60003 85.1245 8.45336 84.1112 8.16003C83.0979 7.8667 82.3179 7.45336 81.7712 6.92003C81.2245 6.37336 80.9512 5.72669 80.9512 4.98003C80.9512 4.23336 81.2245 3.59336 81.7712 3.06003C82.3179 2.51336 83.0979 2.10003 84.1112 1.82003C85.1245 1.5267 86.3045 1.38003 87.6512 1.38003ZM87.6512 3.42003C86.8245 3.42003 86.1112 3.48003 85.5112 3.60003C84.9112 3.7067 84.4579 3.87336 84.1512 4.10003C83.8579 4.3267 83.7112 4.62003 83.7112 4.98003C83.7112 5.3267 83.8579 5.62003 84.1512 5.86003C84.4579 6.0867 84.9112 6.26003 85.5112 6.38003C86.1112 6.4867 86.8245 6.54003 87.6512 6.54003C88.5045 6.54003 89.2245 6.4867 89.8112 6.38003C90.3979 6.26003 90.8445 6.0867 91.1512 5.86003C91.4579 5.62003 91.6112 5.3267 91.6112 4.98003C91.6112 4.62003 91.4579 4.3267 91.1512 4.10003C90.8445 3.87336 90.3979 3.7067 89.8112 3.60003C89.2245 3.48003 88.5045 3.42003 87.6512 3.42003ZM81.2312 13.04H94.0312V19.36H81.2312V13.04ZM91.4312 15.14H83.8312V17.26H91.4312V15.14ZM79.2712 9.66003H96.0312V11.74H79.2712V9.66003Z" fill="black"/>
<path d="M5.80854 11.1V10.1H4.80854V11.1H5.80854ZM8.46854 11.1H9.46854V10.1H8.46854V11.1ZM8.46854 14.92V15.92H9.46854V14.92H8.46854ZM5.80854 14.92H4.80854V15.92H5.80854V14.92ZM5.78854 4.50003V3.50003H4.78854V4.50003H5.78854ZM7.90854 4.50003H8.90854V3.50003H7.90854V4.50003ZM7.32854 7.82003L6.40862 7.42771L6.40386 7.43928L7.32854 7.82003ZM5.62854 10.18L4.9691 9.42827L5.62854 10.18ZM2.70854 11.66L1.84081 12.1571L2.22419 12.8264L2.9689 12.6255L2.70854 11.66ZM1.52854 9.60003L1.27984 8.63145L0.00828934 8.95793L0.660811 10.0971L1.52854 9.60003ZM3.94853 8.50003L4.55667 9.29398L4.56709 9.28577L3.94853 8.50003ZM5.32854 6.84003L4.43028 6.40046L4.4264 6.40857L5.32854 6.84003ZM6.34854 4.50003V3.50003H5.34854V4.50003H6.34854ZM8.48854 4.50003H9.48854V3.50003H8.48854V4.50003ZM8.92854 6.76003L8.03015 7.19924L8.03406 7.20722L8.0381 7.21514L8.92854 6.76003ZM10.3285 8.36003L9.73124 9.16211L9.73936 9.16804L10.3285 8.36003ZM12.7685 9.44003L13.6342 9.94073L14.2944 8.79936L13.0172 8.47145L12.7685 9.44003ZM11.5885 11.48L11.3357 12.4475L12.0727 12.6402L12.4542 11.9807L11.5885 11.48ZM8.64854 10.06L8.00318 10.8239L8.01026 10.8299L8.01745 10.8357L8.64854 10.06ZM6.90854 7.76003L5.98587 8.14562L5.98937 8.15399L5.99302 8.1623L6.90854 7.76003ZM2.06854 3.20003V2.20003H1.06854V3.20003H2.06854ZM12.2285 3.20003H13.2285V2.20003H12.2285V3.20003ZM12.2285 5.30003V6.30003H13.2285V5.30003H12.2285ZM2.06854 5.30003H1.06854V6.30003H2.06854V5.30003ZM5.80854 1.18003V0.180028H4.80854V1.18003H5.80854ZM8.46854 1.18003H9.46854V0.180028H8.46854V1.18003ZM8.46854 4.14003V5.14003H9.46854V4.14003H8.46854ZM5.80854 4.14003H4.80854V5.14003H5.80854V4.14003ZM13.8485 1.00003V2.83718e-05H12.8485V1.00003H13.8485ZM16.5085 1.00003H17.5085V2.83718e-05H16.5085V1.00003ZM16.5085 19.58V20.58H17.5085V19.58H16.5085ZM13.8485 19.58H12.8485V20.58H13.8485V19.58ZM1.44853 16.14L0.458043 16.2776L0.579326 17.1508L1.46088 17.14L1.44853 16.14ZM1.14854 13.98V12.98H4.72069e-05L0.158043 14.1176L1.14854 13.98ZM4.72854 13.96L4.73874 14.96L4.74873 14.9598L4.72854 13.96ZM8.78854 13.8L8.84613 14.7984L8.85505 14.7978L8.78854 13.8ZM12.8485 13.38L13.8443 13.2876L13.7472 12.2415L12.7071 12.3901L12.8485 13.38ZM13.0285 15.32L13.2152 16.3025L14.1082 16.1328L14.0243 15.2276L13.0285 15.32ZM8.96854 15.88L8.88149 14.8838L8.96854 15.88ZM4.98854 16.1L4.99895 17.1L5.00936 17.0998L4.98854 16.1ZM5.80854 11.1V12.1H8.46854V11.1V10.1H5.80854V11.1ZM8.46854 11.1H7.46854V14.92H8.46854H9.46854V11.1H8.46854ZM8.46854 14.92V13.92H5.80854V14.92V15.92H8.46854V14.92ZM5.80854 14.92H6.80854V11.1H5.80854H4.80854V14.92H5.80854ZM5.78854 4.50003V5.50003H7.90854V4.50003V3.50003H5.78854V4.50003ZM7.90854 4.50003H6.90854V4.90003H7.90854H8.90854V4.50003H7.90854ZM7.90854 4.90003H6.90854C6.90854 5.81276 6.73958 6.65186 6.40869 7.42774L7.32854 7.82003L8.24838 8.21231C8.69082 7.17486 8.90854 6.0673 8.90854 4.90003H7.90854ZM7.32854 7.82003L6.40386 7.43928C6.09103 8.199 5.617 8.85993 4.9691 9.42827L5.62854 10.18L6.28797 10.9318C7.16007 10.1668 7.81937 9.25439 8.25321 8.20078L7.32854 7.82003ZM5.62854 10.18L4.9691 9.42827C4.34618 9.97469 3.51857 10.4059 2.44817 10.6945L2.70854 11.66L2.9689 12.6255C4.27183 12.2742 5.39089 11.7187 6.28797 10.9318L5.62854 10.18ZM2.70854 11.66L3.57626 11.163L2.39626 9.10298L1.52854 9.60003L0.660811 10.0971L1.84081 12.1571L2.70854 11.66ZM1.52854 9.60003L1.77723 10.5686C2.85799 10.2911 3.79697 9.87576 4.55661 9.29391L3.94853 8.50003L3.34046 7.70615C2.84677 8.0843 2.17242 8.40227 1.27984 8.63145L1.52854 9.60003ZM3.94853 8.50003L4.56709 9.28577C5.29343 8.71397 5.86069 8.04508 6.23067 7.27148L5.32854 6.84003L4.4264 6.40857C4.20972 6.86164 3.85697 7.29942 3.32998 7.71429L3.94853 8.50003ZM5.32854 6.84003L6.22675 7.27958C6.59719 6.52261 6.78854 5.72617 6.78854 4.90003H5.78854H4.78854C4.78854 5.40722 4.67322 5.90412 4.43032 6.40048L5.32854 6.84003ZM5.78854 4.90003H6.78854V4.50003H5.78854H4.78854V4.90003H5.78854ZM6.34854 4.50003V5.50003H8.48854V4.50003V3.50003H6.34854V4.50003ZM8.48854 4.50003H7.48854V4.90003H8.48854H9.48854V4.50003H8.48854ZM8.48854 4.90003H7.48854C7.48854 5.69893 7.67295 6.4686 8.03015 7.19924L8.92854 6.76003L9.82692 6.32082C9.59745 5.85145 9.48854 5.38113 9.48854 4.90003H8.48854ZM8.92854 6.76003L8.0381 7.21514C8.42492 7.97197 9.00118 8.61839 9.73127 9.16207L10.3285 8.36003L10.9258 7.55799C10.4026 7.16834 10.0455 6.74809 9.81897 6.30492L8.92854 6.76003ZM10.3285 8.36003L9.73936 9.16804C10.5063 9.72728 11.444 10.1324 12.5198 10.4086L12.7685 9.44003L13.0172 8.47145C12.1197 8.241 11.4307 7.92611 10.9177 7.55202L10.3285 8.36003ZM12.7685 9.44003L11.9029 8.93933L10.7229 10.9793L11.5885 11.48L12.4542 11.9807L13.6342 9.94073L12.7685 9.44003ZM11.5885 11.48L11.8414 10.5125C10.7797 10.235 9.93581 9.81817 9.27962 9.28432L8.64854 10.06L8.01745 10.8357C8.93459 11.5819 10.0507 12.1117 11.3357 12.4475L11.5885 11.48ZM8.64854 10.06L9.29389 9.29614C8.63063 8.73581 8.14614 8.09077 7.82405 7.35775L6.90854 7.76003L5.99302 8.1623C6.44427 9.18928 7.11977 10.0776 8.00318 10.8239L8.64854 10.06ZM6.90854 7.76003L7.8312 7.37444C7.51128 6.60891 7.34854 5.78726 7.34854 4.90003H6.34854H5.34854C5.34854 6.03946 5.55912 7.12448 5.98587 8.14562L6.90854 7.76003ZM6.34854 4.90003H7.34854V4.50003H6.34854H5.34854V4.90003H6.34854ZM2.06854 3.20003V4.20003H12.2285V3.20003V2.20003H2.06854V3.20003ZM12.2285 3.20003H11.2285V5.30003H12.2285H13.2285V3.20003H12.2285ZM12.2285 5.30003V4.30003H2.06854V5.30003V6.30003H12.2285V5.30003ZM2.06854 5.30003H3.06854V3.20003H2.06854H1.06854V5.30003H2.06854ZM5.80854 1.18003V2.18003H8.46854V1.18003V0.180028H5.80854V1.18003ZM8.46854 1.18003H7.46854V4.14003H8.46854H9.46854V1.18003H8.46854ZM8.46854 4.14003V3.14003H5.80854V4.14003V5.14003H8.46854V4.14003ZM5.80854 4.14003H6.80854V1.18003H5.80854H4.80854V4.14003H5.80854ZM13.8485 1.00003V2.00003H16.5085V1.00003V2.83718e-05H13.8485V1.00003ZM16.5085 1.00003H15.5085V19.58H16.5085H17.5085V1.00003H16.5085ZM16.5085 19.58V18.58H13.8485V19.58V20.58H16.5085V19.58ZM13.8485 19.58H14.8485V1.00003H13.8485H12.8485V19.58H13.8485ZM1.44853 16.14L2.43903 16.0025L2.13903 13.8425L1.14854 13.98L0.158043 14.1176L0.458043 16.2776L1.44853 16.14ZM1.14854 13.98V14.98C2.23255 14.98 3.42935 14.9733 4.73874 14.96L4.72854 13.96L4.71833 12.9601C3.41439 12.9734 2.22452 12.98 1.14854 12.98V13.98ZM4.72854 13.96L4.74873 14.9598C6.08183 14.9329 7.44765 14.8791 8.84613 14.7984L8.78854 13.8L8.73094 12.8017C7.35609 12.881 6.01524 12.9338 4.70834 12.9602L4.72854 13.96ZM8.78854 13.8L8.85505 14.7978C10.2786 14.7029 11.6569 14.5604 12.99 14.37L12.8485 13.38L12.7071 12.3901C11.4268 12.573 10.0985 12.7105 8.72202 12.8022L8.78854 13.8ZM12.8485 13.38L11.8528 13.4724L12.0328 15.4124L13.0285 15.32L14.0243 15.2276L13.8443 13.2876L12.8485 13.38ZM13.0285 15.32L12.8419 14.3376C11.542 14.5846 10.2219 14.7667 8.88149 14.8838L8.96854 15.88L9.05558 16.8762C10.4618 16.7534 11.8484 16.5621 13.2152 16.3025L13.0285 15.32ZM8.96854 15.88L8.88149 14.8838C7.52852 15.002 6.224 15.0741 4.96771 15.1002L4.98854 16.1L5.00936 17.0998C6.31308 17.0727 7.66188 16.998 9.05558 16.8762L8.96854 15.88ZM4.98854 16.1L4.97812 15.1001C3.69759 15.1134 2.51694 15.1268 1.43619 15.1401L1.44853 16.14L1.46088 17.14C2.54013 17.1266 3.71948 17.1133 4.99895 17.1L4.98854 16.1ZM32.187 1.04003V0.040029H31.187V1.04003H32.187ZM34.847 1.04003H35.847V0.040029H34.847V1.04003ZM34.847 14.54V15.54H35.847V14.54H34.847ZM32.187 14.54H31.187V15.54H32.187V14.54ZM22.507 17.1V16.1H21.507V17.1H22.507ZM35.327 17.1H36.327V16.1H35.327V17.1ZM35.327 19.24V20.24H36.327V19.24H35.327ZM22.507 19.24H21.507V20.24H22.507V19.24ZM22.507 13.24V12.24H21.507V13.24H22.507ZM25.167 13.24H26.167V12.24H25.167V13.24ZM25.167 18.2V19.2H26.167V18.2H25.167ZM22.507 18.2H21.507V19.2H22.507V18.2ZM23.807 2.06003V1.06003H22.807V2.06003H23.807ZM26.007 2.06003H27.007V1.06003H26.007V2.06003ZM25.427 7.30003L24.4841 6.96659L24.4806 6.97688L25.427 7.30003ZM23.707 10.18L24.4372 10.8632L23.707 10.18ZM20.747 12.06L19.9053 12.6L20.334 13.2682L21.082 13.0022L20.747 12.06ZM19.387 9.94003L19.0599 8.99504L17.8593 9.41063L18.5453 10.48L19.387 9.94003ZM21.907 8.44003L21.2072 7.72563L21.1999 7.73292L21.907 8.44003ZM23.347 6.28003L22.4132 5.92209L23.347 6.28003ZM24.347 2.06003V1.06003H23.347V2.06003H24.347ZM26.507 2.06003H27.507V1.06003H26.507V2.06003ZM26.747 5.64003L25.7822 5.90315L25.7858 5.91633L25.7898 5.92942L26.747 5.64003ZM27.527 7.28003L26.6949 7.83477L26.7017 7.84471L27.527 7.28003ZM28.867 8.66003L29.4701 7.86237L28.867 8.66003ZM30.807 9.64003L31.65 10.1779L32.3475 9.08481L31.113 8.688L30.807 9.64003ZM29.467 11.74L29.154 12.6898L29.892 12.933L30.31 12.2779L29.467 11.74ZM26.567 9.98003L27.2862 9.28522L26.567 9.98003ZM24.887 7.22003L23.9407 7.54343V7.54344L24.887 7.22003ZM32.187 1.04003V2.04003H34.847V1.04003V0.040029H32.187V1.04003ZM34.847 1.04003H33.847V14.54H34.847H35.847V1.04003H34.847ZM34.847 14.54V13.54H32.187V14.54V15.54H34.847V14.54ZM32.187 14.54H33.187V1.04003H32.187H31.187V14.54H32.187ZM22.507 17.1V18.1H35.327V17.1V16.1H22.507V17.1ZM35.327 17.1H34.327V19.24H35.327H36.327V17.1H35.327ZM35.327 19.24V18.24H22.507V19.24V20.24H35.327V19.24ZM22.507 19.24H23.507V17.1H22.507H21.507V19.24H22.507ZM22.507 13.24V14.24H25.167V13.24V12.24H22.507V13.24ZM25.167 13.24H24.167V18.2H25.167H26.167V13.24H25.167ZM25.167 18.2V17.2H22.507V18.2V19.2H25.167V18.2ZM22.507 18.2H23.507V13.24H22.507H21.507V18.2H22.507ZM23.807 2.06003V3.06003H26.007V2.06003V1.06003H23.807V2.06003ZM26.007 2.06003H25.007V3.86003H26.007H27.007V2.06003H26.007ZM26.007 3.86003H25.007C25.007 4.95044 24.8317 5.98407 24.4842 6.96661L25.427 7.30003L26.3698 7.63345C26.7956 6.42933 27.007 5.16961 27.007 3.86003H26.007ZM25.427 7.30003L24.4806 6.97688C24.1521 7.93911 23.6513 8.77573 22.9767 9.49687L23.707 10.18L24.4372 10.8632C25.3093 9.93099 25.9552 8.84761 26.3733 7.62317L25.427 7.30003ZM23.707 10.18L22.9767 9.49687C22.3256 10.1929 21.4805 10.7379 20.412 11.1178L20.747 12.06L21.082 13.0022C22.4135 12.5288 23.5417 11.8205 24.4372 10.8632L23.707 10.18ZM20.747 12.06L21.5887 11.5201L20.2287 9.40007L19.387 9.94003L18.5453 10.48L19.9053 12.6L20.747 12.06ZM19.387 9.94003L19.7141 10.885C20.8667 10.486 21.8464 9.91479 22.6141 9.14714L21.907 8.44003L21.1999 7.73292C20.6875 8.24527 19.9872 8.67404 19.0599 8.99504L19.387 9.94003ZM21.907 8.44003L22.6068 9.15439C23.3557 8.42069 23.9192 7.58113 24.2807 6.63796L23.347 6.28003L22.4132 5.92209C22.1614 6.57892 21.7649 7.17937 21.2072 7.72567L21.907 8.44003ZM23.347 6.28003L24.2807 6.63796C24.6288 5.72988 24.807 4.80216 24.807 3.86003H23.807H22.807C22.807 4.54456 22.6785 5.23017 22.4132 5.92209L23.347 6.28003ZM23.807 3.86003H24.807V2.06003H23.807H22.807V3.86003H23.807ZM24.347 2.06003V3.06003H26.507V2.06003V1.06003H24.347V2.06003ZM26.507 2.06003H25.507V3.86003H26.507H27.507V2.06003H26.507ZM26.507 3.86003H25.507C25.507 4.55011 25.5991 5.2319 25.7822 5.90315L26.747 5.64003L27.7117 5.37691C27.5748 4.87483 27.507 4.36994 27.507 3.86003H26.507ZM26.747 5.64003L25.7898 5.92942C25.9928 6.60088 26.2961 7.2365 26.6949 7.83473L27.527 7.28003L28.359 6.72533C28.0645 6.28356 27.8479 5.82584 27.7042 5.35064L26.747 5.64003ZM27.527 7.28003L26.7017 7.84471C27.116 8.45025 27.641 8.98671 28.2639 9.45769L28.867 8.66003L29.4701 7.86237C28.9996 7.50668 28.6313 7.12314 28.3523 6.71534L27.527 7.28003ZM28.867 8.66003L28.2639 9.45769C28.9121 9.94782 29.6625 10.3226 30.501 10.5921L30.807 9.64003L31.113 8.688C30.4581 8.4775 29.9152 8.1989 29.4701 7.86237L28.867 8.66003ZM30.807 9.64003L29.964 9.10211L28.624 11.2021L29.467 11.74L30.31 12.2779L31.65 10.1779L30.807 9.64003ZM29.467 11.74L29.78 10.7903C28.7405 10.4477 27.9196 9.94083 27.2862 9.28522L26.567 9.98003L25.8478 10.6748C26.7344 11.5926 27.8468 12.259 29.154 12.6898L29.467 11.74ZM26.567 9.98003L27.2862 9.28522C26.6301 8.60609 26.1466 7.81352 25.8332 6.89662L24.887 7.22003L23.9407 7.54344C24.3473 8.73321 24.9839 9.78064 25.8478 10.6748L26.567 9.98003ZM24.887 7.22003L25.8332 6.89662C25.5111 5.95409 25.347 4.94396 25.347 3.86003H24.347H23.347C23.347 5.14943 23.5428 6.3793 23.9407 7.54343L24.887 7.22003ZM24.347 3.86003H25.347V2.06003H24.347H23.347V3.86003H24.347ZM39.9254 1.76003V0.760028H38.9254V1.76003H39.9254ZM51.6454 1.76003H52.6454V0.760028H51.6454V1.76003ZM51.6454 3.86003V4.86003H52.6454V3.86003H51.6454ZM39.9254 3.86003H38.9254V4.86003H39.9254V3.86003ZM37.8654 7.54003V6.54003H36.8654V7.54003H37.8654ZM54.6454 7.54003H55.6454V6.54003H54.6454V7.54003ZM54.6454 9.66003V10.66H55.6454V9.66003H54.6454ZM37.8654 9.66003H36.8654V10.66H37.8654V9.66003ZM50.0454 1.76003V0.760028H49.0454V1.76003H50.0454ZM52.6654 1.76003H53.6654V0.760028H52.6654V1.76003ZM52.6054 5.30003L53.6043 5.34759L53.6043 5.34685L52.6054 5.30003ZM52.1854 8.18003L52.0942 9.17586L52.9707 9.25615L53.1616 8.39696L52.1854 8.18003ZM49.5654 7.94003L48.5904 7.71787L48.3366 8.83166L49.4742 8.93586L49.5654 7.94003ZM49.9854 5.18003L48.9867 5.12925V5.12925L49.9854 5.18003ZM39.7254 10.92V9.92003H38.7254V10.92H39.7254ZM52.6254 10.92H53.6254V9.92003H52.6254V10.92ZM52.6254 16.12V17.12H53.6254V16.12H52.6254ZM42.4054 16.12V15.12H41.4054V16.12H42.4054ZM42.4054 18V19H43.4054V18H42.4054ZM39.7454 18H38.7454V19H39.7454V18ZM39.7454 14.16V13.16H38.7454V14.16H39.7454ZM49.9654 14.16V15.16H50.9654V14.16H49.9654ZM49.9654 12.96H50.9654V11.96H49.9654V12.96ZM39.7254 12.96H38.7254V13.96H39.7254V12.96ZM39.7454 17.36V16.36H38.7454V17.36H39.7454ZM53.1054 17.36H54.1054V16.36H53.1054V17.36ZM53.1054 19.42V20.42H54.1054V19.42H53.1054ZM39.7454 19.42H38.7454V20.42H39.7454V19.42ZM39.9254 1.76003V2.76003H51.6454V1.76003V0.760028H39.9254V1.76003ZM51.6454 1.76003H50.6454V3.86003H51.6454H52.6454V1.76003H51.6454ZM51.6454 3.86003V2.86003H39.9254V3.86003V4.86003H51.6454V3.86003ZM39.9254 3.86003H40.9254V1.76003H39.9254H38.9254V3.86003H39.9254ZM37.8654 7.54003V8.54003H54.6454V7.54003V6.54003H37.8654V7.54003ZM54.6454 7.54003H53.6454V9.66003H54.6454H55.6454V7.54003H54.6454ZM54.6454 9.66003V8.66003H37.8654V9.66003V10.66H54.6454V9.66003ZM37.8654 9.66003H38.8654V7.54003H37.8654H36.8654V9.66003H37.8654ZM50.0454 1.76003V2.76003H52.6654V1.76003V0.760028H50.0454V1.76003ZM52.6654 1.76003H51.6654V3.02003H52.6654H53.6654V1.76003H52.6654ZM52.6654 3.02003H51.6654C51.6654 3.66747 51.646 4.41138 51.6065 5.25321L52.6054 5.30003L53.6043 5.34685C53.6449 4.48201 53.6654 3.70593 53.6654 3.02003H52.6654ZM52.6054 5.30003L51.6065 5.25246C51.57 6.02091 51.4405 6.9225 51.2092 7.9631L52.1854 8.18003L53.1616 8.39696C53.4104 7.27756 53.5609 6.25915 53.6043 5.34759L52.6054 5.30003ZM52.1854 8.18003L52.2766 7.1842L49.6566 6.9442L49.5654 7.94003L49.4742 8.93586L52.0942 9.17586L52.1854 8.18003ZM49.5654 7.94003L50.5404 8.16218C50.7889 7.07166 50.9403 6.09193 50.9841 5.23081L49.9854 5.18003L48.9867 5.12925C48.9505 5.84146 48.8219 6.70174 48.5904 7.71787L49.5654 7.94003ZM49.9854 5.18003L50.9841 5.23081C51.0248 4.43053 51.0454 3.69331 51.0454 3.02003H50.0454H49.0454C49.0454 3.65341 49.026 4.35619 48.9867 5.12925L49.9854 5.18003ZM50.0454 3.02003H51.0454V1.76003H50.0454H49.0454V3.02003H50.0454ZM39.7254 10.92V11.92H52.6254V10.92V9.92003H39.7254V10.92ZM52.6254 10.92H51.6254V16.12H52.6254H53.6254V10.92H52.6254ZM52.6254 16.12V15.12H42.4054V16.12V17.12H52.6254V16.12ZM42.4054 16.12H41.4054V18H42.4054H43.4054V16.12H42.4054ZM42.4054 18V17H39.7454V18V19H42.4054V18ZM39.7454 18H40.7454V14.16H39.7454H38.7454V18H39.7454ZM39.7454 14.16V15.16H49.9654V14.16V13.16H39.7454V14.16ZM49.9654 14.16H50.9654V12.96H49.9654H48.9654V14.16H49.9654ZM49.9654 12.96V11.96H39.7254V12.96V13.96H49.9654V12.96ZM39.7254 12.96H40.7254V10.92H39.7254H38.7254V12.96H39.7254ZM39.7454 17.36V18.36H53.1054V17.36V16.36H39.7454V17.36ZM53.1054 17.36H52.1054V19.42H53.1054H54.1054V17.36H53.1054ZM53.1054 19.42V18.42H39.7454V19.42V20.42H53.1054V19.42ZM39.7454 19.42H40.7454V17.36H39.7454H38.7454V19.42H39.7454ZM60.8928 15.24V14.24H59.8928V15.24H60.8928ZM77.6728 15.24H78.6728V14.24H77.6728V15.24ZM77.6728 17.4V18.4H78.6728V17.4H77.6728ZM60.8928 17.4H59.8928V18.4H60.8928V17.4ZM67.9328 11.16V10.16H66.9328V11.16H67.9328ZM70.5728 11.16H71.5728V10.16H70.5728V11.16ZM70.5728 15.76V16.76H71.5728V15.76H70.5728ZM67.9328 15.76H66.9328V16.76H67.9328V15.76ZM62.6528 2.40003V1.40003H61.6528V2.40003H62.6528ZM75.8328 2.40003H76.8328V1.40003H75.8328V2.40003ZM75.8328 11.5V12.5H76.8328V11.5H75.8328ZM62.6528 11.5H61.6528V12.5H62.6528V11.5ZM73.2128 4.50003H74.2128V3.50003H73.2128V4.50003ZM65.2728 4.50003V3.50003H64.2728V4.50003H65.2728ZM65.2728 9.38003H64.2728V10.38H65.2728V9.38003ZM73.2128 9.38003V10.38H74.2128V9.38003H73.2128ZM60.8928 15.24V16.24H77.6728V15.24V14.24H60.8928V15.24ZM77.6728 15.24H76.6728V17.4H77.6728H78.6728V15.24H77.6728ZM77.6728 17.4V16.4H60.8928V17.4V18.4H77.6728V17.4ZM60.8928 17.4H61.8928V15.24H60.8928H59.8928V17.4H60.8928ZM67.9328 11.16V12.16H70.5728V11.16V10.16H67.9328V11.16ZM70.5728 11.16H69.5728V15.76H70.5728H71.5728V11.16H70.5728ZM70.5728 15.76V14.76H67.9328V15.76V16.76H70.5728V15.76ZM67.9328 15.76H68.9328V11.16H67.9328H66.9328V15.76H67.9328ZM62.6528 2.40003V3.40003H75.8328V2.40003V1.40003H62.6528V2.40003ZM75.8328 2.40003H74.8328V11.5H75.8328H76.8328V2.40003H75.8328ZM75.8328 11.5V10.5H62.6528V11.5V12.5H75.8328V11.5ZM62.6528 11.5H63.6528V2.40003H62.6528H61.6528V11.5H62.6528ZM73.2128 4.50003V3.50003H65.2728V4.50003V5.50003H73.2128V4.50003ZM65.2728 4.50003H64.2728V9.38003H65.2728H66.2728V4.50003H65.2728ZM65.2728 9.38003V10.38H73.2128V9.38003V8.38003H65.2728V9.38003ZM73.2128 9.38003H74.2128V4.50003H73.2128H72.2128V9.38003H73.2128ZM91.2112 1.82003L90.9297 2.77967L90.9416 2.78299L91.2112 1.82003ZM93.5312 3.06003L92.8241 3.76714L92.8327 3.77576L92.8415 3.78417L93.5312 3.06003ZM93.5312 6.92003L94.2295 7.63581L94.2297 7.6356L93.5312 6.92003ZM91.2112 8.16003L90.9297 7.20046L91.2112 8.16003ZM84.1112 8.16003L84.3893 7.19946V7.19946L84.1112 8.16003ZM81.7712 6.92003L81.064 7.62719L81.0729 7.63581L81.7712 6.92003ZM81.7712 3.06003L82.4696 3.77586L82.4783 3.76714L81.7712 3.06003ZM84.1112 1.82003L84.3775 2.78398L84.3893 2.78059L84.1112 1.82003ZM85.5112 3.60003L85.6862 4.58459L85.6968 4.58271L85.7073 4.58061L85.5112 3.60003ZM84.1512 4.10003L83.5568 3.29585L83.5482 3.30221L83.5397 3.30874L84.1512 4.10003ZM84.1512 5.86003L83.518 6.63399L83.537 6.64957L83.5568 6.66421L84.1512 5.86003ZM85.5112 6.38003L85.3151 7.36061L85.3256 7.36271L85.3362 7.36459L85.5112 6.38003ZM89.8112 6.38003L89.9901 7.3639L90.0009 7.36194L90.0116 7.35974L89.8112 6.38003ZM91.1512 5.86003L91.7456 6.66421L91.7567 6.65602L91.7675 6.64753L91.1512 5.86003ZM91.1512 4.10003L90.5568 4.9042V4.90421L91.1512 4.10003ZM89.8112 3.60003L89.6108 4.57974L89.6215 4.58194L89.6323 4.5839L89.8112 3.60003ZM81.2312 13.04V12.04H80.2312V13.04H81.2312ZM94.0312 13.04H95.0312V12.04H94.0312V13.04ZM94.0312 19.36V20.36H95.0312V19.36H94.0312ZM81.2312 19.36H80.2312V20.36H81.2312V19.36ZM91.4312 15.14H92.4312V14.14H91.4312V15.14ZM83.8312 15.14V14.14H82.8312V15.14H83.8312ZM83.8312 17.26H82.8312V18.26H83.8312V17.26ZM91.4312 17.26V18.26H92.4312V17.26H91.4312ZM79.2712 9.66003V8.66003H78.2712V9.66003H79.2712ZM96.0312 9.66003H97.0312V8.66003H96.0312V9.66003ZM96.0312 11.74V12.74H97.0312V11.74H96.0312ZM79.2712 11.74H78.2712V12.74H79.2712V11.74ZM87.6512 1.38003V2.38003C88.9576 2.38003 90.0448 2.52003 90.9297 2.7796L91.2112 1.82003L91.4927 0.86046C90.3775 0.533355 89.0915 0.380028 87.6512 0.380028V1.38003ZM91.2112 1.82003L90.9416 2.78299C91.8308 3.03198 92.4335 3.37654 92.8241 3.76714L93.5312 3.06003L94.2383 2.35292C93.5356 1.65019 92.5916 1.16808 91.4808 0.857065L91.2112 1.82003ZM93.5312 3.06003L92.8415 3.78417C93.2113 4.13634 93.3712 4.51785 93.3712 4.98003H94.3712H95.3712C95.3712 3.94887 94.9711 3.05038 94.2208 2.33589L93.5312 3.06003ZM94.3712 4.98003H93.3712C93.3712 5.44315 93.2103 5.83585 92.8327 6.20445L93.5312 6.92003L94.2297 7.6356C94.9721 6.91087 95.3712 6.01024 95.3712 4.98003H94.3712ZM93.5312 6.92003L92.8329 6.20425C92.4379 6.58954 91.8274 6.93715 90.9297 7.20046L91.2112 8.16003L91.4927 9.1196C92.595 8.79624 93.5311 8.31718 94.2295 7.63581L93.5312 6.92003ZM91.2112 8.16003L90.9297 7.20046C90.0448 7.46002 88.9576 7.60003 87.6512 7.60003V8.60003V9.60003C89.0915 9.60003 90.3775 9.4467 91.4927 9.1196L91.2112 8.16003ZM87.6512 8.60003V7.60003C86.374 7.60003 85.2913 7.46058 84.3893 7.19946L84.1112 8.16003L83.8331 9.12059C84.9578 9.44614 86.2351 9.60003 87.6512 9.60003V8.60003ZM84.1112 8.16003L84.3893 7.19946C83.4768 6.93534 82.8621 6.58722 82.4695 6.20425L81.7712 6.92003L81.0729 7.63581C81.7737 8.3195 82.7189 8.79805 83.8331 9.12059L84.1112 8.16003ZM81.7712 6.92003L82.4783 6.21292C82.1117 5.84637 81.9512 5.45117 81.9512 4.98003H80.9512H79.9512C79.9512 6.00222 80.3373 6.90035 81.0641 7.62714L81.7712 6.92003ZM80.9512 4.98003H81.9512C81.9512 4.50971 82.1108 4.12579 82.4695 3.77581L81.7712 3.06003L81.0729 2.34425C80.3383 3.06094 79.9512 3.95701 79.9512 4.98003H80.9512ZM81.7712 3.06003L82.4783 3.76714C82.8665 3.37893 83.4734 3.03375 84.3775 2.78391L84.1112 1.82003L83.8449 0.856148C82.7224 1.16631 81.7692 1.6478 81.0641 2.35292L81.7712 3.06003ZM84.1112 1.82003L84.3893 2.78059C85.2913 2.51948 86.374 2.38003 87.6512 2.38003V1.38003V0.380028C86.2351 0.380028 84.9578 0.533913 83.8331 0.859464L84.1112 1.82003ZM87.6512 3.42003V2.42003C86.78 2.42003 85.9976 2.48294 85.3151 2.61945L85.5112 3.60003L85.7073 4.58061C86.2248 4.47712 86.8691 4.42003 87.6512 4.42003V3.42003ZM85.5112 3.60003L85.3362 2.61547C84.6654 2.73472 84.04 2.93871 83.5568 3.29585L84.1512 4.10003L84.7456 4.9042C84.8757 4.80802 85.157 4.67867 85.6862 4.58459L85.5112 3.60003ZM84.1512 4.10003L83.5397 3.30874C83.0099 3.71819 82.7112 4.29972 82.7112 4.98003H83.7112H84.7112C84.7112 4.95822 84.7134 4.94617 84.7144 4.94157C84.715 4.93913 84.7154 4.93789 84.7155 4.93756C84.7156 4.93736 84.7156 4.93728 84.7156 4.93727C84.7156 4.93727 84.7156 4.93727 84.7156 4.93724C84.7156 4.93722 84.7157 4.93709 84.7158 4.93685C84.716 4.9366 84.7162 4.93617 84.7167 4.93553C84.7175 4.93432 84.7191 4.93196 84.7221 4.92847C84.7279 4.92161 84.7401 4.90875 84.7626 4.89131L84.1512 4.10003ZM83.7112 4.98003H82.7112C82.7112 5.65708 83.0171 6.22422 83.518 6.63399L84.1512 5.86003L84.7844 5.08607C84.73 5.04154 84.7168 5.01522 84.7156 5.01282C84.7146 5.01071 84.714 5.00919 84.7134 5.00665C84.7128 5.0039 84.7112 4.99571 84.7112 4.98003H83.7112ZM84.1512 5.86003L83.5568 6.66421C84.0319 7.01536 84.6483 7.22725 85.3151 7.36061L85.5112 6.38003L85.7073 5.39945C85.1741 5.2928 84.8838 5.15803 84.7456 5.05585L84.1512 5.86003ZM85.5112 6.38003L85.3362 7.36459C86.0102 7.48442 86.785 7.54003 87.6512 7.54003V6.54003V5.54003C86.864 5.54003 86.2122 5.48897 85.6862 5.39547L85.5112 6.38003ZM87.6512 6.54003V7.54003C88.5412 7.54003 89.3252 7.48479 89.9901 7.3639L89.8112 6.38003L89.6323 5.39616C89.1239 5.4886 88.4678 5.54003 87.6512 5.54003V6.54003ZM89.8112 6.38003L90.0116 7.35974C90.6681 7.22547 91.2741 7.01267 91.7456 6.66421L91.1512 5.86003L90.5568 5.05585C90.4149 5.16072 90.1277 5.29459 89.6108 5.40031L89.8112 6.38003ZM91.1512 5.86003L91.7675 6.64753C92.2824 6.2446 92.6112 5.67496 92.6112 4.98003H91.6112H90.6112C90.6112 4.98645 90.6108 4.99077 90.6105 4.99328C90.6103 4.99577 90.61 4.99692 90.61 4.99704C90.6099 4.99714 90.61 4.99685 90.6102 4.99641C90.6103 4.99597 90.6104 4.99604 90.61 4.99677C90.6098 4.9971 90.5958 5.02488 90.5349 5.07252L91.1512 5.86003ZM91.6112 4.98003H92.6112C92.6112 4.28144 92.2897 3.698 91.7456 3.29585L91.1512 4.10003L90.5568 4.90421C90.6068 4.94118 90.6134 4.95993 90.61 4.95328C90.6089 4.95131 90.6086 4.94982 90.6089 4.95101C90.6093 4.95256 90.6112 4.96139 90.6112 4.98003H91.6112ZM91.1512 4.10003L91.7456 3.29585C91.266 2.94136 90.6509 2.73631 89.9901 2.61616L89.8112 3.60003L89.6323 4.5839C90.1448 4.67708 90.4231 4.80537 90.5568 4.9042L91.1512 4.10003ZM89.8112 3.60003L90.0116 2.62031C89.3377 2.48248 88.546 2.42003 87.6512 2.42003V3.42003V4.42003C88.4631 4.42003 89.1113 4.47758 89.6108 4.57974L89.8112 3.60003ZM81.2312 13.04V14.04H94.0312V13.04V12.04H81.2312V13.04ZM94.0312 13.04H93.0312V19.36H94.0312H95.0312V13.04H94.0312ZM94.0312 19.36V18.36H81.2312V19.36V20.36H94.0312V19.36ZM81.2312 19.36H82.2312V13.04H81.2312H80.2312V19.36H81.2312ZM91.4312 15.14V14.14H83.8312V15.14V16.14H91.4312V15.14ZM83.8312 15.14H82.8312V17.26H83.8312H84.8312V15.14H83.8312ZM83.8312 17.26V18.26H91.4312V17.26V16.26H83.8312V17.26ZM91.4312 17.26H92.4312V15.14H91.4312H90.4312V17.26H91.4312ZM79.2712 9.66003V10.66H96.0312V9.66003V8.66003H79.2712V9.66003ZM96.0312 9.66003H95.0312V11.74H96.0312H97.0312V9.66003H96.0312ZM96.0312 11.74V10.74H79.2712V11.74V12.74H96.0312V11.74ZM79.2712 11.74H80.2712V9.66003H79.2712H78.2712V11.74H79.2712Z" fill="#FF5FA2" mask="url(#path-1-outside-1_686_1900)"/>
</svg>
