<svg width="98" height="21" viewBox="0 0 98 21" fill="none" xmlns="http://www.w3.org/2000/svg">
<mask id="path-1-outside-1_974_465" maskUnits="userSpaceOnUse" x="-0.380859" y="-0.220215" width="98" height="21" fill="black">
<rect fill="white" x="-0.380859" y="-0.220215" width="98" height="21"/>
<path d="M5.80805 11.0998H8.46805V14.9198H5.80805V11.0998ZM5.78805 4.49978H7.90805V4.89978C7.90805 5.93978 7.71471 6.91312 7.32805 7.81978C6.95471 8.72645 6.38805 9.51312 5.62805 10.1798C4.86805 10.8465 3.89471 11.3398 2.70805 11.6598L1.52805 9.59978C2.51471 9.34645 3.32138 8.97978 3.94805 8.49978C4.57471 8.00645 5.03471 7.45312 5.32805 6.83978C5.63471 6.21312 5.78805 5.56645 5.78805 4.89978V4.49978ZM6.34805 4.49978H8.48805V4.89978C8.48805 5.53978 8.63471 6.15978 8.92805 6.75979C9.23471 7.35978 9.70138 7.89312 10.328 8.35978C10.968 8.82645 11.7814 9.18645 12.768 9.43978L11.588 11.4798C10.4147 11.1731 9.43471 10.6998 8.64805 10.0598C7.87471 9.40645 7.29471 8.63978 6.90805 7.75978C6.53471 6.86645 6.34805 5.91312 6.34805 4.89978V4.49978ZM2.06805 3.19978H12.228V5.29978H2.06805V3.19978ZM5.80805 1.17978H8.46805V4.13978H5.80805V1.17978ZM13.848 0.999784H16.508V19.5798H13.848V0.999784ZM1.44805 16.1398L1.14805 13.9798C2.22805 13.9798 3.42138 13.9731 4.72805 13.9598C6.04805 13.9331 7.40138 13.8798 8.78805 13.7998C10.188 13.7065 11.5414 13.5665 12.848 13.3798L13.028 15.3198C11.6947 15.5731 10.3414 15.7598 8.96805 15.8798C7.59471 15.9998 6.26805 16.0731 4.98805 16.0998C3.70805 16.1131 2.52805 16.1265 1.44805 16.1398ZM32.1865 1.03978H34.8465V14.5398H32.1865V1.03978ZM22.5065 17.0998H35.3265V19.2398H22.5065V17.0998ZM22.5065 13.2398H25.1665V18.1998H22.5065V13.2398ZM23.8065 2.05978H26.0065V3.85978C26.0065 5.05978 25.8132 6.20645 25.4265 7.29978C25.0532 8.39312 24.4798 9.35312 23.7065 10.1798C22.9332 11.0065 21.9465 11.6331 20.7465 12.0598L19.3865 9.93978C20.4265 9.57978 21.2665 9.07978 21.9065 8.43979C22.5598 7.79978 23.0398 7.07978 23.3465 6.27978C23.6532 5.47978 23.8065 4.67312 23.8065 3.85978V2.05978ZM24.3465 2.05978H26.5065V3.85978C26.5065 4.45978 26.5865 5.05312 26.7465 5.63978C26.9198 6.21312 27.1798 6.75978 27.5265 7.27978C27.8732 7.78645 28.3198 8.24645 28.8665 8.65978C29.4132 9.07312 30.0598 9.39978 30.8065 9.63979L29.4665 11.7398C28.2932 11.3531 27.3265 10.7665 26.5665 9.97978C25.8065 9.19312 25.2465 8.27312 24.8865 7.21979C24.5265 6.16645 24.3465 5.04645 24.3465 3.85978V2.05978ZM39.9249 1.75978H51.6449V3.85978H39.9249V1.75978ZM37.8649 7.53978H54.6449V9.65978H37.8649V7.53978ZM50.0449 1.75978H52.6649V3.01978C52.6649 3.68645 52.6449 4.44645 52.6049 5.29978C52.5649 6.13978 52.4249 7.09978 52.1849 8.17978L49.5649 7.93978C49.8049 6.88645 49.9449 5.96645 49.9849 5.17978C50.0249 4.39312 50.0449 3.67312 50.0449 3.01978V1.75978ZM39.7249 10.9198H52.6249V16.1198H42.4049V17.9998H39.7449V14.1598H49.9649V12.9598H39.7249V10.9198ZM39.7449 17.3598H53.1049V19.4198H39.7449V17.3598ZM60.8923 15.2398H77.6723V17.3998H60.8923V15.2398ZM67.9323 11.1598H70.5723V15.7598H67.9323V11.1598ZM62.6523 2.39978H75.8323V11.4998H62.6523V2.39978ZM73.2123 4.49978H65.2723V9.37978H73.2123V4.49978ZM87.6507 1.37978C89.024 1.37978 90.2107 1.52645 91.2107 1.81978C92.2107 2.09978 92.984 2.51312 93.5307 3.05978C94.0907 3.59312 94.3707 4.23312 94.3707 4.97978C94.3707 5.72645 94.0907 6.37312 93.5307 6.91978C92.984 7.45312 92.2107 7.86645 91.2107 8.15978C90.2107 8.45312 89.024 8.59978 87.6507 8.59978C86.304 8.59978 85.124 8.45312 84.1107 8.15978C83.0974 7.86645 82.3174 7.45312 81.7707 6.91978C81.224 6.37312 80.9507 5.72645 80.9507 4.97978C80.9507 4.23312 81.224 3.59312 81.7707 3.05978C82.3174 2.51312 83.0974 2.09978 84.1107 1.81978C85.124 1.52645 86.304 1.37978 87.6507 1.37978ZM87.6507 3.41978C86.824 3.41978 86.1107 3.47978 85.5107 3.59978C84.9107 3.70645 84.4574 3.87312 84.1507 4.09978C83.8574 4.32645 83.7107 4.61978 83.7107 4.97978C83.7107 5.32645 83.8574 5.61978 84.1507 5.85978C84.4574 6.08645 84.9107 6.25978 85.5107 6.37978C86.1107 6.48645 86.824 6.53978 87.6507 6.53978C88.504 6.53978 89.224 6.48645 89.8107 6.37978C90.3974 6.25978 90.844 6.08645 91.1507 5.85978C91.4574 5.61978 91.6107 5.32645 91.6107 4.97978C91.6107 4.61978 91.4574 4.32645 91.1507 4.09978C90.844 3.87312 90.3974 3.70645 89.8107 3.59978C89.224 3.47978 88.504 3.41978 87.6507 3.41978ZM81.2307 13.0398H94.0307V19.3598H81.2307V13.0398ZM91.4307 15.1398H83.8307V17.2598H91.4307V15.1398ZM79.2707 9.65978H96.0307V11.7398H79.2707V9.65978Z"/>
</mask>
<path d="M5.80805 11.0998H8.46805V14.9198H5.80805V11.0998ZM5.78805 4.49978H7.90805V4.89978C7.90805 5.93978 7.71471 6.91312 7.32805 7.81978C6.95471 8.72645 6.38805 9.51312 5.62805 10.1798C4.86805 10.8465 3.89471 11.3398 2.70805 11.6598L1.52805 9.59978C2.51471 9.34645 3.32138 8.97978 3.94805 8.49978C4.57471 8.00645 5.03471 7.45312 5.32805 6.83978C5.63471 6.21312 5.78805 5.56645 5.78805 4.89978V4.49978ZM6.34805 4.49978H8.48805V4.89978C8.48805 5.53978 8.63471 6.15978 8.92805 6.75979C9.23471 7.35978 9.70138 7.89312 10.328 8.35978C10.968 8.82645 11.7814 9.18645 12.768 9.43978L11.588 11.4798C10.4147 11.1731 9.43471 10.6998 8.64805 10.0598C7.87471 9.40645 7.29471 8.63978 6.90805 7.75978C6.53471 6.86645 6.34805 5.91312 6.34805 4.89978V4.49978ZM2.06805 3.19978H12.228V5.29978H2.06805V3.19978ZM5.80805 1.17978H8.46805V4.13978H5.80805V1.17978ZM13.848 0.999784H16.508V19.5798H13.848V0.999784ZM1.44805 16.1398L1.14805 13.9798C2.22805 13.9798 3.42138 13.9731 4.72805 13.9598C6.04805 13.9331 7.40138 13.8798 8.78805 13.7998C10.188 13.7065 11.5414 13.5665 12.848 13.3798L13.028 15.3198C11.6947 15.5731 10.3414 15.7598 8.96805 15.8798C7.59471 15.9998 6.26805 16.0731 4.98805 16.0998C3.70805 16.1131 2.52805 16.1265 1.44805 16.1398ZM32.1865 1.03978H34.8465V14.5398H32.1865V1.03978ZM22.5065 17.0998H35.3265V19.2398H22.5065V17.0998ZM22.5065 13.2398H25.1665V18.1998H22.5065V13.2398ZM23.8065 2.05978H26.0065V3.85978C26.0065 5.05978 25.8132 6.20645 25.4265 7.29978C25.0532 8.39312 24.4798 9.35312 23.7065 10.1798C22.9332 11.0065 21.9465 11.6331 20.7465 12.0598L19.3865 9.93978C20.4265 9.57978 21.2665 9.07978 21.9065 8.43979C22.5598 7.79978 23.0398 7.07978 23.3465 6.27978C23.6532 5.47978 23.8065 4.67312 23.8065 3.85978V2.05978ZM24.3465 2.05978H26.5065V3.85978C26.5065 4.45978 26.5865 5.05312 26.7465 5.63978C26.9198 6.21312 27.1798 6.75978 27.5265 7.27978C27.8732 7.78645 28.3198 8.24645 28.8665 8.65978C29.4132 9.07312 30.0598 9.39978 30.8065 9.63979L29.4665 11.7398C28.2932 11.3531 27.3265 10.7665 26.5665 9.97978C25.8065 9.19312 25.2465 8.27312 24.8865 7.21979C24.5265 6.16645 24.3465 5.04645 24.3465 3.85978V2.05978ZM39.9249 1.75978H51.6449V3.85978H39.9249V1.75978ZM37.8649 7.53978H54.6449V9.65978H37.8649V7.53978ZM50.0449 1.75978H52.6649V3.01978C52.6649 3.68645 52.6449 4.44645 52.6049 5.29978C52.5649 6.13978 52.4249 7.09978 52.1849 8.17978L49.5649 7.93978C49.8049 6.88645 49.9449 5.96645 49.9849 5.17978C50.0249 4.39312 50.0449 3.67312 50.0449 3.01978V1.75978ZM39.7249 10.9198H52.6249V16.1198H42.4049V17.9998H39.7449V14.1598H49.9649V12.9598H39.7249V10.9198ZM39.7449 17.3598H53.1049V19.4198H39.7449V17.3598ZM60.8923 15.2398H77.6723V17.3998H60.8923V15.2398ZM67.9323 11.1598H70.5723V15.7598H67.9323V11.1598ZM62.6523 2.39978H75.8323V11.4998H62.6523V2.39978ZM73.2123 4.49978H65.2723V9.37978H73.2123V4.49978ZM87.6507 1.37978C89.024 1.37978 90.2107 1.52645 91.2107 1.81978C92.2107 2.09978 92.984 2.51312 93.5307 3.05978C94.0907 3.59312 94.3707 4.23312 94.3707 4.97978C94.3707 5.72645 94.0907 6.37312 93.5307 6.91978C92.984 7.45312 92.2107 7.86645 91.2107 8.15978C90.2107 8.45312 89.024 8.59978 87.6507 8.59978C86.304 8.59978 85.124 8.45312 84.1107 8.15978C83.0974 7.86645 82.3174 7.45312 81.7707 6.91978C81.224 6.37312 80.9507 5.72645 80.9507 4.97978C80.9507 4.23312 81.224 3.59312 81.7707 3.05978C82.3174 2.51312 83.0974 2.09978 84.1107 1.81978C85.124 1.52645 86.304 1.37978 87.6507 1.37978ZM87.6507 3.41978C86.824 3.41978 86.1107 3.47978 85.5107 3.59978C84.9107 3.70645 84.4574 3.87312 84.1507 4.09978C83.8574 4.32645 83.7107 4.61978 83.7107 4.97978C83.7107 5.32645 83.8574 5.61978 84.1507 5.85978C84.4574 6.08645 84.9107 6.25978 85.5107 6.37978C86.1107 6.48645 86.824 6.53978 87.6507 6.53978C88.504 6.53978 89.224 6.48645 89.8107 6.37978C90.3974 6.25978 90.844 6.08645 91.1507 5.85978C91.4574 5.61978 91.6107 5.32645 91.6107 4.97978C91.6107 4.61978 91.4574 4.32645 91.1507 4.09978C90.844 3.87312 90.3974 3.70645 89.8107 3.59978C89.224 3.47978 88.504 3.41978 87.6507 3.41978ZM81.2307 13.0398H94.0307V19.3598H81.2307V13.0398ZM91.4307 15.1398H83.8307V17.2598H91.4307V15.1398ZM79.2707 9.65978H96.0307V11.7398H79.2707V9.65978Z" fill="#FFE2E9"/>
<path d="M5.80805 11.0998V10.0998H4.80805V11.0998H5.80805ZM8.46805 11.0998H9.46805V10.0998H8.46805V11.0998ZM8.46805 14.9198V15.9198H9.46805V14.9198H8.46805ZM5.80805 14.9198H4.80805V15.9198H5.80805V14.9198ZM5.78805 4.49978V3.49978H4.78805V4.49978H5.78805ZM7.90805 4.49978H8.90805V3.49978H7.90805V4.49978ZM7.32805 7.81978L6.40813 7.42747L6.40337 7.43904L7.32805 7.81978ZM5.62805 10.1798L4.96861 9.42803L5.62805 10.1798ZM2.70805 11.6598L1.84032 12.1568L2.2237 12.8261L2.96841 12.6253L2.70805 11.6598ZM1.52805 9.59978L1.27936 8.6312L0.00780106 8.95768L0.660323 10.0968L1.52805 9.59978ZM3.94805 8.49978L4.55618 9.29373L4.56661 9.28552L3.94805 8.49978ZM5.32805 6.83978L4.42979 6.40021L4.42591 6.40833L5.32805 6.83978ZM6.34805 4.49978V3.49978H5.34805V4.49978H6.34805ZM8.48805 4.49978H9.48805V3.49978H8.48805V4.49978ZM8.92805 6.75979L8.02966 7.19899L8.03357 7.20698L8.03761 7.2149L8.92805 6.75979ZM10.328 8.35979L9.73075 9.16187L9.73888 9.16779L10.328 8.35979ZM12.768 9.43979L13.6337 9.94049L14.2939 8.79911L13.0167 8.4712L12.768 9.43979ZM11.588 11.4798L11.3352 12.4473L12.0722 12.6399L12.4537 11.9805L11.588 11.4798ZM8.64805 10.0598L8.0027 10.8237L8.00977 10.8296L8.01696 10.8355L8.64805 10.0598ZM6.90805 7.75978L5.98538 8.14538L5.98888 8.15375L5.99253 8.16206L6.90805 7.75978ZM2.06805 3.19978V2.19978H1.06805V3.19978H2.06805ZM12.228 3.19978H13.228V2.19978H12.228V3.19978ZM12.228 5.29978V6.29978H13.228V5.29978H12.228ZM2.06805 5.29978H1.06805V6.29978H2.06805V5.29978ZM5.80805 1.17978V0.179784H4.80805V1.17978H5.80805ZM8.46805 1.17978H9.46805V0.179784H8.46805V1.17978ZM8.46805 4.13978V5.13978H9.46805V4.13978H8.46805ZM5.80805 4.13978H4.80805V5.13978H5.80805V4.13978ZM13.848 0.999784V-0.000215769H12.848V0.999784H13.848ZM16.508 0.999784H17.508V-0.000215769H16.508V0.999784ZM16.508 19.5798V20.5798H17.508V19.5798H16.508ZM13.848 19.5798H12.848V20.5798H13.848V19.5798ZM1.44805 16.1398L0.457555 16.2774L0.578838 17.1506L1.46039 17.1397L1.44805 16.1398ZM1.14805 13.9798V12.9798H-0.000441074L0.157555 14.1174L1.14805 13.9798ZM4.72805 13.9598L4.73825 14.9598L4.74825 14.9596L4.72805 13.9598ZM8.78805 13.7998L8.84565 14.7982L8.85457 14.7976L8.78805 13.7998ZM12.848 13.3798L13.8438 13.2874L13.7467 12.2413L12.7066 12.3898L12.848 13.3798ZM13.028 15.3198L13.2147 16.3022L14.1078 16.1325L14.0238 15.2274L13.028 15.3198ZM8.96805 15.8798L8.881 14.8836L8.96805 15.8798ZM4.98805 16.0998L4.99846 17.0998L5.00888 17.0996L4.98805 16.0998ZM5.80805 11.0998V12.0998H8.46805V11.0998V10.0998H5.80805V11.0998ZM8.46805 11.0998H7.46805V14.9198H8.46805H9.46805V11.0998H8.46805ZM8.46805 14.9198V13.9198H5.80805V14.9198V15.9198H8.46805V14.9198ZM5.80805 14.9198H6.80805V11.0998H5.80805H4.80805V14.9198H5.80805ZM5.78805 4.49978V5.49978H7.90805V4.49978V3.49978H5.78805V4.49978ZM7.90805 4.49978H6.90805V4.89978H7.90805H8.90805V4.49978H7.90805ZM7.90805 4.89978H6.90805C6.90805 5.81251 6.73909 6.65162 6.4082 7.4275L7.32805 7.81978L8.24789 8.21207C8.69033 7.17461 8.90805 6.06706 8.90805 4.89978H7.90805ZM7.32805 7.81978L6.40337 7.43904C6.09054 8.19875 5.61651 8.85969 4.96861 9.42803L5.62805 10.1798L6.28749 10.9315C7.15958 10.1665 7.81888 9.25415 8.25272 8.20053L7.32805 7.81978ZM5.62805 10.1798L4.96861 9.42803C4.34569 9.97445 3.51809 10.4056 2.44768 10.6943L2.70805 11.6598L2.96841 12.6253C4.27134 12.2739 5.3904 11.7185 6.28749 10.9315L5.62805 10.1798ZM2.70805 11.6598L3.57577 11.1627L2.39577 9.10274L1.52805 9.59978L0.660323 10.0968L1.84032 12.1568L2.70805 11.6598ZM1.52805 9.59978L1.77674 10.5684C2.8575 10.2909 3.79648 9.87552 4.55612 9.29366L3.94805 8.49978L3.33997 7.70591C2.84628 8.08405 2.17193 8.40203 1.27936 8.6312L1.52805 9.59978ZM3.94805 8.49978L4.56661 9.28552C5.29294 8.71372 5.8602 8.04484 6.23018 7.27124L5.32805 6.83978L4.42591 6.40833C4.20923 6.86139 3.85648 7.29918 3.32949 7.71405L3.94805 8.49978ZM5.32805 6.83978L6.22626 7.27934C6.5967 6.52236 6.78805 5.72593 6.78805 4.89978H5.78805H4.78805C4.78805 5.40697 4.67273 5.90387 4.42983 6.40023L5.32805 6.83978ZM5.78805 4.89978H6.78805V4.49978H5.78805H4.78805V4.89978H5.78805ZM6.34805 4.49978V5.49978H8.48805V4.49978V3.49978H6.34805V4.49978ZM8.48805 4.49978H7.48805V4.89978H8.48805H9.48805V4.49978H8.48805ZM8.48805 4.89978H7.48805C7.48805 5.69869 7.67246 6.46836 8.02966 7.19899L8.92805 6.75979L9.82643 6.32058C9.59696 5.85121 9.48805 5.38088 9.48805 4.89978H8.48805ZM8.92805 6.75979L8.03761 7.2149C8.42443 7.97172 9.00069 8.61814 9.73078 9.16183L10.328 8.35979L10.9253 7.55774C10.4021 7.16809 10.045 6.74785 9.81848 6.30467L8.92805 6.75979ZM10.328 8.35979L9.73888 9.16779C10.5058 9.72703 11.4436 10.1321 12.5194 10.4084L12.768 9.43979L13.0167 8.4712C12.1192 8.24075 11.4303 7.92587 10.9172 7.55178L10.328 8.35979ZM12.768 9.43979L11.9024 8.93908L10.7224 10.9791L11.588 11.4798L12.4537 11.9805L13.6337 9.94049L12.768 9.43979ZM11.588 11.4798L11.8409 10.5123C10.7792 10.2348 9.93533 9.81792 9.27913 9.28407L8.64805 10.0598L8.01696 10.8355C8.9341 11.5816 10.0502 12.1114 11.3352 12.4473L11.588 11.4798ZM8.64805 10.0598L9.2934 9.2959C8.63014 8.73556 8.14565 8.09053 7.82357 7.35751L6.90805 7.75978L5.99253 8.16206C6.44378 9.18904 7.11928 10.0773 8.0027 10.8237L8.64805 10.0598ZM6.90805 7.75978L7.83072 7.37419C7.5108 6.60867 7.34805 5.78702 7.34805 4.89978H6.34805H5.34805C5.34805 6.03922 5.55863 7.12423 5.98538 8.14538L6.90805 7.75978ZM6.34805 4.89978H7.34805V4.49978H6.34805H5.34805V4.89978H6.34805ZM2.06805 3.19978V4.19978H12.228V3.19978V2.19978H2.06805V3.19978ZM12.228 3.19978H11.228V5.29978H12.228H13.228V3.19978H12.228ZM12.228 5.29978V4.29978H2.06805V5.29978V6.29978H12.228V5.29978ZM2.06805 5.29978H3.06805V3.19978H2.06805H1.06805V5.29978H2.06805ZM5.80805 1.17978V2.17978H8.46805V1.17978V0.179784H5.80805V1.17978ZM8.46805 1.17978H7.46805V4.13978H8.46805H9.46805V1.17978H8.46805ZM8.46805 4.13978V3.13978H5.80805V4.13978V5.13978H8.46805V4.13978ZM5.80805 4.13978H6.80805V1.17978H5.80805H4.80805V4.13978H5.80805ZM13.848 0.999784V1.99978H16.508V0.999784V-0.000215769H13.848V0.999784ZM16.508 0.999784H15.508V19.5798H16.508H17.508V0.999784H16.508ZM16.508 19.5798V18.5798H13.848V19.5798V20.5798H16.508V19.5798ZM13.848 19.5798H14.848V0.999784H13.848H12.848V19.5798H13.848ZM1.44805 16.1398L2.43854 16.0022L2.13854 13.8422L1.14805 13.9798L0.157555 14.1174L0.457555 16.2774L1.44805 16.1398ZM1.14805 13.9798V14.9798C2.23206 14.9798 3.42886 14.9731 4.73825 14.9597L4.72805 13.9598L4.71784 12.9598C3.4139 12.9731 2.22403 12.9798 1.14805 12.9798V13.9798ZM4.72805 13.9598L4.74825 14.9596C6.08134 14.9326 7.44716 14.8788 8.84564 14.7981L8.78805 13.7998L8.73045 12.8014C7.3556 12.8808 6.01475 12.9336 4.70785 12.96L4.72805 13.9598ZM8.78805 13.7998L8.85457 14.7976C10.2781 14.7027 11.6564 14.5602 12.9895 14.3697L12.848 13.3798L12.7066 12.3898C11.4263 12.5727 10.098 12.7102 8.72153 12.802L8.78805 13.7998ZM12.848 13.3798L11.8523 13.4722L12.0323 15.4122L13.028 15.3198L14.0238 15.2274L13.8438 13.2874L12.848 13.3798ZM13.028 15.3198L12.8414 14.3374C11.5415 14.5843 10.2214 14.7665 8.881 14.8836L8.96805 15.8798L9.05509 16.876C10.4613 16.7531 11.8479 16.5619 13.2147 16.3022L13.028 15.3198ZM8.96805 15.8798L8.881 14.8836C7.52803 15.0018 6.22351 15.0738 4.96722 15.1L4.98805 16.0998L5.00888 17.0996C6.31259 17.0724 7.66139 16.9978 9.05509 16.876L8.96805 15.8798ZM4.98805 16.0998L4.97763 15.0998C3.6971 15.1132 2.51645 15.1265 1.4357 15.1399L1.44805 16.1398L1.46039 17.1397C2.53964 17.1264 3.71899 17.1131 4.99846 17.0997L4.98805 16.0998ZM32.1865 1.03978V0.0397849H31.1865V1.03978H32.1865ZM34.8465 1.03978H35.8465V0.0397849H34.8465V1.03978ZM34.8465 14.5398V15.5398H35.8465V14.5398H34.8465ZM32.1865 14.5398H31.1865V15.5398H32.1865V14.5398ZM22.5065 17.0998V16.0998H21.5065V17.0998H22.5065ZM35.3265 17.0998H36.3265V16.0998H35.3265V17.0998ZM35.3265 19.2398V20.2398H36.3265V19.2398H35.3265ZM22.5065 19.2398H21.5065V20.2398H22.5065V19.2398ZM22.5065 13.2398V12.2398H21.5065V13.2398H22.5065ZM25.1665 13.2398H26.1665V12.2398H25.1665V13.2398ZM25.1665 18.1998V19.1998H26.1665V18.1998H25.1665ZM22.5065 18.1998H21.5065V19.1998H22.5065V18.1998ZM23.8065 2.05978V1.05978H22.8065V2.05978H23.8065ZM26.0065 2.05978H27.0065V1.05978H26.0065V2.05978ZM25.4265 7.29978L24.4837 6.96634L24.4801 6.97664L25.4265 7.29978ZM23.7065 10.1798L24.4368 10.8629L23.7065 10.1798ZM20.7465 12.0598L19.9048 12.5997L20.3335 13.268L21.0815 13.002L20.7465 12.0598ZM19.3865 9.93979L19.0594 8.9948L17.8588 9.41039L18.5448 10.4797L19.3865 9.93979ZM21.9065 8.43979L21.2067 7.72539L21.1994 7.73268L21.9065 8.43979ZM23.3465 6.27978L22.4127 5.92185L23.3465 6.27978ZM24.3465 2.05978V1.05978H23.3465V2.05978H24.3465ZM26.5065 2.05978H27.5065V1.05978H26.5065V2.05978ZM26.7465 5.63978L25.7817 5.9029L25.7853 5.91609L25.7893 5.92917L26.7465 5.63978ZM27.5265 7.27978L26.6944 7.83453L26.7012 7.84447L27.5265 7.27978ZM28.8665 8.65978L29.4696 7.86213L28.8665 8.65978ZM30.8065 9.63978L31.6495 10.1777L32.347 9.08457L31.1125 8.68776L30.8065 9.63978ZM29.4665 11.7398L29.1535 12.6895L29.8915 12.9327L30.3095 12.2777L29.4665 11.7398ZM26.5665 9.97978L27.2857 9.28497L26.5665 9.97978ZM24.8865 7.21979L23.9402 7.54319V7.54319L24.8865 7.21979ZM32.1865 1.03978V2.03978H34.8465V1.03978V0.0397849H32.1865V1.03978ZM34.8465 1.03978H33.8465V14.5398H34.8465H35.8465V1.03978H34.8465ZM34.8465 14.5398V13.5398H32.1865V14.5398V15.5398H34.8465V14.5398ZM32.1865 14.5398H33.1865V1.03978H32.1865H31.1865V14.5398H32.1865ZM22.5065 17.0998V18.0998H35.3265V17.0998V16.0998H22.5065V17.0998ZM35.3265 17.0998H34.3265V19.2398H35.3265H36.3265V17.0998H35.3265ZM35.3265 19.2398V18.2398H22.5065V19.2398V20.2398H35.3265V19.2398ZM22.5065 19.2398H23.5065V17.0998H22.5065H21.5065V19.2398H22.5065ZM22.5065 13.2398V14.2398H25.1665V13.2398V12.2398H22.5065V13.2398ZM25.1665 13.2398H24.1665V18.1998H25.1665H26.1665V13.2398H25.1665ZM25.1665 18.1998V17.1998H22.5065V18.1998V19.1998H25.1665V18.1998ZM22.5065 18.1998H23.5065V13.2398H22.5065H21.5065V18.1998H22.5065ZM23.8065 2.05978V3.05978H26.0065V2.05978V1.05978H23.8065V2.05978ZM26.0065 2.05978H25.0065V3.85978H26.0065H27.0065V2.05978H26.0065ZM26.0065 3.85978H25.0065C25.0065 4.9502 24.8312 5.98382 24.4837 6.96636L25.4265 7.29978L26.3693 7.63321C26.7951 6.42908 27.0065 5.16937 27.0065 3.85978H26.0065ZM25.4265 7.29978L24.4801 6.97664C24.1516 7.93887 23.6508 8.77549 22.9762 9.49663L23.7065 10.1798L24.4368 10.8629C25.3088 9.93075 25.9547 8.84737 26.3728 7.62293L25.4265 7.29978ZM23.7065 10.1798L22.9762 9.49663C22.3251 10.1927 21.48 10.7377 20.4115 11.1176L20.7465 12.0598L21.0815 13.002C22.413 12.5286 23.5412 11.8202 24.4368 10.8629L23.7065 10.1798ZM20.7465 12.0598L21.5882 11.5198L20.2282 9.39983L19.3865 9.93979L18.5448 10.4797L19.9048 12.5997L20.7465 12.0598ZM19.3865 9.93979L19.7136 10.8848C20.8662 10.4858 21.8459 9.91454 22.6136 9.14689L21.9065 8.43979L21.1994 7.73268C20.687 8.24503 19.9867 8.67379 19.0594 8.9948L19.3865 9.93979ZM21.9065 8.43979L22.6063 9.15414C23.3552 8.42045 23.9187 7.58089 24.2802 6.63772L23.3465 6.27978L22.4127 5.92185C22.161 6.57868 21.7644 7.17912 21.2067 7.72543L21.9065 8.43979ZM23.3465 6.27978L24.2802 6.63772C24.6283 5.72964 24.8065 4.80192 24.8065 3.85978H23.8065H22.8065C22.8065 4.54431 22.678 5.22993 22.4127 5.92185L23.3465 6.27978ZM23.8065 3.85978H24.8065V2.05978H23.8065H22.8065V3.85978H23.8065ZM24.3465 2.05978V3.05978H26.5065V2.05978V1.05978H24.3465V2.05978ZM26.5065 2.05978H25.5065V3.85978H26.5065H27.5065V2.05978H26.5065ZM26.5065 3.85978H25.5065C25.5065 4.54987 25.5987 5.23165 25.7817 5.9029L26.7465 5.63978L27.7113 5.37667C27.5743 4.87458 27.5065 4.3697 27.5065 3.85978H26.5065ZM26.7465 5.63978L25.7893 5.92917C25.9923 6.60064 26.2956 7.23625 26.6944 7.83449L27.5265 7.27978L28.3585 6.72508C28.064 6.28332 27.8474 5.8256 27.7037 5.3504L26.7465 5.63978ZM27.5265 7.27978L26.7012 7.84447C27.1155 8.45001 27.6405 8.98647 28.2634 9.45744L28.8665 8.65978L29.4696 7.86213C28.9992 7.50643 28.6308 7.1229 28.3518 6.7151L27.5265 7.27978ZM28.8665 8.65978L28.2634 9.45744C28.9116 9.94758 29.662 10.3223 30.5005 10.5918L30.8065 9.63978L31.1125 8.68776C30.4576 8.47726 29.9147 8.19866 29.4696 7.86213L28.8665 8.65978ZM30.8065 9.63978L29.9635 9.10187L28.6235 11.2019L29.4665 11.7398L30.3095 12.2777L31.6495 10.1777L30.8065 9.63978ZM29.4665 11.7398L29.7795 10.79C28.74 10.4475 27.9191 9.94059 27.2857 9.28497L26.5665 9.97978L25.8473 10.6746C26.7339 11.5923 27.8463 12.2587 29.1535 12.6895L29.4665 11.7398ZM26.5665 9.97978L27.2857 9.28497C26.6296 8.60584 26.1461 7.81327 25.8327 6.89638L24.8865 7.21979L23.9402 7.54319C24.3469 8.73296 24.9834 9.78039 25.8473 10.6746L26.5665 9.97978ZM24.8865 7.21979L25.8327 6.89638C25.5106 5.95384 25.3465 4.94372 25.3465 3.85978H24.3465H23.3465C23.3465 5.14918 23.5424 6.37906 23.9402 7.54319L24.8865 7.21979ZM24.3465 3.85978H25.3465V2.05978H24.3465H23.3465V3.85978H24.3465ZM39.9249 1.75978V0.759784H38.9249V1.75978H39.9249ZM51.6449 1.75978H52.6449V0.759784H51.6449V1.75978ZM51.6449 3.85978V4.85978H52.6449V3.85978H51.6449ZM39.9249 3.85978H38.9249V4.85978H39.9249V3.85978ZM37.8649 7.53978V6.53978H36.8649V7.53978H37.8649ZM54.6449 7.53978H55.6449V6.53978H54.6449V7.53978ZM54.6449 9.65978V10.6598H55.6449V9.65978H54.6449ZM37.8649 9.65978H36.8649V10.6598H37.8649V9.65978ZM50.0449 1.75978V0.759784H49.0449V1.75978H50.0449ZM52.6649 1.75978H53.6649V0.759784H52.6649V1.75978ZM52.6049 5.29978L53.6038 5.34735L53.6038 5.34661L52.6049 5.29978ZM52.1849 8.17978L52.0937 9.17562L52.9702 9.2559L53.1611 8.39672L52.1849 8.17978ZM49.5649 7.93979L48.5899 7.71763L48.3361 8.83141L49.4737 8.93562L49.5649 7.93979ZM49.9849 5.17978L48.9862 5.129V5.129L49.9849 5.17978ZM39.7249 10.9198V9.91978H38.7249V10.9198H39.7249ZM52.6249 10.9198H53.6249V9.91978H52.6249V10.9198ZM52.6249 16.1198V17.1198H53.6249V16.1198H52.6249ZM42.4049 16.1198V15.1198H41.4049V16.1198H42.4049ZM42.4049 17.9998V18.9998H43.4049V17.9998H42.4049ZM39.7449 17.9998H38.7449V18.9998H39.7449V17.9998ZM39.7449 14.1598V13.1598H38.7449V14.1598H39.7449ZM49.9649 14.1598V15.1598H50.9649V14.1598H49.9649ZM49.9649 12.9598H50.9649V11.9598H49.9649V12.9598ZM39.7249 12.9598H38.7249V13.9598H39.7249V12.9598ZM39.7449 17.3598V16.3598H38.7449V17.3598H39.7449ZM53.1049 17.3598H54.1049V16.3598H53.1049V17.3598ZM53.1049 19.4198V20.4198H54.1049V19.4198H53.1049ZM39.7449 19.4198H38.7449V20.4198H39.7449V19.4198ZM39.9249 1.75978V2.75978H51.6449V1.75978V0.759784H39.9249V1.75978ZM51.6449 1.75978H50.6449V3.85978H51.6449H52.6449V1.75978H51.6449ZM51.6449 3.85978V2.85978H39.9249V3.85978V4.85978H51.6449V3.85978ZM39.9249 3.85978H40.9249V1.75978H39.9249H38.9249V3.85978H39.9249ZM37.8649 7.53978V8.53978H54.6449V7.53978V6.53978H37.8649V7.53978ZM54.6449 7.53978H53.6449V9.65978H54.6449H55.6449V7.53978H54.6449ZM54.6449 9.65978V8.65978H37.8649V9.65978V10.6598H54.6449V9.65978ZM37.8649 9.65978H38.8649V7.53978H37.8649H36.8649V9.65978H37.8649ZM50.0449 1.75978V2.75978H52.6649V1.75978V0.759784H50.0449V1.75978ZM52.6649 1.75978H51.6649V3.01978H52.6649H53.6649V1.75978H52.6649ZM52.6649 3.01978H51.6649C51.6649 3.66722 51.6455 4.41114 51.606 5.25296L52.6049 5.29978L53.6038 5.34661C53.6444 4.48176 53.6649 3.70568 53.6649 3.01978H52.6649ZM52.6049 5.29978L51.6061 5.25222C51.5695 6.02066 51.44 6.92225 51.2087 7.96285L52.1849 8.17978L53.1611 8.39672C53.4099 7.27732 53.5604 6.25891 53.6038 5.34735L52.6049 5.29978ZM52.1849 8.17978L52.2761 7.18395L49.6561 6.94395L49.5649 7.93979L49.4737 8.93562L52.0937 9.17562L52.1849 8.17978ZM49.5649 7.93979L50.5399 8.16194C50.7884 7.07141 50.9398 6.09169 50.9836 5.23057L49.9849 5.17978L48.9862 5.129C48.95 5.84121 48.8214 6.70149 48.5899 7.71763L49.5649 7.93979ZM49.9849 5.17978L50.9836 5.23057C51.0243 4.43029 51.0449 3.69307 51.0449 3.01978H50.0449H49.0449C49.0449 3.65317 49.0255 4.35595 48.9862 5.129L49.9849 5.17978ZM50.0449 3.01978H51.0449V1.75978H50.0449H49.0449V3.01978H50.0449ZM39.7249 10.9198V11.9198H52.6249V10.9198V9.91978H39.7249V10.9198ZM52.6249 10.9198H51.6249V16.1198H52.6249H53.6249V10.9198H52.6249ZM52.6249 16.1198V15.1198H42.4049V16.1198V17.1198H52.6249V16.1198ZM42.4049 16.1198H41.4049V17.9998H42.4049H43.4049V16.1198H42.4049ZM42.4049 17.9998V16.9998H39.7449V17.9998V18.9998H42.4049V17.9998ZM39.7449 17.9998H40.7449V14.1598H39.7449H38.7449V17.9998H39.7449ZM39.7449 14.1598V15.1598H49.9649V14.1598V13.1598H39.7449V14.1598ZM49.9649 14.1598H50.9649V12.9598H49.9649H48.9649V14.1598H49.9649ZM49.9649 12.9598V11.9598H39.7249V12.9598V13.9598H49.9649V12.9598ZM39.7249 12.9598H40.7249V10.9198H39.7249H38.7249V12.9598H39.7249ZM39.7449 17.3598V18.3598H53.1049V17.3598V16.3598H39.7449V17.3598ZM53.1049 17.3598H52.1049V19.4198H53.1049H54.1049V17.3598H53.1049ZM53.1049 19.4198V18.4198H39.7449V19.4198V20.4198H53.1049V19.4198ZM39.7449 19.4198H40.7449V17.3598H39.7449H38.7449V19.4198H39.7449ZM60.8923 15.2398V14.2398H59.8923V15.2398H60.8923ZM77.6723 15.2398H78.6723V14.2398H77.6723V15.2398ZM77.6723 17.3998V18.3998H78.6723V17.3998H77.6723ZM60.8923 17.3998H59.8923V18.3998H60.8923V17.3998ZM67.9323 11.1598V10.1598H66.9323V11.1598H67.9323ZM70.5723 11.1598H71.5723V10.1598H70.5723V11.1598ZM70.5723 15.7598V16.7598H71.5723V15.7598H70.5723ZM67.9323 15.7598H66.9323V16.7598H67.9323V15.7598ZM62.6523 2.39978V1.39978H61.6523V2.39978H62.6523ZM75.8323 2.39978H76.8323V1.39978H75.8323V2.39978ZM75.8323 11.4998V12.4998H76.8323V11.4998H75.8323ZM62.6523 11.4998H61.6523V12.4998H62.6523V11.4998ZM73.2123 4.49978H74.2123V3.49978H73.2123V4.49978ZM65.2723 4.49978V3.49978H64.2723V4.49978H65.2723ZM65.2723 9.37978H64.2723V10.3798H65.2723V9.37978ZM73.2123 9.37978V10.3798H74.2123V9.37978H73.2123ZM60.8923 15.2398V16.2398H77.6723V15.2398V14.2398H60.8923V15.2398ZM77.6723 15.2398H76.6723V17.3998H77.6723H78.6723V15.2398H77.6723ZM77.6723 17.3998V16.3998H60.8923V17.3998V18.3998H77.6723V17.3998ZM60.8923 17.3998H61.8923V15.2398H60.8923H59.8923V17.3998H60.8923ZM67.9323 11.1598V12.1598H70.5723V11.1598V10.1598H67.9323V11.1598ZM70.5723 11.1598H69.5723V15.7598H70.5723H71.5723V11.1598H70.5723ZM70.5723 15.7598V14.7598H67.9323V15.7598V16.7598H70.5723V15.7598ZM67.9323 15.7598H68.9323V11.1598H67.9323H66.9323V15.7598H67.9323ZM62.6523 2.39978V3.39978H75.8323V2.39978V1.39978H62.6523V2.39978ZM75.8323 2.39978H74.8323V11.4998H75.8323H76.8323V2.39978H75.8323ZM75.8323 11.4998V10.4998H62.6523V11.4998V12.4998H75.8323V11.4998ZM62.6523 11.4998H63.6523V2.39978H62.6523H61.6523V11.4998H62.6523ZM73.2123 4.49978V3.49978H65.2723V4.49978V5.49978H73.2123V4.49978ZM65.2723 4.49978H64.2723V9.37978H65.2723H66.2723V4.49978H65.2723ZM65.2723 9.37978V10.3798H73.2123V9.37978V8.37978H65.2723V9.37978ZM73.2123 9.37978H74.2123V4.49978H73.2123H72.2123V9.37978H73.2123ZM91.2107 1.81978L90.9292 2.77943L90.9411 2.78275L91.2107 1.81978ZM93.5307 3.05978L92.8236 3.76689L92.8322 3.77551L92.841 3.78392L93.5307 3.05978ZM93.5307 6.91978L94.229 7.63557L94.2292 7.63536L93.5307 6.91978ZM91.2107 8.15978L90.9292 7.20022L91.2107 8.15978ZM84.1107 8.15978L84.3888 7.19922V7.19922L84.1107 8.15978ZM81.7707 6.91978L81.0635 7.62694L81.0724 7.63557L81.7707 6.91978ZM81.7707 3.05978L82.4691 3.77562L82.4778 3.76689L81.7707 3.05978ZM84.1107 1.81978L84.3771 2.78374L84.3888 2.78035L84.1107 1.81978ZM85.5107 3.59978L85.6857 4.58435L85.6963 4.58247L85.7068 4.58036L85.5107 3.59978ZM84.1507 4.09978L83.5563 3.29561L83.5477 3.30196L83.5393 3.3085L84.1507 4.09978ZM84.1507 5.85979L83.5175 6.63374L83.5365 6.64933L83.5563 6.66396L84.1507 5.85979ZM85.5107 6.37978L85.3146 7.36036L85.3251 7.36247L85.3357 7.36435L85.5107 6.37978ZM89.8107 6.37978L89.9896 7.36365L90.0004 7.36169L90.0111 7.3595L89.8107 6.37978ZM91.1507 5.85979L91.7451 6.66396L91.7562 6.65578L91.767 6.64729L91.1507 5.85979ZM91.1507 4.09978L90.5563 4.90396V4.90396L91.1507 4.09978ZM89.8107 3.59978L89.6103 4.5795L89.621 4.58169L89.6318 4.58365L89.8107 3.59978ZM81.2307 13.0398V12.0398H80.2307V13.0398H81.2307ZM94.0307 13.0398H95.0307V12.0398H94.0307V13.0398ZM94.0307 19.3598V20.3598H95.0307V19.3598H94.0307ZM81.2307 19.3598H80.2307V20.3598H81.2307V19.3598ZM91.4307 15.1398H92.4307V14.1398H91.4307V15.1398ZM83.8307 15.1398V14.1398H82.8307V15.1398H83.8307ZM83.8307 17.2598H82.8307V18.2598H83.8307V17.2598ZM91.4307 17.2598V18.2598H92.4307V17.2598H91.4307ZM79.2707 9.65978V8.65978H78.2707V9.65978H79.2707ZM96.0307 9.65978H97.0307V8.65978H96.0307V9.65978ZM96.0307 11.7398V12.7398H97.0307V11.7398H96.0307ZM79.2707 11.7398H78.2707V12.7398H79.2707V11.7398ZM87.6507 1.37978V2.37978C88.9571 2.37978 90.0444 2.51979 90.9292 2.77935L91.2107 1.81978L91.4922 0.860215C90.3771 0.533111 89.091 0.379784 87.6507 0.379784V1.37978ZM91.2107 1.81978L90.9411 2.78275C91.8303 3.03174 92.433 3.37629 92.8236 3.76689L93.5307 3.05978L94.2378 2.35268C93.5351 1.64994 92.5911 1.16783 91.4803 0.856821L91.2107 1.81978ZM93.5307 3.05978L92.841 3.78392C93.2108 4.1361 93.3707 4.51761 93.3707 4.97978H94.3707H95.3707C95.3707 3.94863 94.9706 3.05013 94.2204 2.33565L93.5307 3.05978ZM94.3707 4.97978H93.3707C93.3707 5.44291 93.2098 5.83561 92.8322 6.20421L93.5307 6.91978L94.2292 7.63536C94.9716 6.91063 95.3707 6.00999 95.3707 4.97978H94.3707ZM93.5307 6.91978L92.8324 6.204C92.4375 6.5893 91.8269 6.9369 90.9292 7.20022L91.2107 8.15978L91.4922 9.11935C92.5945 8.796 93.5306 8.31694 94.229 7.63557L93.5307 6.91978ZM91.2107 8.15978L90.9292 7.20022C90.0444 7.45978 88.9571 7.59978 87.6507 7.59978V8.59978V9.59978C89.091 9.59978 90.3771 9.44646 91.4922 9.11935L91.2107 8.15978ZM87.6507 8.59978V7.59978C86.3735 7.59978 85.2908 7.46034 84.3888 7.19922L84.1107 8.15978L83.8326 9.12035C84.9573 9.4459 86.2346 9.59978 87.6507 9.59978V8.59978ZM84.1107 8.15978L84.3888 7.19922C83.4763 6.93509 82.8616 6.58698 82.469 6.204L81.7707 6.91978L81.0724 7.63557C81.7732 8.31926 82.7184 8.79781 83.8326 9.12035L84.1107 8.15978ZM81.7707 6.91978L82.4778 6.21268C82.1113 5.84613 81.9507 5.45093 81.9507 4.97978H80.9507H79.9507C79.9507 6.00198 80.3368 6.9001 81.0636 7.62689L81.7707 6.91978ZM80.9507 4.97978H81.9507C81.9507 4.50947 82.1103 4.12554 82.469 3.77557L81.7707 3.05978L81.0724 2.344C80.3378 3.06069 79.9507 3.95677 79.9507 4.97978H80.9507ZM81.7707 3.05978L82.4778 3.76689C82.866 3.37868 83.4729 3.0335 84.377 2.78366L84.1107 1.81978L83.8444 0.855904C82.7219 1.16607 81.7687 1.64755 81.0636 2.35268L81.7707 3.05978ZM84.1107 1.81978L84.3888 2.78035C85.2908 2.51923 86.3735 2.37978 87.6507 2.37978V1.37978V0.379784C86.2346 0.379784 84.9573 0.533669 83.8326 0.85922L84.1107 1.81978ZM87.6507 3.41978V2.41978C86.7795 2.41978 85.9971 2.48269 85.3146 2.6192L85.5107 3.59978L85.7068 4.58036C86.2243 4.47687 86.8686 4.41978 87.6507 4.41978V3.41978ZM85.5107 3.59978L85.3357 2.61522C84.6649 2.73448 84.0395 2.93846 83.5563 3.29561L84.1507 4.09978L84.7451 4.90396C84.8752 4.80777 85.1565 4.67843 85.6857 4.58435L85.5107 3.59978ZM84.1507 4.09978L83.5393 3.3085C83.0094 3.71795 82.7107 4.29948 82.7107 4.97978H83.7107H84.7107C84.7107 4.95798 84.7129 4.94593 84.7139 4.94132C84.7145 4.93888 84.7149 4.93765 84.715 4.93732C84.7151 4.93712 84.7151 4.93703 84.7151 4.93703C84.7151 4.93703 84.7151 4.93702 84.7151 4.937C84.7151 4.93697 84.7152 4.93685 84.7153 4.9366C84.7155 4.93636 84.7158 4.93592 84.7162 4.93529C84.717 4.93407 84.7186 4.93171 84.7216 4.92823C84.7274 4.92136 84.7396 4.90851 84.7622 4.89107L84.1507 4.09978ZM83.7107 4.97978H82.7107C82.7107 5.65684 83.0166 6.22398 83.5175 6.63374L84.1507 5.85979L84.7839 5.08583C84.7295 5.0413 84.7163 5.01498 84.7151 5.01257C84.7141 5.01047 84.7135 5.00895 84.7129 5.00641C84.7123 5.00365 84.7107 4.99547 84.7107 4.97978H83.7107ZM84.1507 5.85979L83.5563 6.66396C84.0314 7.01511 84.6478 7.22701 85.3146 7.36036L85.5107 6.37978L85.7068 5.3992C85.1736 5.29256 84.8833 5.15779 84.7451 5.05561L84.1507 5.85979ZM85.5107 6.37978L85.3357 7.36435C86.0097 7.48417 86.7846 7.53978 87.6507 7.53978V6.53978V5.53978C86.8635 5.53978 86.2117 5.48873 85.6857 5.39522L85.5107 6.37978ZM87.6507 6.53978V7.53978C88.5407 7.53978 89.3247 7.48454 89.9896 7.36365L89.8107 6.37978L89.6318 5.39591C89.1234 5.48836 88.4673 5.53978 87.6507 5.53978V6.53978ZM89.8107 6.37978L90.0111 7.3595C90.6676 7.22522 91.2736 7.01242 91.7451 6.66396L91.1507 5.85979L90.5563 5.05561C90.4144 5.16048 90.1272 5.29435 89.6103 5.40007L89.8107 6.37978ZM91.1507 5.85979L91.767 6.64729C92.2819 6.24436 92.6107 5.67472 92.6107 4.97978H91.6107H90.6107C90.6107 4.9862 90.6104 4.99053 90.6101 4.99304C90.6098 4.99552 90.6095 4.99668 90.6095 4.99679C90.6095 4.9969 90.6095 4.9966 90.6097 4.99616C90.6098 4.99572 90.6099 4.99579 90.6095 4.99653C90.6093 4.99685 90.5953 5.02463 90.5344 5.07228L91.1507 5.85979ZM91.6107 4.97978H92.6107C92.6107 4.2812 92.2892 3.69775 91.7451 3.29561L91.1507 4.09978L90.5563 4.90396C90.6063 4.94093 90.613 4.95969 90.6095 4.95304C90.6084 4.95106 90.6081 4.94958 90.6084 4.95077C90.6088 4.95232 90.6107 4.96115 90.6107 4.97978H91.6107ZM91.1507 4.09978L91.7451 3.29561C91.2655 2.94111 90.6504 2.73606 89.9896 2.61591L89.8107 3.59978L89.6318 4.58365C90.1443 4.67684 90.4226 4.80512 90.5563 4.90396L91.1507 4.09978ZM89.8107 3.59978L90.0111 2.62007C89.3372 2.48223 88.5455 2.41978 87.6507 2.41978V3.41978V4.41978C88.4626 4.41978 89.1108 4.47733 89.6103 4.5795L89.8107 3.59978ZM81.2307 13.0398V14.0398H94.0307V13.0398V12.0398H81.2307V13.0398ZM94.0307 13.0398H93.0307V19.3598H94.0307H95.0307V13.0398H94.0307ZM94.0307 19.3598V18.3598H81.2307V19.3598V20.3598H94.0307V19.3598ZM81.2307 19.3598H82.2307V13.0398H81.2307H80.2307V19.3598H81.2307ZM91.4307 15.1398V14.1398H83.8307V15.1398V16.1398H91.4307V15.1398ZM83.8307 15.1398H82.8307V17.2598H83.8307H84.8307V15.1398H83.8307ZM83.8307 17.2598V18.2598H91.4307V17.2598V16.2598H83.8307V17.2598ZM91.4307 17.2598H92.4307V15.1398H91.4307H90.4307V17.2598H91.4307ZM79.2707 9.65978V10.6598H96.0307V9.65978V8.65978H79.2707V9.65978ZM96.0307 9.65978H95.0307V11.7398H96.0307H97.0307V9.65978H96.0307ZM96.0307 11.7398V10.7398H79.2707V11.7398V12.7398H96.0307V11.7398ZM79.2707 11.7398H80.2707V9.65978H79.2707H78.2707V11.7398H79.2707Z" fill="#FF5FA2" mask="url(#path-1-outside-1_974_465)"/>
</svg>
