<svg width="24" height="24" viewBox="0 0 24 24" fill="none" xmlns="http://www.w3.org/2000/svg">
<mask id="mask0_1108_376" style="mask-type:alpha" maskUnits="userSpaceOnUse" x="-1" y="-1" width="26" height="26">
<rect x="-0.5" y="-0.5" width="25" height="25" fill="#D9D9D9" stroke="white"/>
</mask>
<g mask="url(#mask0_1108_376)">
<path d="M8.09961 2.5C8.45785 2.5 8.78139 2.62588 9.05176 2.85938C9.31103 3.08333 9.48495 3.36895 9.54102 3.70898H9.54199L10.1914 7.20898L10.1943 7.22363L10.1963 7.23828C10.2346 7.54478 10.2299 7.83988 10.1572 8.10645C10.0845 8.37299 9.94922 8.60837 9.75391 8.80371L9.75293 8.80273L7.59668 10.9814C7.87535 11.4581 8.1932 11.9237 8.55371 12.376C8.88696 12.794 9.24564 13.2012 9.62988 13.5977L10.0283 13.9961C10.5307 14.4985 11.0572 14.9647 11.6074 15.3936C12.0566 15.7437 12.5292 16.0673 13.0225 16.3691L15.0967 14.2969C15.3141 14.0794 15.5854 13.9294 15.8896 13.835C16.1965 13.7398 16.5086 13.7104 16.8203 13.7549L16.835 13.7568L16.8496 13.7598L20.2998 14.46L20.3184 14.4639L20.3369 14.4688C20.6592 14.5608 20.9371 14.7339 21.1543 14.9873C21.3766 15.2467 21.5 15.5564 21.5 15.9004V19.9502C21.5 20.3738 21.3536 20.7539 21.0537 21.0537C20.7539 21.3536 20.3738 21.5 19.9502 21.5C17.7918 21.5 15.6643 21.0287 13.5713 20.0938C11.479 19.1591 9.57838 17.8362 7.87109 16.1289C6.16381 14.4216 4.84091 12.521 3.90625 10.4287C2.97129 8.33573 2.5 6.20815 2.5 4.0498C2.50005 3.6262 2.64644 3.24614 2.94629 2.94629C3.24614 2.64644 3.6262 2.50005 4.0498 2.5H8.09961ZM15.8662 17.7646C16.2674 17.9111 16.6718 18.0383 17.082 18.1396C17.5528 18.2559 18.0257 18.3414 18.5 18.3984V17.1582L16.8145 16.8174L15.8662 17.7646ZM16.5 2.5C17.4956 2.5 18.4911 2.68293 19.4834 3.04297C20.4758 3.40312 21.4162 3.92389 22.3037 4.60254L22.7578 4.9502L22.3535 5.35352L16.499 11.208L16.1455 10.8525L10.6211 5.30273L10.2178 4.89746L10.6729 4.55176C11.5459 3.88826 12.4834 3.37956 13.4844 3.02832C14.4844 2.67744 15.4903 2.5 16.5 2.5ZM5.59863 5.5C5.67023 5.97596 5.75812 6.44766 5.86328 6.91504C5.95318 7.31459 6.07028 7.71094 6.21094 8.10547L7.13574 7.18066L6.83203 5.5H5.59863ZM16.5 5.5C16.0773 5.5 15.698 5.53501 15.3604 5.60254C15.299 5.61481 15.2393 5.62874 15.1807 5.64258L16.5 6.94629L17.8125 5.64844C17.7481 5.63232 17.6821 5.61611 17.6143 5.60254C17.2755 5.53481 16.9046 5.5 16.5 5.5Z" fill="black" stroke="white"/>
</g>
</svg>
