<svg width="18" height="23" viewBox="0 0 18 23" fill="none" xmlns="http://www.w3.org/2000/svg">
<path d="M9 0.5C10.5155 0.5 11.8215 1.04026 12.8906 2.10938C13.9597 3.17849 14.5 4.48454 14.5 6V7.5H15C15.6837 7.5 16.2809 7.74969 16.7656 8.23438C17.2503 8.71906 17.5 9.31634 17.5 10V20C17.5 20.6837 17.2503 21.2809 16.7656 21.7656C16.2809 22.2503 15.6837 22.5 15 22.5H3C2.31634 22.5 1.71906 22.2503 1.23438 21.7656C0.749688 21.2809 0.5 20.6837 0.5 20V10C0.5 9.31634 0.749688 8.71906 1.23438 8.23438C1.71906 7.74969 2.31634 7.5 3 7.5H3.5V6C3.5 4.48454 4.04026 3.17849 5.10938 2.10938C6.17849 1.04026 7.48454 0.5 9 0.5ZM3.5 19.5H14.5V10.5H3.5V19.5ZM9 12.5C9.68366 12.5 10.2809 12.7497 10.7656 13.2344C11.2503 13.7191 11.5 14.3163 11.5 15C11.5 15.6837 11.2503 16.2809 10.7656 16.7656C10.2809 17.2503 9.68366 17.5 9 17.5C8.31634 17.5 7.71906 17.2503 7.23438 16.7656C6.74969 16.2809 6.5 15.6837 6.5 15C6.5 14.3163 6.74969 13.7191 7.23438 13.2344C7.71906 12.7497 8.31634 12.5 9 12.5ZM9 3.5C8.29776 3.5 7.71702 3.74002 7.22852 4.22852C6.74002 4.71702 6.5 5.29776 6.5 6V7.5H11.5V6C11.5 5.29776 11.26 4.71702 10.7715 4.22852C10.283 3.74002 9.70224 3.5 9 3.5Z" fill="black" stroke="white"/>
</svg>
