<svg width="371" height="262" viewBox="0 0 371 262" fill="none" xmlns="http://www.w3.org/2000/svg">
<mask id="path-1-inside-1_28_64" fill="white">
<path fill-rule="evenodd" clip-rule="evenodd" d="M356.805 0C364.537 7.65481e-07 370.805 6.26801 370.805 14V177.25C370.805 200.446 352 219.25 328.805 219.25H107.84V237.07C107.84 250.325 97.0946 261.07 83.8398 261.07H24C10.7454 261.07 6.6051e-05 250.325 0 237.07V73.5938C0.000212613 50.3981 18.8044 31.594 42 31.5938H316.434V14C316.434 6.26818 322.701 0.00026377 330.433 0H356.805Z"/>
</mask>
<path fill-rule="evenodd" clip-rule="evenodd" d="M356.805 0C364.537 7.65481e-07 370.805 6.26801 370.805 14V177.25C370.805 200.446 352 219.25 328.805 219.25H107.84V237.07C107.84 250.325 97.0946 261.07 83.8398 261.07H24C10.7454 261.07 6.6051e-05 250.325 0 237.07V73.5938C0.000212613 50.3981 18.8044 31.594 42 31.5938H316.434V14C316.434 6.26818 322.701 0.00026377 330.433 0H356.805Z" fill="#0B0B0B"/>
<path fill-rule="evenodd" clip-rule="evenodd" d="M356.805 0V-2V0ZM370.805 14H372.805H370.805ZM370.805 177.25H372.805H370.805ZM328.805 219.25V221.25H328.805L328.805 219.25ZM107.84 219.25V217.25H105.84V219.25H107.84ZM107.84 237.07L109.84 237.07V237.07H107.84ZM24 261.07L24 263.07H24V261.07ZM0 237.07H-2V237.07L0 237.07ZM0 73.5938L-2 73.5937V73.5938H0ZM42 31.5938V29.5938H42L42 31.5938ZM316.434 31.5938V33.5938H318.434V31.5938H316.434ZM330.433 0V-2H330.433L330.433 0ZM356.805 0V2C363.432 2 368.805 7.37258 368.805 14H370.805H372.805C372.805 5.16344 365.641 -2 356.805 -2V0ZM370.805 14H368.805V177.25H370.805H372.805V14H370.805ZM370.805 177.25H368.805C368.805 199.341 350.896 217.25 328.805 217.25L328.805 219.25L328.805 221.25C353.105 221.25 372.805 201.55 372.805 177.25H370.805ZM328.805 219.25V217.25H107.84V219.25V221.25H328.805V219.25ZM107.84 219.25H105.84V237.07H107.84H109.84V219.25H107.84ZM107.84 237.07L105.84 237.07C105.84 249.221 95.9901 259.07 83.8398 259.07V261.07V263.07C98.1992 263.07 109.84 251.43 109.84 237.07L107.84 237.07ZM83.8398 261.07V259.07H24V261.07V263.07H83.8398V261.07ZM24 261.07L24 259.07C11.85 259.07 2.00006 249.22 2 237.07L0 237.07L-2 237.07C-1.99993 251.43 9.64088 263.07 24 263.07L24 261.07ZM0 237.07H2V73.5938H0H-2V237.07H0ZM0 73.5938L2 73.5938C2.0002 51.5027 19.909 33.594 42 33.5938L42 31.5938L42 29.5938C17.6998 29.594 -1.99978 49.2936 -2 73.5937L0 73.5938ZM42 31.5938V33.5938H316.434V31.5938V29.5938H42V31.5938ZM316.434 31.5938H318.434V14H316.434H314.434V31.5938H316.434ZM316.434 14H318.434C318.434 7.37263 323.806 2.00023 330.433 2L330.433 0L330.433 -2C321.596 -1.9997 314.434 5.16372 314.434 14H316.434ZM330.433 0V2H356.805V0V-2H330.433V0Z" fill="white" mask="url(#path-1-inside-1_28_64)"/>
</svg>
