<svg width="83" height="82" viewBox="0 0 83 82" fill="none" xmlns="http://www.w3.org/2000/svg">
<path d="M12.5283 10.6439C15.3307 7.99208 19.4357 6.71543 23.662 7.93276C27.8882 9.15022 32.3268 12.8905 35.7021 20.4552L36.6582 20.228C36.2696 11.9151 38.5459 6.5631 41.7699 3.57225C44.9936 0.581813 49.2337 -0.115856 52.9411 1.00585C56.6489 2.1279 59.8095 5.06535 60.8689 9.34197C61.9278 13.6175 60.9067 19.3237 56.0528 25.9962L56.7253 26.7125C63.7011 22.2807 69.4663 21.6117 73.6712 22.9271C77.8768 24.2429 80.6125 27.5696 81.5059 31.3326C82.3992 35.0953 81.447 39.2788 78.2784 42.3101C75.1099 45.3413 69.6533 47.2853 61.423 46.3943L61.1387 47.3356C68.5538 51.1717 72.0793 55.8229 73.0849 60.1055C74.0901 64.3869 72.6015 68.3912 69.8018 71.0187C67.0019 73.6463 62.8984 74.8896 58.6712 73.6436C54.4438 72.3974 50.0053 68.6325 46.6299 61.0672L45.6737 61.2944C46.0625 69.6083 43.7973 74.9738 40.5861 77.9798C37.3756 80.9852 33.1525 81.6986 29.4579 80.5889C25.7631 79.479 22.6082 76.5487 21.5403 72.262C20.4726 67.9758 21.472 62.2437 26.2813 55.5228L25.6024 54.8126C18.6223 59.3382 12.8552 60.0764 8.65072 58.8064C4.44691 57.5365 1.71214 54.2342 0.818907 50.4722C-0.0743799 46.7098 0.877654 42.5002 4.05051 39.4208C7.22282 36.3421 12.6835 34.3307 20.9151 35.129L21.1891 34.1853C13.7733 30.4428 10.2482 25.8387 9.24269 21.5756C8.23738 17.3127 9.72599 13.2958 12.5283 10.6439ZM37.4381 37.0145C35.313 39.0256 35.2288 42.3435 37.2442 44.4732C39.2352 46.5769 42.7349 46.918 44.8848 44.8835C47.01 42.8721 47.1029 39.1802 45.0877 37.0506C43.0488 34.8961 39.5378 35.0277 37.4381 37.0145Z" fill="#FFC4D1" stroke="black"/>
</svg>
