<svg width="56" height="62" viewBox="0 0 56 62" fill="none" xmlns="http://www.w3.org/2000/svg">
<path d="M1.62613 15.6502C3.02007 13.2385 5.59744 11.5121 8.77186 11.4854C11.9457 11.4588 15.8118 13.1333 19.7474 17.7254L20.5991 17.2353C18.5979 11.4979 19.0863 7.30406 20.7016 4.57231C22.3168 1.84096 25.1055 0.486264 27.9021 0.50011C30.6991 0.514019 33.4884 1.89627 35.1007 4.63718C36.7125 7.37735 37.1936 11.5583 35.1845 17.2375L36.0331 17.7325C39.9931 13.1804 43.8702 11.5321 47.0498 11.5775C50.2301 11.623 52.807 13.3615 54.1993 15.782C55.5915 18.2024 55.7923 21.2912 54.2238 24.0393C52.6553 26.7875 49.2667 29.2778 43.321 30.3661L43.3172 31.3485C49.3051 32.4911 52.714 35.0082 54.2903 37.7643C55.8659 40.5193 55.6593 43.5935 54.2627 45.9869C52.8659 48.3805 50.2841 50.0846 47.1031 50.0917C43.922 50.0988 40.0504 48.4061 36.1146 43.8138L35.2628 44.3039C37.2642 50.0419 36.786 54.2433 35.1826 56.9831C33.5795 59.722 30.8057 61.0837 28.0211 61.0756C25.2362 61.0673 22.4519 59.689 20.8314 56.9425C19.2111 54.1963 18.7107 50.0018 20.6785 44.2978L19.8255 43.8104C15.8815 48.4298 12.0159 50.1254 8.84643 50.1112C5.67771 50.0969 3.10765 48.3756 1.71583 45.9559C0.324024 43.536 0.117872 40.4291 1.68004 37.6459C3.2419 34.8633 6.61936 32.3251 12.5463 31.1716L12.5392 30.1885C6.57059 29.1117 3.17255 26.6284 1.60076 23.8865C0.0292529 21.1448 0.232459 18.0617 1.62613 15.6502ZM24.4118 28.8483C23.3015 30.7698 23.9579 33.2003 25.8825 34.3128C27.7763 35.4074 30.3928 34.9081 31.5207 32.9572C32.6315 31.0353 31.903 28.3392 29.9782 27.2267C28.0237 26.0972 25.5048 26.9572 24.4118 28.8483Z" fill="black" stroke="black"/>
</svg>
