<svg width="61" height="82" viewBox="0 0 61 82" fill="none" xmlns="http://www.w3.org/2000/svg">
<path d="M12.872 11.0068C15.5556 8.46736 19.4801 7.24821 23.5238 8.41295C27.5667 9.57761 31.9099 13.1834 35.2454 20.6586L37.1576 20.2043C36.7735 11.988 39.0263 6.79928 42.11 3.93853C45.1933 1.07834 49.2455 0.409265 52.7966 1.4838C56.3486 2.55866 59.3688 5.3689 60.3827 9.46165C61.396 13.5525 60.4446 19.1094 55.6485 25.7023L56.9934 27.1348C63.8863 22.7558 69.4984 22.1442 73.522 23.4029C77.5469 24.662 80.1634 27.8432 81.0192 31.4474C81.8749 35.0515 80.963 39.0496 77.9326 41.9487C74.9023 44.8476 69.6102 46.7773 61.4768 45.8968L60.9095 47.7795C68.2395 51.5716 71.6367 56.122 72.5988 60.2197C73.5603 64.3147 72.1387 68.1393 69.4603 70.6533C66.7811 73.1678 62.8588 74.3562 58.8129 73.1637C54.7669 71.971 50.4223 68.3396 47.0866 60.8633L45.1743 61.3177C45.5586 69.5354 43.3168 74.7384 40.2445 77.6144C37.1735 80.4892 33.1386 81.1721 29.6017 80.1097C26.0642 79.0471 23.0482 76.2452 22.0258 72.1411C21.0036 68.0381 21.9356 62.4554 26.6877 55.8142L25.3308 54.3931C18.4318 58.8662 12.8174 59.5418 8.79587 58.3273C4.77567 57.1129 2.1603 53.9587 1.30497 50.3562C0.4496 46.7531 1.36089 42.7278 4.39844 39.7797C7.43497 36.8326 12.733 34.8374 20.8669 35.6262L21.4142 33.7381C14.0847 30.0392 10.6908 25.5367 9.72942 21.4603C8.76822 17.3845 10.1885 13.5463 12.872 11.0068ZM37.0944 36.6511C34.7675 38.8531 34.677 42.4876 36.881 44.8166C39.0362 47.0938 42.8519 47.4954 45.2285 45.2464C47.5555 43.044 47.6547 39.0356 45.4508 36.7067C43.1997 34.3279 39.3701 34.4977 37.0944 36.6511Z" fill="black" stroke="#FFE2E9" stroke-width="2"/>
</svg>
