<svg width="41" height="60" viewBox="0 0 41 60" fill="none" xmlns="http://www.w3.org/2000/svg">
<path d="M31.7708 9.4253C43.0271 21.0556 42.7234 39.6086 31.0932 50.8649C19.4629 62.1211 0.910679 61.8181 -10.3457 50.188C-21.6021 38.5579 -21.2996 20.0049 -9.66953 8.74838C1.96071 -2.50801 20.5144 -2.20494 31.7708 9.4253ZM-0.338103 15.5322C-7.546 22.5084 -7.73384 34.0074 -0.757627 41.2153C6.21878 48.4232 17.7176 48.6109 24.9254 41.6348L25.2847 41.2871L20.9041 36.761L20.5448 37.1087C15.8367 41.6655 8.32551 41.5429 3.76847 36.8347C-0.788384 32.1265 -0.665687 24.6151 4.0425 20.0583L4.40178 19.7106L0.0211776 15.1845L-0.338103 15.5322ZM16.4906 13.153C14.348 10.9393 10.8165 10.8818 8.60296 13.0242C6.38944 15.1668 6.33161 18.6981 8.47412 20.9118C10.6165 23.1251 14.1481 23.1829 16.3617 21.0406C18.5752 18.8983 18.6328 15.3666 16.4906 13.153ZM27.546 24.5756C25.4036 22.3621 21.8719 22.3044 19.6584 24.4468C17.4449 26.5894 17.3872 30.1209 19.5295 32.3344C21.6721 34.5479 25.2035 34.6055 27.4172 32.4632C29.6307 30.3209 29.6884 26.7894 27.546 24.5756Z" fill="#FFC4D1" stroke="black"/>
</svg>
