<svg width="62" height="62" viewBox="0 0 62 62" fill="none" xmlns="http://www.w3.org/2000/svg">
<path d="M43.8476 3.51145C58.8712 10.7648 65.1701 28.8238 57.9168 43.8474C50.6634 58.8711 32.6046 65.17 17.5809 57.9166C2.55732 50.6632 -3.74175 32.6044 3.51165 17.5807C10.765 2.55714 28.824 -3.74186 43.8476 3.51145ZM14.9715 20.8405C10.4821 30.1393 14.3816 41.317 23.6803 45.8064C32.9793 50.2959 44.1563 46.3971 48.6458 37.0984L48.8632 36.6481L43.0466 33.8399L42.8292 34.2902C39.8907 40.3764 32.5751 42.9284 26.4886 39.9898C20.4022 37.0514 17.8505 29.7355 20.7889 23.6492L21.0063 23.1989L15.1889 20.3902L14.9715 20.8405ZM30.3811 12.5702C27.5304 11.194 24.104 12.3893 22.7278 15.2397C21.3517 18.0904 22.5467 21.5167 25.3973 22.893C28.2477 24.2692 31.6742 23.0741 33.0506 20.2235C34.4268 17.3731 33.2316 13.9464 30.3811 12.5702ZM45.1292 19.6906C42.2787 18.3144 38.8521 19.5096 37.4759 22.3601C36.0998 25.2107 37.295 28.6372 40.1454 30.0133C42.996 31.3896 46.4223 30.1944 47.7987 27.3439C49.1749 24.4934 47.9799 21.0669 45.1292 19.6906Z" fill="black" stroke="black"/>
</svg>
