<svg width="100" height="96" viewBox="0 0 100 96" fill="none" xmlns="http://www.w3.org/2000/svg">
<path d="M85.6296 14.5425C104.41 33.0751 103.641 62.905 83.8835 81.1688C64.1259 99.4326 32.8853 99.1922 14.1051 80.6596C-4.67474 62.127 -3.9056 32.2978 15.852 14.034C35.6094 -4.2296 66.8496 -3.98974 85.6296 14.5425ZM31.8068 25.1749C19.7863 36.2867 19.3016 54.4568 30.7534 65.7575C42.2054 77.0583 61.2345 77.1883 73.255 66.0767L73.6221 65.7373L66.7997 59.0048L66.4326 59.3442C58.352 66.8139 45.5826 66.7115 37.9108 59.1412C30.2394 51.5709 30.5486 39.3772 38.6293 31.9074L38.9964 31.568L32.174 24.8355L31.8068 25.1749ZM59.5352 21.1467C56.0982 17.7551 50.3959 17.7224 46.8003 21.0462C43.2046 24.3702 43.0528 29.8144 46.4896 33.2061C49.9263 36.5975 55.6286 36.6305 59.2245 33.3066C62.8201 29.9829 62.972 24.5381 59.5352 21.1467ZM77.8664 39.2362C74.4297 35.8451 68.7277 35.8127 65.1322 39.1364C61.5365 42.4604 61.3843 47.9042 64.8208 51.2956C68.2577 54.6873 73.9598 54.7201 77.5557 51.3961C81.1513 48.0724 81.3034 42.628 77.8664 39.2362Z" fill="#FFC4D1" stroke="black"/>
</svg>
