<svg width="33" height="33" viewBox="0 0 33 33" fill="none" xmlns="http://www.w3.org/2000/svg">
<path d="M22.0226 1.49117C25.6698 2.92062 27.4674 7.03577 26.0382 10.683C25.7046 11.5344 26.1244 12.4955 26.9759 12.8294C30.6233 14.2589 32.4216 18.3751 30.9921 22.0225C29.5626 25.6698 25.4467 27.4672 21.7994 26.0378C20.9479 25.7042 19.9868 26.1241 19.653 26.9755C18.2235 30.6228 14.1082 32.4214 10.4608 30.992C6.81338 29.5625 5.01513 25.4463 6.4446 21.7989C6.77823 20.9472 6.35828 19.9861 5.50691 19.6525C1.85986 18.2229 0.0619309 14.1079 1.49129 10.4607C2.92071 6.8134 7.03621 5.01497 10.6835 6.44413C11.5351 6.77789 12.4961 6.35806 12.8299 5.50643C14.2595 1.85934 18.3754 0.061752 22.0226 1.49117Z" fill="black" stroke="#FFE2E9" stroke-width="2"/>
</svg>
