<svg width="393" height="11" viewBox="0 0 393 11" fill="none" xmlns="http://www.w3.org/2000/svg">
<path d="M5.43385 3.43198C6.38718 3.53598 7.14985 3.70498 7.72185 3.93898C8.30251 4.17298 8.72285 4.48065 8.98285 4.86198C9.24285 5.24331 9.37285 5.71998 9.37285 6.29198C9.37285 6.91598 9.16918 7.46198 8.76185 7.92998C8.36318 8.38931 7.80851 8.74465 7.09785 8.99598C6.38718 9.23865 5.57685 9.35998 4.66685 9.35998C3.65285 9.35998 2.79485 9.23431 2.09285 8.98298C1.39085 8.73165 0.866514 8.39798 0.519848 7.98198C0.173181 7.55731 -0.000152308 7.09365 -0.000152308 6.59098C-0.000152308 6.50431 0.0258477 6.43498 0.0778477 6.38298C0.138514 6.33098 0.212181 6.30498 0.298848 6.30498H2.96385C3.14585 6.30498 3.29318 6.36131 3.40585 6.47398C3.55318 6.61265 3.71785 6.70798 3.89985 6.75998C4.08185 6.80331 4.33751 6.82498 4.66685 6.82498C5.49018 6.82498 5.90185 6.69931 5.90185 6.44798C5.90185 6.34398 5.84551 6.25731 5.73285 6.18798C5.62885 6.10998 5.43818 6.04498 5.16085 5.99298C4.89218 5.93231 4.49351 5.87165 3.96485 5.81098C2.77751 5.67231 1.86751 5.37765 1.23485 4.92698C0.602181 4.46765 0.285848 3.82198 0.285848 2.98998C0.285848 2.40065 0.463514 1.88065 0.818848 1.42998C1.17418 0.979314 1.67685 0.628313 2.32685 0.37698C2.98551 0.125647 3.74818 -2.00272e-05 4.61485 -2.00272e-05C5.51618 -2.00272e-05 6.30485 0.14298 6.98085 0.42898C7.65685 0.706313 8.17251 1.05298 8.52785 1.46898C8.88318 1.88498 9.06085 2.29231 9.06085 2.69098C9.06085 2.77765 9.03052 2.84698 8.96985 2.89898C8.91785 2.95098 8.84418 2.97698 8.74885 2.97698H5.95385C5.80651 2.97698 5.67218 2.92498 5.55085 2.82098C5.45551 2.73431 5.34285 2.66498 5.21285 2.61298C5.08285 2.56098 4.88351 2.53498 4.61485 2.53498C4.03418 2.53498 3.74385 2.65631 3.74385 2.89898C3.74385 3.02898 3.85651 3.13298 4.08185 3.21098C4.30718 3.28031 4.75785 3.35398 5.43385 3.43198ZM20.2488 0.12998C20.3441 0.12998 20.4264 0.164647 20.4958 0.23398C20.5651 0.303314 20.5998 0.385647 20.5998 0.48098V2.57398C20.5998 2.66931 20.5651 2.75165 20.4958 2.82098C20.4264 2.89031 20.3441 2.92498 20.2488 2.92498H17.4538V8.87898C17.4538 8.97431 17.4191 9.05665 17.3498 9.12598C17.2804 9.19531 17.1981 9.22998 17.1028 9.22998H14.4248C14.3294 9.22998 14.2471 9.19531 14.1778 9.12598C14.1084 9.05665 14.0738 8.97431 14.0738 8.87898V2.92498H11.2788C11.1834 2.92498 11.1011 2.89031 11.0318 2.82098C10.9624 2.75165 10.9278 2.66931 10.9278 2.57398V0.48098C10.9278 0.385647 10.9624 0.303314 11.0318 0.23398C11.1011 0.164647 11.1834 0.12998 11.2788 0.12998H20.2488ZM31.0207 6.69498C31.116 6.69498 31.1984 6.72965 31.2677 6.79898C31.337 6.86831 31.3717 6.95065 31.3717 7.04598V8.87898C31.3717 8.97431 31.337 9.05665 31.2677 9.12598C31.1984 9.19531 31.116 9.22998 31.0207 9.22998H22.8047C22.7094 9.22998 22.627 9.19531 22.5577 9.12598C22.4884 9.05665 22.4537 8.97431 22.4537 8.87898V0.48098C22.4537 0.385647 22.4884 0.303314 22.5577 0.23398C22.627 0.164647 22.7094 0.12998 22.8047 0.12998H30.8907C30.986 0.12998 31.0684 0.164647 31.1377 0.23398C31.207 0.303314 31.2417 0.385647 31.2417 0.48098V2.31398C31.2417 2.40931 31.207 2.49165 31.1377 2.56098C31.0684 2.63031 30.986 2.66498 30.8907 2.66498H25.8337V3.48398H30.1757C30.271 3.48398 30.3534 3.51865 30.4227 3.58798C30.492 3.65731 30.5267 3.73965 30.5267 3.83498V5.52498C30.5267 5.62031 30.492 5.70265 30.4227 5.77198C30.3534 5.84131 30.271 5.87598 30.1757 5.87598H25.8337V6.69498H31.0207ZM39.1796 0.12998C39.9943 0.12998 40.7049 0.268647 41.3116 0.54598C41.9183 0.823313 42.3819 1.20031 42.7026 1.67698C43.0233 2.15365 43.1836 2.68665 43.1836 3.27598C43.1836 4.24665 42.8803 5.00931 42.2736 5.56398C41.6669 6.10998 40.6356 6.38298 39.1796 6.38298H37.4636V8.87898C37.4636 8.97431 37.4289 9.05665 37.3596 9.12598C37.2903 9.19531 37.2079 9.22998 37.1126 9.22998H34.3176C34.2223 9.22998 34.1399 9.19531 34.0706 9.12598C34.0013 9.05665 33.9666 8.97431 33.9666 8.87898V0.48098C33.9666 0.385647 34.0013 0.303314 34.0706 0.23398C34.1399 0.164647 34.2223 0.12998 34.3176 0.12998H39.1796ZM39.1276 3.97798C39.3356 3.97798 39.5003 3.91731 39.6216 3.79598C39.7429 3.66598 39.8036 3.49698 39.8036 3.28898C39.8036 3.07231 39.7429 2.89465 39.6216 2.75598C39.5003 2.61731 39.3356 2.54798 39.1276 2.54798H37.4766V3.97798H39.1276ZM63.6615 4.48498C63.9995 4.58898 64.2898 4.81865 64.5325 5.17398C64.7751 5.52065 64.8965 5.91931 64.8965 6.36998C64.8965 7.33198 64.5845 8.05131 63.9605 8.52798C63.3365 8.99598 62.4265 9.22998 61.2305 9.22998H55.8745C55.7791 9.22998 55.6968 9.19531 55.6275 9.12598C55.5581 9.05665 55.5235 8.97431 55.5235 8.87898V0.48098C55.5235 0.385647 55.5581 0.303314 55.6275 0.23398C55.6968 0.164647 55.7791 0.12998 55.8745 0.12998H61.1005C62.3311 0.12998 63.2368 0.355313 63.8175 0.80598C64.4068 1.24798 64.7015 1.91965 64.7015 2.82098V2.85998C64.7015 3.27598 64.5888 3.63131 64.3635 3.92598C64.1381 4.22065 63.9041 4.40698 63.6615 4.48498ZM61.1785 2.93798C61.1785 2.78198 61.1308 2.64765 61.0355 2.53498C60.9488 2.42231 60.8188 2.36598 60.6455 2.36598H58.9035V3.54898H60.6455C60.8188 3.54898 60.9488 3.48831 61.0355 3.36698C61.1308 3.23698 61.1785 3.09398 61.1785 2.93798ZM60.7885 6.99398C60.9878 6.99398 61.1351 6.92898 61.2305 6.79898C61.3345 6.66031 61.3865 6.50865 61.3865 6.34398V6.33098C61.3865 6.16631 61.3301 6.02331 61.2175 5.90198C61.1135 5.78065 60.9705 5.71998 60.7885 5.71998H58.9035V6.99398H60.7885ZM75.7464 0.12998C75.8244 0.12998 75.8894 0.160313 75.9414 0.22098C76.002 0.27298 76.0324 0.333647 76.0324 0.40298C76.0324 0.45498 76.0194 0.50698 75.9934 0.55898L72.7174 5.97998V8.87898C72.7174 8.97431 72.6827 9.05665 72.6134 9.12598C72.544 9.19531 72.4617 9.22998 72.3664 9.22998H69.5974C69.502 9.22998 69.4197 9.19531 69.3504 9.12598C69.281 9.05665 69.2464 8.97431 69.2464 8.87898V5.97998L65.9834 0.55898C65.9574 0.50698 65.9444 0.459313 65.9444 0.41598C65.9444 0.33798 65.9704 0.27298 66.0224 0.22098C66.083 0.160313 66.1524 0.12998 66.2304 0.12998H68.9734C69.216 0.12998 69.3937 0.229647 69.5064 0.42898L70.9754 3.00298L72.4834 0.45498C72.6134 0.238313 72.7954 0.12998 73.0294 0.12998H75.7464ZM93.7932 3.43198C94.7466 3.53598 95.5092 3.70498 96.0812 3.93898C96.6619 4.17298 97.0822 4.48065 97.3422 4.86198C97.6022 5.24331 97.7322 5.71998 97.7322 6.29198C97.7322 6.91598 97.5286 7.46198 97.1212 7.92998C96.7226 8.38931 96.1679 8.74465 95.4572 8.99598C94.7466 9.23865 93.9362 9.35998 93.0262 9.35998C92.0122 9.35998 91.1542 9.23431 90.4522 8.98298C89.7502 8.73165 89.2259 8.39798 88.8792 7.98198C88.5326 7.55731 88.3592 7.09365 88.3592 6.59098C88.3592 6.50431 88.3852 6.43498 88.4372 6.38298C88.4979 6.33098 88.5716 6.30498 88.6582 6.30498H91.3232C91.5052 6.30498 91.6526 6.36131 91.7652 6.47398C91.9126 6.61265 92.0772 6.70798 92.2592 6.75998C92.4412 6.80331 92.6969 6.82498 93.0262 6.82498C93.8496 6.82498 94.2612 6.69931 94.2612 6.44798C94.2612 6.34398 94.2049 6.25731 94.0922 6.18798C93.9882 6.10998 93.7976 6.04498 93.5202 5.99298C93.2516 5.93231 92.8529 5.87165 92.3242 5.81098C91.1369 5.67231 90.2269 5.37765 89.5942 4.92698C88.9616 4.46765 88.6452 3.82198 88.6452 2.98998C88.6452 2.40065 88.8229 1.88065 89.1782 1.42998C89.5336 0.979314 90.0362 0.628313 90.6862 0.37698C91.3449 0.125647 92.1076 -2.00272e-05 92.9742 -2.00272e-05C93.8756 -2.00272e-05 94.6642 0.14298 95.3402 0.42898C96.0162 0.706313 96.5319 1.05298 96.8872 1.46898C97.2426 1.88498 97.4202 2.29231 97.4202 2.69098C97.4202 2.77765 97.3899 2.84698 97.3292 2.89898C97.2772 2.95098 97.2036 2.97698 97.1082 2.97698H94.3132C94.1659 2.97698 94.0316 2.92498 93.9102 2.82098C93.8149 2.73431 93.7022 2.66498 93.5722 2.61298C93.4422 2.56098 93.2429 2.53498 92.9742 2.53498C92.3936 2.53498 92.1032 2.65631 92.1032 2.89898C92.1032 3.02898 92.2159 3.13298 92.4412 3.21098C92.6666 3.28031 93.1172 3.35398 93.7932 3.43198ZM108.608 0.12998C108.703 0.12998 108.786 0.164647 108.855 0.23398C108.924 0.303314 108.959 0.385647 108.959 0.48098V2.57398C108.959 2.66931 108.924 2.75165 108.855 2.82098C108.786 2.89031 108.703 2.92498 108.608 2.92498H105.813V8.87898C105.813 8.97431 105.778 9.05665 105.709 9.12598C105.64 9.19531 105.557 9.22998 105.462 9.22998H102.784C102.689 9.22998 102.606 9.19531 102.537 9.12598C102.468 9.05665 102.433 8.97431 102.433 8.87898V2.92498H99.6381C99.5428 2.92498 99.4605 2.89031 99.3911 2.82098C99.3218 2.75165 99.2871 2.66931 99.2871 2.57398V0.48098C99.2871 0.385647 99.3218 0.303314 99.3911 0.23398C99.4605 0.164647 99.5428 0.12998 99.6381 0.12998H108.608ZM119.38 6.69498C119.475 6.69498 119.558 6.72965 119.627 6.79898C119.696 6.86831 119.731 6.95065 119.731 7.04598V8.87898C119.731 8.97431 119.696 9.05665 119.627 9.12598C119.558 9.19531 119.475 9.22998 119.38 9.22998H111.164C111.069 9.22998 110.986 9.19531 110.917 9.12598C110.848 9.05665 110.813 8.97431 110.813 8.87898V0.48098C110.813 0.385647 110.848 0.303314 110.917 0.23398C110.986 0.164647 111.069 0.12998 111.164 0.12998H119.25C119.345 0.12998 119.428 0.164647 119.497 0.23398C119.566 0.303314 119.601 0.385647 119.601 0.48098V2.31398C119.601 2.40931 119.566 2.49165 119.497 2.56098C119.428 2.63031 119.345 2.66498 119.25 2.66498H114.193V3.48398H118.535C118.63 3.48398 118.713 3.51865 118.782 3.58798C118.851 3.65731 118.886 3.73965 118.886 3.83498V5.52498C118.886 5.62031 118.851 5.70265 118.782 5.77198C118.713 5.84131 118.63 5.87598 118.535 5.87598H114.193V6.69498H119.38ZM127.539 0.12998C128.354 0.12998 129.064 0.268647 129.671 0.54598C130.278 0.823313 130.741 1.20031 131.062 1.67698C131.383 2.15365 131.543 2.68665 131.543 3.27598C131.543 4.24665 131.24 5.00931 130.633 5.56398C130.026 6.10998 128.995 6.38298 127.539 6.38298H125.823V8.87898C125.823 8.97431 125.788 9.05665 125.719 9.12598C125.65 9.19531 125.567 9.22998 125.472 9.22998H122.677C122.582 9.22998 122.499 9.19531 122.43 9.12598C122.361 9.05665 122.326 8.97431 122.326 8.87898V0.48098C122.326 0.385647 122.361 0.303314 122.43 0.23398C122.499 0.164647 122.582 0.12998 122.677 0.12998H127.539ZM127.487 3.97798C127.695 3.97798 127.86 3.91731 127.981 3.79598C128.102 3.66598 128.163 3.49698 128.163 3.28898C128.163 3.07231 128.102 2.89465 127.981 2.75598C127.86 2.61731 127.695 2.54798 127.487 2.54798H125.836V3.97798H127.487ZM135.854 7.00698C135.871 6.87698 135.936 6.75998 136.049 6.65598C136.17 6.55198 136.313 6.49998 136.478 6.49998H138.883C138.961 6.49998 139.026 6.53031 139.078 6.59098C139.139 6.64298 139.169 6.70798 139.169 6.78598C139.169 6.82065 139.165 6.85098 139.156 6.87698L137.921 10.01C137.878 10.114 137.804 10.2093 137.7 10.296C137.605 10.3826 137.479 10.426 137.323 10.426H135.659C135.581 10.426 135.512 10.3956 135.451 10.335C135.399 10.283 135.373 10.218 135.373 10.14V10.114L135.854 7.00698ZM164.106 0.12998C164.184 0.12998 164.249 0.160313 164.301 0.22098C164.361 0.27298 164.392 0.333647 164.392 0.40298C164.392 0.45498 164.379 0.50698 164.353 0.55898L161.077 5.97998V8.87898C161.077 8.97431 161.042 9.05665 160.973 9.12598C160.903 9.19531 160.821 9.22998 160.726 9.22998H157.957C157.861 9.22998 157.779 9.19531 157.71 9.12598C157.64 9.05665 157.606 8.97431 157.606 8.87898V5.97998L154.343 0.55898C154.317 0.50698 154.304 0.459313 154.304 0.41598C154.304 0.33798 154.33 0.27298 154.382 0.22098C154.442 0.160313 154.512 0.12998 154.59 0.12998H157.333C157.575 0.12998 157.753 0.229647 157.866 0.42898L159.335 3.00298L160.843 0.45498C160.973 0.238313 161.155 0.12998 161.389 0.12998H164.106ZM175.229 5.47298C175.229 6.79898 174.787 7.77831 173.903 8.41098C173.027 9.04365 171.857 9.35998 170.393 9.35998C168.928 9.35998 167.754 9.04365 166.87 8.41098C165.994 7.77831 165.557 6.79031 165.557 5.44698V3.91298C165.557 3.02898 165.765 2.29665 166.181 1.71598C166.605 1.12665 167.182 0.693313 167.91 0.41598C168.638 0.138647 169.465 -2.00272e-05 170.393 -2.00272e-05C171.32 -2.00272e-05 172.143 0.138647 172.863 0.41598C173.591 0.693313 174.167 1.12231 174.592 1.70298C175.016 2.28365 175.229 3.01165 175.229 3.88698V5.47298ZM169.067 5.71998C169.067 6.07531 169.184 6.34831 169.418 6.53898C169.66 6.72965 169.985 6.82498 170.393 6.82498C170.8 6.82498 171.121 6.72965 171.355 6.53898C171.597 6.33965 171.719 6.06231 171.719 5.70698V3.65298C171.719 3.29765 171.597 3.02465 171.355 2.83398C171.121 2.63465 170.8 2.53498 170.393 2.53498C169.985 2.53498 169.66 2.63031 169.418 2.82098C169.184 3.01165 169.067 3.28465 169.067 3.63998V5.71998ZM181.438 9.35998C179.982 9.35998 178.825 9.04365 177.967 8.41098C177.117 7.77831 176.693 6.79031 176.693 5.44698V0.48098C176.693 0.385647 176.727 0.303314 176.797 0.23398C176.866 0.164647 176.948 0.12998 177.044 0.12998H179.761C179.856 0.12998 179.938 0.164647 180.008 0.23398C180.077 0.303314 180.112 0.385647 180.112 0.48098V5.65498C180.112 6.01031 180.229 6.28331 180.463 6.47398C180.705 6.66465 181.03 6.75998 181.438 6.75998C181.845 6.75998 182.166 6.66465 182.4 6.47398C182.642 6.28331 182.764 6.01031 182.764 5.65498V0.48098C182.764 0.385647 182.798 0.303314 182.868 0.23398C182.937 0.164647 183.019 0.12998 183.115 0.12998H185.832C185.927 0.12998 186.009 0.164647 186.079 0.23398C186.148 0.303314 186.183 0.385647 186.183 0.48098V5.44698C186.183 6.79031 185.754 7.77831 184.896 8.41098C184.046 9.04365 182.894 9.35998 181.438 9.35998ZM191.066 0.50698C191.083 0.37698 191.148 0.25998 191.261 0.15598C191.382 0.0519801 191.525 -2.00272e-05 191.69 -2.00272e-05H194.095C194.173 -2.00272e-05 194.238 0.0303134 194.29 0.0909804C194.35 0.14298 194.381 0.20798 194.381 0.28598C194.381 0.320647 194.376 0.35098 194.368 0.37698L193.133 3.50998C193.089 3.61398 193.016 3.70931 192.912 3.79598C192.816 3.88265 192.691 3.92598 192.535 3.92598H190.871C190.793 3.92598 190.723 3.89998 190.663 3.84798C190.611 3.78731 190.585 3.71798 190.585 3.63998V3.61398L191.066 0.50698ZM208.688 8.82698C208.706 8.86165 208.714 8.90065 208.714 8.94398C208.714 9.02198 208.684 9.09131 208.623 9.15198C208.571 9.20398 208.506 9.22998 208.428 9.22998H205.477C205.356 9.22998 205.243 9.19965 205.139 9.13898C205.044 9.07831 204.975 9.00031 204.931 8.90498L203.787 6.33098H202.695V8.87898C202.695 8.97431 202.661 9.05665 202.591 9.12598C202.522 9.19531 202.44 9.22998 202.344 9.22998H199.536C199.441 9.22998 199.359 9.19531 199.289 9.12598C199.22 9.05665 199.185 8.97431 199.185 8.87898V0.48098C199.185 0.385647 199.22 0.303314 199.289 0.23398C199.359 0.164647 199.441 0.12998 199.536 0.12998H204.593C205.373 0.12998 206.054 0.255647 206.634 0.50698C207.224 0.758314 207.674 1.12231 207.986 1.59898C208.298 2.07565 208.454 2.63465 208.454 3.27598C208.454 4.45465 207.999 5.30831 207.089 5.83698L208.688 8.82698ZM204.32 3.92598C204.511 3.92598 204.658 3.86531 204.762 3.74398C204.866 3.61398 204.918 3.45365 204.918 3.26298C204.918 3.07231 204.866 2.90765 204.762 2.76898C204.667 2.62165 204.52 2.54798 204.32 2.54798H202.695V3.92598H204.32ZM218.784 6.69498C218.88 6.69498 218.962 6.72965 219.031 6.79898C219.101 6.86831 219.135 6.95065 219.135 7.04598V8.87898C219.135 8.97431 219.101 9.05665 219.031 9.12598C218.962 9.19531 218.88 9.22998 218.784 9.22998H210.568C210.473 9.22998 210.391 9.19531 210.321 9.12598C210.252 9.05665 210.217 8.97431 210.217 8.87898V0.48098C210.217 0.385647 210.252 0.303314 210.321 0.23398C210.391 0.164647 210.473 0.12998 210.568 0.12998H218.654C218.75 0.12998 218.832 0.164647 218.901 0.23398C218.971 0.303314 219.005 0.385647 219.005 0.48098V2.31398C219.005 2.40931 218.971 2.49165 218.901 2.56098C218.832 2.63031 218.75 2.66498 218.654 2.66498H213.597V3.48398H217.939C218.035 3.48398 218.117 3.51865 218.186 3.58798C218.256 3.65731 218.29 3.73965 218.29 3.83498V5.52498C218.29 5.62031 218.256 5.70265 218.186 5.77198C218.117 5.84131 218.035 5.87598 217.939 5.87598H213.597V6.69498H218.784ZM238.365 0.48098C238.495 0.24698 238.682 0.12998 238.924 0.12998H241.303C241.399 0.12998 241.481 0.164647 241.55 0.23398C241.62 0.303314 241.654 0.385647 241.654 0.48098V8.87898C241.654 8.97431 241.62 9.05665 241.55 9.12598C241.481 9.19531 241.399 9.22998 241.303 9.22998H238.95C238.855 9.22998 238.773 9.19531 238.703 9.12598C238.634 9.05665 238.599 8.97431 238.599 8.87898V4.84898L237.65 6.72098C237.624 6.78165 237.564 6.85098 237.468 6.92898C237.373 7.00698 237.252 7.04598 237.104 7.04598H236.22C236.073 7.04598 235.952 7.00698 235.856 6.92898C235.761 6.85098 235.7 6.78165 235.674 6.72098L234.725 4.84898V8.87898C234.725 8.97431 234.691 9.05665 234.621 9.12598C234.552 9.19531 234.47 9.22998 234.374 9.22998H232.021C231.926 9.22998 231.844 9.19531 231.774 9.12598C231.705 9.05665 231.67 8.97431 231.67 8.87898V0.48098C231.67 0.385647 231.705 0.303314 231.774 0.23398C231.844 0.164647 231.926 0.12998 232.021 0.12998H234.4C234.643 0.12998 234.829 0.24698 234.959 0.48098L236.662 3.60098L238.365 0.48098ZM252.543 5.47298C252.543 6.79898 252.101 7.77831 251.217 8.41098C250.342 9.04365 249.172 9.35998 247.707 9.35998C246.242 9.35998 245.068 9.04365 244.184 8.41098C243.309 7.77831 242.871 6.79031 242.871 5.44698V3.91298C242.871 3.02898 243.079 2.29665 243.495 1.71598C243.92 1.12665 244.496 0.693313 245.224 0.41598C245.952 0.138647 246.78 -2.00272e-05 247.707 -2.00272e-05C248.634 -2.00272e-05 249.458 0.138647 250.177 0.41598C250.905 0.693313 251.481 1.12231 251.906 1.70298C252.331 2.28365 252.543 3.01165 252.543 3.88698V5.47298ZM246.381 5.71998C246.381 6.07531 246.498 6.34831 246.732 6.53898C246.975 6.72965 247.3 6.82498 247.707 6.82498C248.114 6.82498 248.435 6.72965 248.669 6.53898C248.912 6.33965 249.033 6.06231 249.033 5.70698V3.65298C249.033 3.29765 248.912 3.02465 248.669 2.83398C248.435 2.63465 248.114 2.53498 247.707 2.53498C247.3 2.53498 246.975 2.63031 246.732 2.82098C246.498 3.01165 246.381 3.28465 246.381 3.63998V5.71998ZM263.575 0.12998C263.653 0.12998 263.718 0.160313 263.77 0.22098C263.831 0.27298 263.861 0.33798 263.861 0.41598L263.848 0.50698L260.858 8.80098C260.815 8.92231 260.745 9.02631 260.65 9.11298C260.555 9.19098 260.429 9.22998 260.273 9.22998H257.244C257.088 9.22998 256.962 9.19098 256.867 9.11298C256.772 9.02631 256.707 8.93531 256.672 8.83998L253.656 0.50698L253.643 0.41598C253.643 0.33798 253.669 0.27298 253.721 0.22098C253.782 0.160313 253.851 0.12998 253.929 0.12998H256.672C256.828 0.12998 256.954 0.177647 257.049 0.27298C257.153 0.359647 257.222 0.45498 257.257 0.55898L258.752 5.53798L260.247 0.55898C260.282 0.446314 260.347 0.346647 260.442 0.25998C260.537 0.173313 260.667 0.12998 260.832 0.12998H263.575ZM271.565 6.56498H273.918C274.013 6.56498 274.096 6.59965 274.165 6.66898C274.234 6.73831 274.269 6.82065 274.269 6.91598V8.87898C274.269 8.97431 274.234 9.05665 274.165 9.12598C274.096 9.19531 274.013 9.22998 273.918 9.22998H265.676C265.581 9.22998 265.498 9.19531 265.429 9.12598C265.36 9.05665 265.325 8.97431 265.325 8.87898V6.91598C265.325 6.82065 265.36 6.73831 265.429 6.66898C265.498 6.59965 265.581 6.56498 265.676 6.56498H268.055V2.79498H265.676C265.581 2.79498 265.498 2.76031 265.429 2.69098C265.36 2.62165 265.325 2.53931 265.325 2.44398V0.48098C265.325 0.385647 265.36 0.303314 265.429 0.23398C265.498 0.164647 265.581 0.12998 265.676 0.12998H273.918C274.013 0.12998 274.096 0.164647 274.165 0.23398C274.234 0.303314 274.269 0.385647 274.269 0.48098V2.44398C274.269 2.53931 274.234 2.62165 274.165 2.69098C274.096 2.76031 274.013 2.79498 273.918 2.79498H271.565V6.56498ZM284.911 0.12998C285.006 0.12998 285.089 0.164647 285.158 0.23398C285.227 0.303314 285.262 0.385647 285.262 0.48098V8.87898C285.262 8.97431 285.227 9.05665 285.158 9.12598C285.089 9.19531 285.006 9.22998 284.911 9.22998H282.818C282.61 9.22998 282.437 9.13898 282.298 8.95698L279.464 5.34298V8.87898C279.464 8.97431 279.429 9.05665 279.36 9.12598C279.291 9.19531 279.208 9.22998 279.113 9.22998H276.695C276.6 9.22998 276.517 9.19531 276.448 9.12598C276.379 9.05665 276.344 8.97431 276.344 8.87898V0.48098C276.344 0.385647 276.379 0.303314 276.448 0.23398C276.517 0.164647 276.6 0.12998 276.695 0.12998H278.801C279.009 0.12998 279.178 0.216647 279.308 0.38998L282.142 4.30298V0.48098C282.142 0.385647 282.177 0.303314 282.246 0.23398C282.315 0.164647 282.398 0.12998 282.493 0.12998H284.911ZM296.567 3.74398C296.662 3.74398 296.744 3.77865 296.814 3.84798C296.883 3.91731 296.918 3.99965 296.918 4.09498V5.47298C296.918 6.79031 296.467 7.76965 295.566 8.41098C294.673 9.04365 293.49 9.35998 292.017 9.35998C290.543 9.35998 289.356 9.04365 288.455 8.41098C287.562 7.76965 287.116 6.78165 287.116 5.44698V3.91298C287.116 3.02898 287.332 2.29665 287.766 1.71598C288.199 1.12665 288.784 0.693313 289.521 0.41598C290.257 0.138647 291.089 -2.00272e-05 292.017 -2.00272e-05C293.126 -2.00272e-05 294.04 0.18198 294.76 0.54598C295.479 0.90998 295.999 1.32165 296.32 1.78098C296.649 2.24031 296.814 2.61298 296.814 2.89898C296.814 2.97698 296.783 3.04631 296.723 3.10698C296.671 3.15898 296.606 3.18498 296.528 3.18498H293.59C293.416 3.18498 293.291 3.13731 293.213 3.04198C292.944 2.70398 292.545 2.53498 292.017 2.53498C291.618 2.53498 291.284 2.62598 291.016 2.80798C290.756 2.98998 290.626 3.22398 290.626 3.50998V5.71998C290.626 6.06665 290.756 6.33965 291.016 6.53898C291.276 6.72965 291.609 6.82498 292.017 6.82498C292.554 6.82498 292.948 6.73398 293.2 6.55198C293.46 6.36131 293.594 6.14031 293.603 5.88898H292.797C292.701 5.88898 292.619 5.85431 292.55 5.78498C292.48 5.71565 292.446 5.63331 292.446 5.53798V4.09498C292.446 3.99965 292.48 3.91731 292.55 3.84798C292.619 3.77865 292.701 3.74398 292.797 3.74398H296.567ZM318.371 0.12998C318.466 0.12998 318.548 0.164647 318.618 0.23398C318.687 0.303314 318.722 0.385647 318.722 0.48098V2.45698C318.722 2.55231 318.687 2.63465 318.618 2.70398C318.548 2.77331 318.466 2.80798 318.371 2.80798H313.262V3.63998H317.526C317.621 3.63998 317.703 3.67465 317.773 3.74398C317.842 3.81331 317.877 3.89565 317.877 3.99098V5.95398C317.877 6.04931 317.842 6.13165 317.773 6.20098C317.703 6.27031 317.621 6.30498 317.526 6.30498H313.262V8.87898C313.262 8.97431 313.227 9.05665 313.158 9.12598C313.088 9.19531 313.006 9.22998 312.911 9.22998H310.103C310.007 9.22998 309.925 9.19531 309.856 9.12598C309.786 9.05665 309.752 8.97431 309.752 8.87898V0.48098C309.752 0.385647 309.786 0.303314 309.856 0.23398C309.925 0.164647 310.007 0.12998 310.103 0.12998H318.371ZM329.858 5.47298C329.858 6.79898 329.416 7.77831 328.532 8.41098C327.656 9.04365 326.486 9.35998 325.022 9.35998C323.557 9.35998 322.383 9.04365 321.499 8.41098C320.623 7.77831 320.186 6.79031 320.186 5.44698V3.91298C320.186 3.02898 320.394 2.29665 320.81 1.71598C321.234 1.12665 321.811 0.693313 322.539 0.41598C323.267 0.138647 324.094 -2.00272e-05 325.022 -2.00272e-05C325.949 -2.00272e-05 326.772 0.138647 327.492 0.41598C328.22 0.693313 328.796 1.12231 329.221 1.70298C329.645 2.28365 329.858 3.01165 329.858 3.88698V5.47298ZM323.696 5.71998C323.696 6.07531 323.813 6.34831 324.047 6.53898C324.289 6.72965 324.614 6.82498 325.022 6.82498C325.429 6.82498 325.75 6.72965 325.984 6.53898C326.226 6.33965 326.348 6.06231 326.348 5.70698V3.65298C326.348 3.29765 326.226 3.02465 325.984 2.83398C325.75 2.63465 325.429 2.53498 325.022 2.53498C324.614 2.53498 324.289 2.63031 324.047 2.82098C323.813 3.01165 323.696 3.28465 323.696 3.63998V5.71998ZM341.228 8.82698C341.245 8.86165 341.254 8.90065 341.254 8.94398C341.254 9.02198 341.223 9.09131 341.163 9.15198C341.111 9.20398 341.046 9.22998 340.968 9.22998H338.017C337.895 9.22998 337.783 9.19965 337.679 9.13898C337.583 9.07831 337.514 9.00031 337.471 8.90498L336.327 6.33098H335.235V8.87898C335.235 8.97431 335.2 9.05665 335.131 9.12598C335.061 9.19531 334.979 9.22998 334.884 9.22998H332.076C331.98 9.22998 331.898 9.19531 331.829 9.12598C331.759 9.05665 331.725 8.97431 331.725 8.87898V0.48098C331.725 0.385647 331.759 0.303314 331.829 0.23398C331.898 0.164647 331.98 0.12998 332.076 0.12998H337.133C337.913 0.12998 338.593 0.255647 339.174 0.50698C339.763 0.758314 340.214 1.12231 340.526 1.59898C340.838 2.07565 340.994 2.63465 340.994 3.27598C340.994 4.45465 340.539 5.30831 339.629 5.83698L341.228 8.82698ZM336.86 3.92598C337.05 3.92598 337.198 3.86531 337.302 3.74398C337.406 3.61398 337.458 3.45365 337.458 3.26298C337.458 3.07231 337.406 2.90765 337.302 2.76898C337.206 2.62165 337.059 2.54798 336.86 2.54798H335.235V3.92598H336.86ZM345.967 8.87898C345.941 8.95698 345.876 9.03498 345.772 9.11298C345.677 9.19098 345.551 9.22998 345.395 9.22998H343.575C343.411 9.22998 343.272 9.18231 343.159 9.08698C343.055 8.98298 342.995 8.86598 342.977 8.73598L341.846 0.45498V0.41598C341.846 0.33798 341.872 0.27298 341.924 0.22098C341.985 0.160313 342.054 0.12998 342.132 0.12998H344.368C344.542 0.12998 344.68 0.18198 344.784 0.28598C344.897 0.38998 344.962 0.51998 344.979 0.67598L345.395 4.65398L346.149 2.58698C346.175 2.50031 346.236 2.41798 346.331 2.33998C346.435 2.25331 346.565 2.20998 346.721 2.20998H347.605C347.761 2.20998 347.887 2.25331 347.982 2.33998C348.086 2.41798 348.151 2.50031 348.177 2.58698L348.931 4.65398L349.347 0.67598C349.365 0.51998 349.425 0.38998 349.529 0.28598C349.642 0.18198 349.785 0.12998 349.958 0.12998H352.194C352.272 0.12998 352.337 0.160313 352.389 0.22098C352.45 0.27298 352.48 0.33798 352.48 0.41598V0.45498L351.349 8.73598C351.332 8.86598 351.267 8.98298 351.154 9.08698C351.05 9.18231 350.916 9.22998 350.751 9.22998H348.931C348.775 9.22998 348.645 9.19098 348.541 9.11298C348.446 9.03498 348.385 8.95698 348.359 8.87898L347.163 6.13598L345.967 8.87898ZM356.284 8.78798C356.172 9.08265 355.977 9.22998 355.699 9.22998H353.242C353.164 9.22998 353.095 9.20398 353.034 9.15198C352.982 9.09131 352.956 9.02198 352.956 8.94398L352.969 8.86598L355.803 0.55898C355.838 0.446314 355.903 0.346647 355.998 0.25998C356.094 0.173313 356.224 0.12998 356.388 0.12998H360.002C360.167 0.12998 360.297 0.173313 360.392 0.25998C360.488 0.346647 360.553 0.446314 360.587 0.55898L363.421 8.86598L363.434 8.94398C363.434 9.02198 363.404 9.09131 363.343 9.15198C363.291 9.20398 363.226 9.22998 363.148 9.22998H360.691C360.414 9.22998 360.219 9.08265 360.106 8.78798L359.781 7.87798H356.609L356.284 8.78798ZM358.195 2.63898L357.272 5.34298H359.118L358.195 2.63898ZM374.362 8.82698C374.38 8.86165 374.388 8.90065 374.388 8.94398C374.388 9.02198 374.358 9.09131 374.297 9.15198C374.245 9.20398 374.18 9.22998 374.102 9.22998H371.151C371.03 9.22998 370.917 9.19965 370.813 9.13898C370.718 9.07831 370.649 9.00031 370.605 8.90498L369.461 6.33098H368.369V8.87898C368.369 8.97431 368.335 9.05665 368.265 9.12598C368.196 9.19531 368.114 9.22998 368.018 9.22998H365.21C365.115 9.22998 365.033 9.19531 364.963 9.12598C364.894 9.05665 364.859 8.97431 364.859 8.87898V0.48098C364.859 0.385647 364.894 0.303314 364.963 0.23398C365.033 0.164647 365.115 0.12998 365.21 0.12998H370.267C371.047 0.12998 371.728 0.255647 372.308 0.50698C372.898 0.758314 373.348 1.12231 373.66 1.59898C373.972 2.07565 374.128 2.63465 374.128 3.27598C374.128 4.45465 373.673 5.30831 372.763 5.83698L374.362 8.82698ZM369.994 3.92598C370.185 3.92598 370.332 3.86531 370.436 3.74398C370.54 3.61398 370.592 3.45365 370.592 3.26298C370.592 3.07231 370.54 2.90765 370.436 2.76898C370.341 2.62165 370.194 2.54798 369.994 2.54798H368.369V3.92598H369.994ZM380.207 0.12998C381.672 0.12998 382.842 0.446313 383.717 1.07898C384.601 1.71165 385.043 2.69098 385.043 4.01698V5.34298C385.043 6.69498 384.606 7.68298 383.73 8.30698C382.864 8.92231 381.689 9.22998 380.207 9.22998H376.06C375.965 9.22998 375.883 9.19531 375.813 9.12598C375.744 9.05665 375.709 8.97431 375.709 8.87898V0.48098C375.709 0.385647 375.744 0.303314 375.813 0.23398C375.883 0.164647 375.965 0.12998 376.06 0.12998H380.207ZM380.272 6.69498C380.68 6.69498 381 6.59965 381.234 6.40898C381.477 6.20965 381.598 5.93231 381.598 5.57698V3.78298C381.598 3.42765 381.477 3.15465 381.234 2.96398C381 2.76465 380.68 2.66498 380.272 2.66498H379.089V6.69498H380.272ZM392.617 0.12998C392.712 0.12998 392.795 0.164647 392.864 0.23398C392.933 0.303314 392.968 0.394314 392.968 0.50698L392.955 5.45998C392.955 5.54665 392.92 5.62465 392.851 5.69398C392.782 5.75465 392.699 5.78498 392.604 5.78498H389.978C389.883 5.78498 389.8 5.75031 389.731 5.68098C389.662 5.61165 389.627 5.52498 389.627 5.42098V0.53298C389.627 0.411647 389.657 0.316313 389.718 0.24698C389.787 0.16898 389.874 0.12998 389.978 0.12998H392.617ZM392.604 6.33098C392.699 6.33098 392.782 6.36565 392.851 6.43498C392.92 6.50431 392.955 6.58665 392.955 6.68198V8.87898C392.955 8.97431 392.92 9.05665 392.851 9.12598C392.782 9.19531 392.699 9.22998 392.604 9.22998H389.978C389.883 9.22998 389.8 9.19531 389.731 9.12598C389.662 9.05665 389.627 8.97431 389.627 8.87898V6.68198C389.627 6.58665 389.662 6.50431 389.731 6.43498C389.8 6.36565 389.883 6.33098 389.978 6.33098H392.604Z" fill="#FFC4D1"/>
</svg>
