<svg width="56" height="56" viewBox="0 0 56 56" fill="none" xmlns="http://www.w3.org/2000/svg">
<rect x="2.00293" y="2.00293" width="51.9937" height="51.9937" rx="25.9968" fill="black" stroke="#FF5FA2"/>
<mask id="mask0_28_250" style="mask-type:alpha" maskUnits="userSpaceOnUse" x="0" y="0" width="56" height="56">
<rect width="56" height="56" fill="#D9D9D9"/>
</mask>
<g mask="url(#mask0_28_250)">
<path d="M28.0001 51.3332C24.7723 51.3332 21.739 50.7207 18.9001 49.4957C16.0612 48.2707 13.5917 46.6082 11.4917 44.5082C9.39175 42.4082 7.72925 39.9387 6.50425 37.0998C5.27925 34.2609 4.66675 31.2276 4.66675 27.9998C4.66675 24.7721 5.27925 21.7387 6.50425 18.8998C7.72925 16.0609 9.39175 13.5915 11.4917 11.4915C13.5917 9.3915 16.0612 7.729 18.9001 6.504C21.739 5.279 24.7723 4.6665 28.0001 4.6665C30.5279 4.6665 32.9195 5.03595 35.1751 5.77484C37.4306 6.51373 39.5112 7.54428 41.4167 8.8665L38.0334 12.3082C36.5556 11.3748 34.9806 10.6457 33.3084 10.1207C31.6362 9.59567 29.8667 9.33317 28.0001 9.33317C22.8279 9.33317 18.4237 11.1512 14.7876 14.7873C11.1515 18.4234 9.33341 22.8276 9.33341 27.9998C9.33341 33.1721 11.1515 37.5762 14.7876 41.2123C18.4237 44.8484 22.8279 46.6665 28.0001 46.6665C33.1723 46.6665 37.5765 44.8484 41.2126 41.2123C44.8487 37.5762 46.6667 33.1721 46.6667 27.9998C46.6667 27.2998 46.6279 26.5998 46.5501 25.8998C46.4723 25.1998 46.3556 24.5193 46.2001 23.8582L49.9917 20.0665C50.4195 21.3109 50.7501 22.5943 50.9834 23.9165C51.2167 25.2387 51.3334 26.5998 51.3334 27.9998C51.3334 31.2276 50.7209 34.2609 49.4959 37.0998C48.2709 39.9387 46.6084 42.4082 44.5084 44.5082C42.4084 46.6082 39.939 48.2707 37.1001 49.4957C34.2612 50.7207 31.2279 51.3332 28.0001 51.3332ZM24.7334 38.7332L14.8167 28.8165L18.0834 25.5498L24.7334 32.1998L48.0667 8.80817L51.3334 12.0748L24.7334 38.7332Z" fill="#FF5FA2"/>
</g>
</svg>
