<svg width="400" height="424" viewBox="0 0 400 424" fill="none" xmlns="http://www.w3.org/2000/svg">
<mask id="path-1-inside-1_23_17" fill="white">
<path d="M401.655 350.957C415.872 356.334 425.983 370.071 425.983 386.172C425.983 406.959 409.131 423.81 388.344 423.81C369.257 423.809 353.49 409.6 351.04 391.183H350.374C347.923 409.6 332.157 423.809 313.069 423.81C293.981 423.81 278.213 409.6 275.763 391.183H275.098C272.648 409.6 256.88 423.81 237.792 423.81C218.705 423.809 202.938 409.6 200.488 391.183H199.512C197.062 409.6 181.294 423.81 162.207 423.81C143.119 423.81 127.351 409.6 124.901 391.183H124.236C121.786 409.6 106.019 423.809 86.9312 423.81C67.8433 423.81 52.0758 409.6 49.6255 391.183H48.9604C46.5102 409.6 30.7426 423.81 11.6548 423.81C-9.13203 423.81 -25.9828 406.959 -25.9829 386.172C-25.9829 369.954 -15.7261 356.132 -1.34521 350.839V0H401.655V350.957Z"/>
</mask>
<path d="M401.655 350.957C415.872 356.334 425.983 370.071 425.983 386.172C425.983 406.959 409.131 423.81 388.344 423.81C369.257 423.809 353.49 409.6 351.04 391.183H350.374C347.923 409.6 332.157 423.809 313.069 423.81C293.981 423.81 278.213 409.6 275.763 391.183H275.098C272.648 409.6 256.88 423.81 237.792 423.81C218.705 423.809 202.938 409.6 200.488 391.183H199.512C197.062 409.6 181.294 423.81 162.207 423.81C143.119 423.81 127.351 409.6 124.901 391.183H124.236C121.786 409.6 106.019 423.809 86.9312 423.81C67.8433 423.81 52.0758 409.6 49.6255 391.183H48.9604C46.5102 409.6 30.7426 423.81 11.6548 423.81C-9.13203 423.81 -25.9828 406.959 -25.9829 386.172C-25.9829 369.954 -15.7261 356.132 -1.34521 350.839V0H401.655V350.957Z" fill="#FF5FA4"/>
<path d="M401.655 350.957H400.655V351.648L401.301 351.892L401.655 350.957ZM425.983 386.172H426.983H425.983ZM388.344 423.81V424.81V423.81ZM351.04 391.183L352.031 391.051L351.915 390.183H351.04V391.183ZM350.374 391.183V390.183H349.498L349.382 391.051L350.374 391.183ZM313.069 423.81V424.81V423.81ZM275.763 391.183L276.754 391.051L276.639 390.183H275.763V391.183ZM275.098 391.183V390.183H274.222L274.107 391.051L275.098 391.183ZM237.792 423.81V424.81V423.81ZM200.488 391.183L201.479 391.051L201.364 390.183H200.488V391.183ZM199.512 391.183V390.183H198.636L198.521 391.051L199.512 391.183ZM124.901 391.183L125.892 391.051L125.777 390.183H124.901V391.183ZM124.236 391.183V390.183H123.36L123.245 391.051L124.236 391.183ZM86.9312 423.81V424.81H86.9312L86.9312 423.81ZM49.6255 391.183L50.6168 391.051L50.5013 390.183H49.6255V391.183ZM48.9604 391.183V390.183H48.0847L47.9692 391.051L48.9604 391.183ZM-25.9829 386.172H-26.9829H-25.9829ZM-1.34521 350.839L-0.999817 351.777L-0.345215 351.536V350.839H-1.34521ZM-1.34521 0V-1H-2.34521V0H-1.34521ZM401.655 0H402.655V-1H401.655V0ZM401.655 350.957L401.301 351.892C415.143 357.127 424.983 370.501 424.983 386.172H425.983H426.983C426.983 369.642 416.602 355.541 402.009 350.022L401.655 350.957ZM425.983 386.172H424.983C424.983 406.406 408.579 422.81 388.344 422.81V423.81V424.81C409.683 424.81 426.983 407.511 426.983 386.172H425.983ZM388.344 423.81V422.81C369.765 422.809 354.416 408.978 352.031 391.051L351.04 391.183L350.048 391.314C352.564 410.222 368.749 424.809 388.344 424.81V423.81ZM351.04 391.183V390.183H350.374V391.183V392.183H351.04V391.183ZM350.374 391.183L349.382 391.051C346.997 408.978 331.649 422.809 313.069 422.81V423.81V424.81C332.665 424.809 348.849 410.222 351.365 391.314L350.374 391.183ZM313.069 423.81V422.81C294.489 422.81 279.139 408.978 276.754 391.051L275.763 391.183L274.772 391.314C277.287 410.223 293.473 424.81 313.069 424.81V423.81ZM275.763 391.183V390.183H275.098V391.183V392.183H275.763V391.183ZM275.098 391.183L274.107 391.051C271.722 408.978 256.372 422.81 237.792 422.81V423.81V424.81C257.388 424.81 273.574 410.223 276.089 391.314L275.098 391.183ZM237.792 423.81V422.81C219.213 422.809 203.864 408.978 201.479 391.051L200.488 391.183L199.497 391.314C202.012 410.222 218.197 424.809 237.792 424.81V423.81ZM200.488 391.183V390.183H199.512V391.183V392.183H200.488V391.183ZM199.512 391.183L198.521 391.051C196.136 408.978 180.786 422.81 162.207 422.81V423.81V424.81C181.802 424.81 197.988 410.223 200.503 391.314L199.512 391.183ZM162.207 423.81V422.81C143.627 422.81 128.277 408.978 125.892 391.051L124.901 391.183L123.91 391.314C126.425 410.223 142.611 424.81 162.207 424.81V423.81ZM124.901 391.183V390.183H124.236V391.183V392.183H124.901V391.183ZM124.236 391.183L123.245 391.051C120.86 408.978 105.511 422.809 86.9311 422.81L86.9312 423.81L86.9312 424.81C106.527 424.809 122.712 410.222 125.227 391.314L124.236 391.183ZM86.9312 423.81V422.81C68.3513 422.81 53.0018 408.978 50.6168 391.051L49.6255 391.183L48.6342 391.314C51.1497 410.223 67.3353 424.81 86.9312 424.81V423.81ZM49.6255 391.183V390.183H48.9604V391.183V392.183H49.6255V391.183ZM48.9604 391.183L47.9692 391.051C45.5842 408.978 30.2346 422.81 11.6548 422.81V423.81V424.81C31.2506 424.81 47.4362 410.223 49.9517 391.314L48.9604 391.183ZM11.6548 423.81V422.81C-8.57975 422.81 -24.9828 406.406 -24.9829 386.172H-25.9829H-26.9829C-26.9828 407.511 -9.68432 424.81 11.6548 424.81V423.81ZM-25.9829 386.172H-24.9829C-24.9829 370.387 -15.0001 356.93 -0.999817 351.777L-1.34521 350.839L-1.69061 349.9C-16.4521 355.333 -26.9829 369.522 -26.9829 386.172H-25.9829ZM-1.34521 350.839H-0.345215V0H-1.34521H-2.34521V350.839H-1.34521ZM-1.34521 0V1H401.655V0V-1H-1.34521V0ZM401.655 0H400.655V350.957H401.655H402.655V0H401.655Z" fill="black" mask="url(#path-1-inside-1_23_17)"/>
</svg>
