<svg width="400" height="190" viewBox="0 0 400 190" fill="none" xmlns="http://www.w3.org/2000/svg">
<mask id="path-1-inside-1_641_1034" fill="white">
<path d="M394.931 116.328C409.148 121.704 419.259 135.442 419.259 151.542C419.259 172.329 402.407 189.18 381.62 189.18C362.532 189.18 346.766 174.971 344.315 156.553H343.649C341.199 174.971 325.432 189.18 306.345 189.18C287.257 189.18 271.489 174.971 269.039 156.553H268.374C265.924 174.971 250.156 189.18 231.068 189.18C211.981 189.18 196.214 174.971 193.764 156.553H192.788C190.338 174.971 174.57 189.18 155.482 189.18C136.395 189.18 120.627 174.971 118.177 156.553H117.512C115.061 174.971 99.2946 189.18 80.207 189.18C61.1192 189.18 45.3516 174.971 42.9014 156.553H42.2363C39.7861 174.971 24.0185 189.18 4.93066 189.18C-15.8562 189.18 -32.707 172.329 -32.707 151.542C-32.707 135.325 -22.4502 121.502 -8.06934 116.209V-234.629H394.931V116.328Z"/>
</mask>
<path d="M394.931 116.328C409.148 121.704 419.259 135.442 419.259 151.542C419.259 172.329 402.407 189.18 381.62 189.18C362.532 189.18 346.766 174.971 344.315 156.553H343.649C341.199 174.971 325.432 189.18 306.345 189.18C287.257 189.18 271.489 174.971 269.039 156.553H268.374C265.924 174.971 250.156 189.18 231.068 189.18C211.981 189.18 196.214 174.971 193.764 156.553H192.788C190.338 174.971 174.57 189.18 155.482 189.18C136.395 189.18 120.627 174.971 118.177 156.553H117.512C115.061 174.971 99.2946 189.18 80.207 189.18C61.1192 189.18 45.3516 174.971 42.9014 156.553H42.2363C39.7861 174.971 24.0185 189.18 4.93066 189.18C-15.8562 189.18 -32.707 172.329 -32.707 151.542C-32.707 135.325 -22.4502 121.502 -8.06934 116.209V-234.629H394.931V116.328Z" fill="black"/>
<path d="M394.931 116.328H393.931V117.019L394.577 117.263L394.931 116.328ZM419.259 151.542H420.259H419.259ZM381.62 189.18V190.18V189.18ZM344.315 156.553L345.307 156.421L345.191 155.553H344.315V156.553ZM343.649 156.553V155.553H342.774L342.658 156.421L343.649 156.553ZM306.345 189.18V190.18V189.18ZM269.039 156.553L270.03 156.421L269.915 155.553H269.039V156.553ZM268.374 156.553V155.553H267.498L267.383 156.421L268.374 156.553ZM231.068 189.18V190.18V189.18ZM193.764 156.553L194.755 156.421L194.639 155.553H193.764V156.553ZM192.788 156.553V155.553H191.912L191.797 156.421L192.788 156.553ZM118.177 156.553L119.168 156.421L119.053 155.553H118.177V156.553ZM117.512 156.553V155.553H116.636L116.52 156.421L117.512 156.553ZM80.207 189.18V190.18H80.207L80.207 189.18ZM42.9014 156.553L43.8926 156.421L43.7771 155.553H42.9014V156.553ZM42.2363 156.553V155.553H41.3606L41.2451 156.421L42.2363 156.553ZM-32.707 151.542H-33.707H-32.707ZM-8.06934 116.209L-7.72394 117.148L-7.06934 116.907V116.209H-8.06934ZM-8.06934 -234.629V-235.629H-9.06934V-234.629H-8.06934ZM394.931 -234.629H395.931V-235.629H394.931V-234.629ZM394.931 116.328L394.577 117.263C408.418 122.497 418.259 135.871 418.259 151.542H419.259H420.259C420.259 135.013 409.878 120.911 395.284 115.392L394.931 116.328ZM419.259 151.542H418.259C418.259 171.777 401.855 188.18 381.62 188.18V189.18V190.18C402.959 190.18 420.259 172.882 420.259 151.542H419.259ZM381.62 189.18V188.18C363.04 188.18 347.692 174.349 345.307 156.421L344.315 156.553L343.324 156.685C345.84 175.593 362.024 190.18 381.62 190.18V189.18ZM344.315 156.553V155.553H343.649V156.553V157.553H344.315V156.553ZM343.649 156.553L342.658 156.421C340.273 174.349 324.924 188.18 306.345 188.18V189.18V190.18C325.94 190.18 342.125 175.593 344.641 156.685L343.649 156.553ZM306.345 189.18V188.18C287.765 188.18 272.415 174.349 270.03 156.421L269.039 156.553L268.048 156.685C270.563 175.593 286.749 190.18 306.345 190.18V189.18ZM269.039 156.553V155.553H268.374V156.553V157.553H269.039V156.553ZM268.374 156.553L267.383 156.421C264.998 174.349 249.648 188.18 231.068 188.18V189.18V190.18C250.664 190.18 266.85 175.593 269.365 156.685L268.374 156.553ZM231.068 189.18V188.18C212.489 188.18 197.14 174.349 194.755 156.421L193.764 156.553L192.772 156.685C195.288 175.593 211.473 190.18 231.068 190.18V189.18ZM193.764 156.553V155.553H192.788V156.553V157.553H193.764V156.553ZM192.788 156.553L191.797 156.421C189.412 174.349 174.062 188.18 155.482 188.18V189.18V190.18C175.078 190.18 191.264 175.593 193.779 156.685L192.788 156.553ZM155.482 189.18V188.18C136.903 188.18 121.553 174.349 119.168 156.421L118.177 156.553L117.185 156.685C119.701 175.593 135.887 190.18 155.482 190.18V189.18ZM118.177 156.553V155.553H117.512V156.553V157.553H118.177V156.553ZM117.512 156.553L116.52 156.421C114.135 174.349 98.7866 188.18 80.207 188.18L80.207 189.18L80.207 190.18C99.8027 190.18 115.988 175.593 118.503 156.685L117.512 156.553ZM80.207 189.18V188.18C61.6272 188.18 46.2777 174.349 43.8926 156.421L42.9014 156.553L41.9101 156.685C44.4256 175.593 60.6112 190.18 80.207 190.18V189.18ZM42.9014 156.553V155.553H42.2363V156.553V157.553H42.9014V156.553ZM42.2363 156.553L41.2451 156.421C38.86 174.349 23.5105 188.18 4.93066 188.18V189.18V190.18C24.5265 190.18 40.7121 175.593 43.2276 156.685L42.2363 156.553ZM4.93066 189.18V188.18C-15.3039 188.18 -31.707 171.777 -31.707 151.542H-32.707H-33.707C-33.707 172.882 -16.4084 190.18 4.93066 190.18V189.18ZM-32.707 151.542H-31.707C-31.707 135.757 -21.7242 122.301 -7.72394 117.148L-8.06934 116.209L-8.41473 115.271C-23.1762 120.704 -33.707 134.892 -33.707 151.542H-32.707ZM-8.06934 116.209H-7.06934V-234.629H-8.06934H-9.06934V116.209H-8.06934ZM-8.06934 -234.629V-233.629H394.931V-234.629V-235.629H-8.06934V-234.629ZM394.931 -234.629H393.931V116.328H394.931H395.931V-234.629H394.931Z" fill="black" mask="url(#path-1-inside-1_641_1034)"/>
</svg>
